%TF.GenerationSoftware,KiCad,Pcbnew,7.0.7*%
%TF.CreationDate,2025-01-01T11:59:36+10:30*%
%TF.ProjectId,V9261F_Breakout,56393236-3146-45f4-9272-65616b6f7574,rev?*%
%TF.SameCoordinates,Original*%
%TF.FileFunction,Soldermask,Top*%
%TF.FilePolarity,Negative*%
%FSLAX46Y46*%
G04 Gerber Fmt 4.6, Leading zero omitted, Abs format (unit mm)*
G04 Created by KiCad (PCBNEW 7.0.7) date 2025-01-01 11:59:36*
%MOMM*%
%LPD*%
G01*
G04 APERTURE LIST*
G04 Aperture macros list*
%AMRoundRect*
0 Rectangle with rounded corners*
0 $1 Rounding radius*
0 $2 $3 $4 $5 $6 $7 $8 $9 X,Y pos of 4 corners*
0 Add a 4 corners polygon primitive as box body*
4,1,4,$2,$3,$4,$5,$6,$7,$8,$9,$2,$3,0*
0 Add four circle primitives for the rounded corners*
1,1,$1+$1,$2,$3*
1,1,$1+$1,$4,$5*
1,1,$1+$1,$6,$7*
1,1,$1+$1,$8,$9*
0 Add four rect primitives between the rounded corners*
20,1,$1+$1,$2,$3,$4,$5,0*
20,1,$1+$1,$4,$5,$6,$7,0*
20,1,$1+$1,$6,$7,$8,$9,0*
20,1,$1+$1,$8,$9,$2,$3,0*%
G04 Aperture macros list end*
%ADD10RoundRect,0.250000X-0.250000X-0.475000X0.250000X-0.475000X0.250000X0.475000X-0.250000X0.475000X0*%
%ADD11RoundRect,0.250000X0.250000X0.475000X-0.250000X0.475000X-0.250000X-0.475000X0.250000X-0.475000X0*%
%ADD12RoundRect,0.225000X-0.225000X-0.250000X0.225000X-0.250000X0.225000X0.250000X-0.225000X0.250000X0*%
%ADD13R,4.500000X2.000000*%
%ADD14RoundRect,0.200000X0.200000X0.275000X-0.200000X0.275000X-0.200000X-0.275000X0.200000X-0.275000X0*%
%ADD15RoundRect,0.225000X0.225000X0.250000X-0.225000X0.250000X-0.225000X-0.250000X0.225000X-0.250000X0*%
%ADD16R,1.700000X1.700000*%
%ADD17O,1.700000X1.700000*%
%ADD18RoundRect,0.150000X0.150000X-0.850000X0.150000X0.850000X-0.150000X0.850000X-0.150000X-0.850000X0*%
%ADD19RoundRect,0.200000X-0.200000X-0.275000X0.200000X-0.275000X0.200000X0.275000X-0.200000X0.275000X0*%
G04 APERTURE END LIST*
D10*
%TO.C,C3*%
X141417000Y-83566000D03*
X143317000Y-83566000D03*
%TD*%
D11*
%TO.C,C8*%
X143317000Y-89408000D03*
X141417000Y-89408000D03*
%TD*%
D12*
%TO.C,C2*%
X141592000Y-85344000D03*
X143142000Y-85344000D03*
%TD*%
%TO.C,C10*%
X154406000Y-94615000D03*
X155956000Y-94615000D03*
%TD*%
D13*
%TO.C,Y1*%
X157158000Y-78359000D03*
X148658000Y-78359000D03*
%TD*%
D14*
%TO.C,R6*%
X150050000Y-94742000D03*
X148400000Y-94742000D03*
%TD*%
D15*
%TO.C,C5*%
X159652000Y-87376000D03*
X158102000Y-87376000D03*
%TD*%
D10*
%TO.C,C4*%
X157927000Y-83820000D03*
X159827000Y-83820000D03*
%TD*%
D14*
%TO.C,R3*%
X156006000Y-96139000D03*
X154356000Y-96139000D03*
%TD*%
D15*
%TO.C,C12*%
X147029000Y-92964000D03*
X145479000Y-92964000D03*
%TD*%
D12*
%TO.C,C11*%
X157467000Y-94615000D03*
X159017000Y-94615000D03*
%TD*%
D16*
%TO.C,J1*%
X139700000Y-99695000D03*
D17*
X142240000Y-99695000D03*
X144780000Y-99695000D03*
X147320000Y-99695000D03*
X149860000Y-99695000D03*
X152400000Y-99695000D03*
X154940000Y-99695000D03*
X157480000Y-99695000D03*
X160020000Y-99695000D03*
X162560000Y-99695000D03*
%TD*%
D18*
%TO.C,U1*%
X146050000Y-88860000D03*
X147320000Y-88860000D03*
X148590000Y-88860000D03*
X149860000Y-88860000D03*
X151130000Y-88860000D03*
X152400000Y-88860000D03*
X153670000Y-88860000D03*
X154940000Y-88860000D03*
X154940000Y-83860000D03*
X153670000Y-83860000D03*
X152400000Y-83860000D03*
X151130000Y-83860000D03*
X149860000Y-83860000D03*
X148590000Y-83860000D03*
X147320000Y-83860000D03*
X146050000Y-83860000D03*
%TD*%
D19*
%TO.C,R1*%
X157404000Y-96139000D03*
X159054000Y-96139000D03*
%TD*%
%TO.C,R2*%
X160452000Y-96139000D03*
X162102000Y-96139000D03*
%TD*%
D15*
%TO.C,C13*%
X150013000Y-92964000D03*
X148463000Y-92964000D03*
%TD*%
D12*
%TO.C,C1*%
X158102000Y-85598000D03*
X159652000Y-85598000D03*
%TD*%
%TO.C,C9*%
X152260000Y-92075000D03*
X153810000Y-92075000D03*
%TD*%
D19*
%TO.C,R5*%
X145416000Y-94742000D03*
X147066000Y-94742000D03*
%TD*%
D15*
%TO.C,C7*%
X143142000Y-87630000D03*
X141592000Y-87630000D03*
%TD*%
D14*
%TO.C,R4*%
X162102000Y-94615000D03*
X160452000Y-94615000D03*
%TD*%
D11*
%TO.C,C6*%
X159827000Y-89154000D03*
X157927000Y-89154000D03*
%TD*%
M02*
