%TF.GenerationSoftware,KiCad,Pcbnew,7.0.7*%
%TF.CreationDate,2025-01-01T11:59:36+10:30*%
%TF.ProjectId,V9261F_Breakout,56393236-3146-45f4-9272-65616b6f7574,rev?*%
%TF.SameCoordinates,Original*%
%TF.FileFunction,Copper,L1,Top*%
%TF.FilePolarity,Positive*%
%FSLAX46Y46*%
G04 Gerber Fmt 4.6, Leading zero omitted, Abs format (unit mm)*
G04 Created by KiCad (PCBNEW 7.0.7) date 2025-01-01 11:59:36*
%MOMM*%
%LPD*%
G01*
G04 APERTURE LIST*
G04 Aperture macros list*
%AMRoundRect*
0 Rectangle with rounded corners*
0 $1 Rounding radius*
0 $2 $3 $4 $5 $6 $7 $8 $9 X,Y pos of 4 corners*
0 Add a 4 corners polygon primitive as box body*
4,1,4,$2,$3,$4,$5,$6,$7,$8,$9,$2,$3,0*
0 Add four circle primitives for the rounded corners*
1,1,$1+$1,$2,$3*
1,1,$1+$1,$4,$5*
1,1,$1+$1,$6,$7*
1,1,$1+$1,$8,$9*
0 Add four rect primitives between the rounded corners*
20,1,$1+$1,$2,$3,$4,$5,0*
20,1,$1+$1,$4,$5,$6,$7,0*
20,1,$1+$1,$6,$7,$8,$9,0*
20,1,$1+$1,$8,$9,$2,$3,0*%
G04 Aperture macros list end*
%TA.AperFunction,SMDPad,CuDef*%
%ADD10RoundRect,0.250000X-0.250000X-0.475000X0.250000X-0.475000X0.250000X0.475000X-0.250000X0.475000X0*%
%TD*%
%TA.AperFunction,SMDPad,CuDef*%
%ADD11RoundRect,0.250000X0.250000X0.475000X-0.250000X0.475000X-0.250000X-0.475000X0.250000X-0.475000X0*%
%TD*%
%TA.AperFunction,SMDPad,CuDef*%
%ADD12RoundRect,0.225000X-0.225000X-0.250000X0.225000X-0.250000X0.225000X0.250000X-0.225000X0.250000X0*%
%TD*%
%TA.AperFunction,SMDPad,CuDef*%
%ADD13R,4.500000X2.000000*%
%TD*%
%TA.AperFunction,SMDPad,CuDef*%
%ADD14RoundRect,0.200000X0.200000X0.275000X-0.200000X0.275000X-0.200000X-0.275000X0.200000X-0.275000X0*%
%TD*%
%TA.AperFunction,SMDPad,CuDef*%
%ADD15RoundRect,0.225000X0.225000X0.250000X-0.225000X0.250000X-0.225000X-0.250000X0.225000X-0.250000X0*%
%TD*%
%TA.AperFunction,ComponentPad*%
%ADD16R,1.700000X1.700000*%
%TD*%
%TA.AperFunction,ComponentPad*%
%ADD17O,1.700000X1.700000*%
%TD*%
%TA.AperFunction,SMDPad,CuDef*%
%ADD18RoundRect,0.150000X0.150000X-0.850000X0.150000X0.850000X-0.150000X0.850000X-0.150000X-0.850000X0*%
%TD*%
%TA.AperFunction,SMDPad,CuDef*%
%ADD19RoundRect,0.200000X-0.200000X-0.275000X0.200000X-0.275000X0.200000X0.275000X-0.200000X0.275000X0*%
%TD*%
%TA.AperFunction,ViaPad*%
%ADD20C,0.800000*%
%TD*%
%TA.AperFunction,Conductor*%
%ADD21C,0.250000*%
%TD*%
%TA.AperFunction,Conductor*%
%ADD22C,0.400000*%
%TD*%
%TA.AperFunction,Conductor*%
%ADD23C,0.200000*%
%TD*%
G04 APERTURE END LIST*
D10*
%TO.P,C3,1*%
%TO.N,UN_IN*%
X141417000Y-83566000D03*
%TO.P,C3,2*%
%TO.N,Net-(U1-AVCC)*%
X143317000Y-83566000D03*
%TD*%
D11*
%TO.P,C8,1*%
%TO.N,VIN*%
X143317000Y-89408000D03*
%TO.P,C8,2*%
%TO.N,UN_IN*%
X141417000Y-89408000D03*
%TD*%
D12*
%TO.P,C2,1*%
%TO.N,UN_IN*%
X141592000Y-85344000D03*
%TO.P,C2,2*%
%TO.N,Net-(U1-AVCC)*%
X143142000Y-85344000D03*
%TD*%
%TO.P,C10,1*%
%TO.N,IAN*%
X154406000Y-94615000D03*
%TO.P,C10,2*%
%TO.N,UN_IN*%
X155956000Y-94615000D03*
%TD*%
D13*
%TO.P,Y1,1,1*%
%TO.N,Net-(U1-CTI)*%
X157158000Y-78359000D03*
%TO.P,Y1,2,2*%
%TO.N,Net-(U1-CTO)*%
X148658000Y-78359000D03*
%TD*%
D14*
%TO.P,R6,1*%
%TO.N,UN_IN*%
X150050000Y-94742000D03*
%TO.P,R6,2*%
%TO.N,UN*%
X148400000Y-94742000D03*
%TD*%
D15*
%TO.P,C5,1*%
%TO.N,UN_IN*%
X159652000Y-87376000D03*
%TO.P,C5,2*%
%TO.N,Net-(U1-REF)*%
X158102000Y-87376000D03*
%TD*%
D10*
%TO.P,C4,1*%
%TO.N,Net-(U1-DVCC)*%
X157927000Y-83820000D03*
%TO.P,C4,2*%
%TO.N,UN_IN*%
X159827000Y-83820000D03*
%TD*%
D14*
%TO.P,R3,1*%
%TO.N,IAN_IN*%
X156006000Y-96139000D03*
%TO.P,R3,2*%
%TO.N,IAN*%
X154356000Y-96139000D03*
%TD*%
D15*
%TO.P,C12,1*%
%TO.N,UP*%
X147029000Y-92964000D03*
%TO.P,C12,2*%
%TO.N,UN_IN*%
X145479000Y-92964000D03*
%TD*%
D12*
%TO.P,C11,1*%
%TO.N,UN_IN*%
X157467000Y-94615000D03*
%TO.P,C11,2*%
%TO.N,IAP*%
X159017000Y-94615000D03*
%TD*%
D16*
%TO.P,J1,1,Pin_1*%
%TO.N,UN_IN*%
X139700000Y-99695000D03*
D17*
%TO.P,J1,2,Pin_2*%
%TO.N,RX*%
X142240000Y-99695000D03*
%TO.P,J1,3,Pin_3*%
%TO.N,TX*%
X144780000Y-99695000D03*
%TO.P,J1,4,Pin_4*%
%TO.N,CF*%
X147320000Y-99695000D03*
%TO.P,J1,5,Pin_5*%
%TO.N,unconnected-(J1-Pin_5-Pad5)*%
X149860000Y-99695000D03*
%TO.P,J1,6,Pin_6*%
%TO.N,UP_IN*%
X152400000Y-99695000D03*
%TO.P,J1,7,Pin_7*%
%TO.N,UN_IN*%
X154940000Y-99695000D03*
%TO.P,J1,8,Pin_8*%
%TO.N,IAN_IN*%
X157480000Y-99695000D03*
%TO.P,J1,9,Pin_9*%
%TO.N,IAP_IN*%
X160020000Y-99695000D03*
%TO.P,J1,10,Pin_10*%
%TO.N,VIN*%
X162560000Y-99695000D03*
%TD*%
D18*
%TO.P,U1,1,VDD*%
%TO.N,VIN*%
X146050000Y-88860000D03*
%TO.P,U1,2,UP*%
%TO.N,UP*%
X147320000Y-88860000D03*
%TO.P,U1,3,UN*%
%TO.N,UN*%
X148590000Y-88860000D03*
%TO.P,U1,4,IBN*%
%TO.N,IBN*%
X149860000Y-88860000D03*
%TO.P,U1,5,IBP*%
%TO.N,IBP*%
X151130000Y-88860000D03*
%TO.P,U1,6,IAN*%
%TO.N,IAN*%
X152400000Y-88860000D03*
%TO.P,U1,7,IAP*%
%TO.N,IAP*%
X153670000Y-88860000D03*
%TO.P,U1,8,REF*%
%TO.N,Net-(U1-REF)*%
X154940000Y-88860000D03*
%TO.P,U1,9,DVCC*%
%TO.N,Net-(U1-DVCC)*%
X154940000Y-83860000D03*
%TO.P,U1,10,CTI*%
%TO.N,Net-(U1-CTI)*%
X153670000Y-83860000D03*
%TO.P,U1,11,CTO*%
%TO.N,Net-(U1-CTO)*%
X152400000Y-83860000D03*
%TO.P,U1,12,RX*%
%TO.N,RX*%
X151130000Y-83860000D03*
%TO.P,U1,13,TX*%
%TO.N,TX*%
X149860000Y-83860000D03*
%TO.P,U1,14,CF*%
%TO.N,CF*%
X148590000Y-83860000D03*
%TO.P,U1,15,VSS*%
%TO.N,UN_IN*%
X147320000Y-83860000D03*
%TO.P,U1,16,AVCC*%
%TO.N,Net-(U1-AVCC)*%
X146050000Y-83860000D03*
%TD*%
D19*
%TO.P,R1,1*%
%TO.N,IAN_IN*%
X157404000Y-96139000D03*
%TO.P,R1,2*%
%TO.N,UN_IN*%
X159054000Y-96139000D03*
%TD*%
%TO.P,R2,1*%
%TO.N,UN_IN*%
X160452000Y-96139000D03*
%TO.P,R2,2*%
%TO.N,IAP_IN*%
X162102000Y-96139000D03*
%TD*%
D15*
%TO.P,C13,1*%
%TO.N,UN_IN*%
X150013000Y-92964000D03*
%TO.P,C13,2*%
%TO.N,UN*%
X148463000Y-92964000D03*
%TD*%
D12*
%TO.P,C1,1*%
%TO.N,Net-(U1-DVCC)*%
X158102000Y-85598000D03*
%TO.P,C1,2*%
%TO.N,UN_IN*%
X159652000Y-85598000D03*
%TD*%
%TO.P,C9,1*%
%TO.N,IAN*%
X152260000Y-92075000D03*
%TO.P,C9,2*%
%TO.N,IAP*%
X153810000Y-92075000D03*
%TD*%
D19*
%TO.P,R5,1*%
%TO.N,UP_IN*%
X145416000Y-94742000D03*
%TO.P,R5,2*%
%TO.N,UP*%
X147066000Y-94742000D03*
%TD*%
D15*
%TO.P,C7,1*%
%TO.N,VIN*%
X143142000Y-87630000D03*
%TO.P,C7,2*%
%TO.N,UN_IN*%
X141592000Y-87630000D03*
%TD*%
D14*
%TO.P,R4,1*%
%TO.N,IAP_IN*%
X162102000Y-94615000D03*
%TO.P,R4,2*%
%TO.N,IAP*%
X160452000Y-94615000D03*
%TD*%
D11*
%TO.P,C6,1*%
%TO.N,UN_IN*%
X159827000Y-89154000D03*
%TO.P,C6,2*%
%TO.N,Net-(U1-REF)*%
X157927000Y-89154000D03*
%TD*%
D20*
%TO.N,UN_IN*%
X169164000Y-90339332D03*
X169164000Y-78486000D03*
X169164000Y-84412666D03*
X169164000Y-96266000D03*
X133096000Y-90593332D03*
X133096000Y-84666666D03*
X133096000Y-96520000D03*
X133096000Y-78740000D03*
X165354000Y-74676000D03*
X158178500Y-74676000D03*
X151003000Y-74676000D03*
X143827500Y-74676000D03*
X136652000Y-74676000D03*
X159004000Y-97282000D03*
X161290000Y-89154000D03*
X161290000Y-83820000D03*
%TO.N,VIN*%
X143383000Y-91313000D03*
%TO.N,IBP*%
X151130000Y-90932000D03*
%TO.N,IBN*%
X149860000Y-90932000D03*
%TD*%
D21*
%TO.N,Net-(U1-DVCC)*%
X154940000Y-83860000D02*
X157887000Y-83860000D01*
X157927000Y-83820000D02*
X157927000Y-85423000D01*
D22*
%TO.N,UN_IN*%
X141592000Y-85344000D02*
X141592000Y-83741000D01*
X147320000Y-81915000D02*
X147320000Y-83860000D01*
X157467000Y-94615000D02*
X157530000Y-94615000D01*
X150050000Y-94805000D02*
X154940000Y-99695000D01*
X159827000Y-89154000D02*
X161290000Y-89154000D01*
X157530000Y-94615000D02*
X159054000Y-96139000D01*
X158585883Y-86473000D02*
X147560000Y-86473000D01*
X159054000Y-97232000D02*
X159004000Y-97282000D01*
X141417000Y-83566000D02*
X141417000Y-82230000D01*
X159652000Y-85598000D02*
X159652000Y-83995000D01*
X150050000Y-94742000D02*
X150050000Y-93001000D01*
X141732000Y-81915000D02*
X147320000Y-81915000D01*
X159827000Y-83820000D02*
X161290000Y-83820000D01*
X159054000Y-96139000D02*
X159054000Y-97232000D01*
X155956000Y-94615000D02*
X157467000Y-94615000D01*
X147560000Y-86473000D02*
X147320000Y-86233000D01*
X159827000Y-85231883D02*
X158585883Y-86473000D01*
X141417000Y-82230000D02*
X141732000Y-81915000D01*
X141592000Y-87630000D02*
X141592000Y-89233000D01*
X159827000Y-89154000D02*
X159827000Y-87551000D01*
X147320000Y-86233000D02*
X147320000Y-83860000D01*
X159054000Y-96139000D02*
X160452000Y-96139000D01*
X141592000Y-87630000D02*
X141592000Y-85344000D01*
X159652000Y-87376000D02*
X159652000Y-85598000D01*
X159827000Y-83820000D02*
X159827000Y-85231883D01*
D21*
%TO.N,Net-(U1-AVCC)*%
X145756000Y-83566000D02*
X146050000Y-83860000D01*
X143317000Y-83566000D02*
X145756000Y-83566000D01*
X143317000Y-83566000D02*
X143317000Y-85169000D01*
%TO.N,Net-(U1-REF)*%
X154940000Y-88860000D02*
X157633000Y-88860000D01*
X157927000Y-89154000D02*
X157927000Y-87551000D01*
D22*
%TO.N,VIN*%
X143317000Y-89408000D02*
X143317000Y-87805000D01*
X143317000Y-89408000D02*
X145502000Y-89408000D01*
X145502000Y-89408000D02*
X146050000Y-88860000D01*
X143317000Y-91247000D02*
X143383000Y-91313000D01*
X143317000Y-89408000D02*
X143317000Y-91247000D01*
D23*
%TO.N,IAN*%
X154406000Y-94615000D02*
X154406000Y-96089000D01*
X152400000Y-88860000D02*
X152400000Y-91935000D01*
X152260000Y-92469000D02*
X154406000Y-94615000D01*
X152260000Y-92075000D02*
X152260000Y-92469000D01*
%TO.N,IAP*%
X153810000Y-92075000D02*
X154953000Y-93218000D01*
X159017000Y-94615000D02*
X160452000Y-94615000D01*
X159017000Y-93231000D02*
X159017000Y-94615000D01*
X159004000Y-93218000D02*
X159017000Y-93231000D01*
X153810000Y-92075000D02*
X153810000Y-89000000D01*
X154953000Y-93218000D02*
X159004000Y-93218000D01*
%TO.N,UP*%
X147029000Y-92964000D02*
X147029000Y-94705000D01*
X147320000Y-92673000D02*
X147029000Y-92964000D01*
X147029000Y-94705000D02*
X147066000Y-94742000D01*
X147320000Y-88860000D02*
X147320000Y-92673000D01*
%TO.N,UN*%
X148463000Y-94679000D02*
X148400000Y-94742000D01*
X148590000Y-88860000D02*
X148590000Y-92837000D01*
X148590000Y-92837000D02*
X148463000Y-92964000D01*
X148463000Y-92964000D02*
X148463000Y-94679000D01*
D21*
%TO.N,TX*%
X139446000Y-94361000D02*
X144780000Y-99695000D01*
X137864207Y-80449499D02*
X137287706Y-81026000D01*
X137287706Y-81026000D02*
X137287000Y-81026000D01*
X149860000Y-81533310D02*
X148776189Y-80449499D01*
X137287000Y-81026000D02*
X135509000Y-82804000D01*
X135509000Y-93472000D02*
X136398000Y-94361000D01*
X149860000Y-83860000D02*
X149860000Y-81533310D01*
X135509000Y-82804000D02*
X135509000Y-93472000D01*
X136398000Y-94361000D02*
X139446000Y-94361000D01*
X148776189Y-80449499D02*
X137864207Y-80449499D01*
%TO.N,RX*%
X151130000Y-83860000D02*
X151130000Y-82167620D01*
X148962378Y-79999998D02*
X137678018Y-79999998D01*
X151130000Y-82167620D02*
X148962378Y-79999998D01*
X135059000Y-82617604D02*
X135059000Y-93658396D01*
X137414000Y-94869000D02*
X142240000Y-99695000D01*
X135059000Y-93658396D02*
X136269604Y-94869000D01*
X137678018Y-79999998D02*
X137424018Y-80253998D01*
X137424018Y-80253998D02*
X137422606Y-80253998D01*
X136269604Y-94869000D02*
X137414000Y-94869000D01*
X137422606Y-80253998D02*
X135059000Y-82617604D01*
%TO.N,CF*%
X148590000Y-83860000D02*
X148590000Y-80899000D01*
X138050396Y-80899000D02*
X135959000Y-82990396D01*
X135959000Y-82990396D02*
X135959000Y-93285604D01*
X136462198Y-93788802D02*
X143320198Y-93788802D01*
X143320198Y-95695198D02*
X147320000Y-99695000D01*
X148590000Y-80899000D02*
X138050396Y-80899000D01*
X143320198Y-93788802D02*
X143320198Y-95695198D01*
X135959000Y-93285604D02*
X136462198Y-93788802D01*
%TO.N,IAN_IN*%
X157404000Y-96139000D02*
X156006000Y-96139000D01*
X157480000Y-96215000D02*
X157480000Y-99695000D01*
%TO.N,IAP_IN*%
X160147000Y-97536000D02*
X160020000Y-97663000D01*
X160020000Y-97663000D02*
X160020000Y-99695000D01*
X162102000Y-96139000D02*
X160705000Y-97536000D01*
X160705000Y-97536000D02*
X160147000Y-97536000D01*
X162102000Y-96139000D02*
X162102000Y-94615000D01*
D22*
%TO.N,UP_IN*%
X148464000Y-97790000D02*
X150495000Y-97790000D01*
X145416000Y-94742000D02*
X148464000Y-97790000D01*
X150495000Y-97790000D02*
X152400000Y-99695000D01*
D23*
%TO.N,IBP*%
X151130000Y-88860000D02*
X151130000Y-90932000D01*
%TO.N,IBN*%
X149860000Y-88860000D02*
X149860000Y-90932000D01*
D21*
%TO.N,Net-(U1-CTI)*%
X153670000Y-78740000D02*
X154051000Y-78359000D01*
X154051000Y-78359000D02*
X157158000Y-78359000D01*
X153670000Y-83860000D02*
X153670000Y-78740000D01*
%TO.N,Net-(U1-CTO)*%
X151892000Y-78359000D02*
X148658000Y-78359000D01*
X152400000Y-83860000D02*
X152400000Y-78867000D01*
X152400000Y-78867000D02*
X151892000Y-78359000D01*
%TD*%
%TA.AperFunction,Conductor*%
%TO.N,UN_IN*%
G36*
X150555974Y-91638912D02*
G01*
X150567877Y-91646561D01*
X150673248Y-91723118D01*
X150847712Y-91800794D01*
X151034513Y-91840500D01*
X151177500Y-91840500D01*
X151244539Y-91860185D01*
X151290294Y-91912989D01*
X151301500Y-91964500D01*
X151301500Y-92373879D01*
X151311764Y-92474336D01*
X151365697Y-92637098D01*
X151365702Y-92637109D01*
X151455712Y-92783036D01*
X151455715Y-92783040D01*
X151576959Y-92904284D01*
X151576963Y-92904287D01*
X151722890Y-92994297D01*
X151722893Y-92994298D01*
X151722899Y-92994302D01*
X151810106Y-93023199D01*
X151885663Y-93048236D01*
X151894949Y-93049184D01*
X151945387Y-93054337D01*
X152010078Y-93080733D01*
X152020465Y-93090014D01*
X153411181Y-94480730D01*
X153444666Y-94542053D01*
X153447500Y-94568411D01*
X153447500Y-94913879D01*
X153457764Y-95014336D01*
X153511697Y-95177098D01*
X153511702Y-95177109D01*
X153588935Y-95302322D01*
X153607376Y-95369714D01*
X153589514Y-95431568D01*
X153505174Y-95571084D01*
X153505173Y-95571086D01*
X153505173Y-95571087D01*
X153487653Y-95627311D01*
X153453986Y-95735354D01*
X153448796Y-95792466D01*
X153448161Y-95799467D01*
X153447500Y-95806737D01*
X153447500Y-96471272D01*
X153453985Y-96542645D01*
X153453988Y-96542655D01*
X153505171Y-96706909D01*
X153505172Y-96706911D01*
X153505173Y-96706913D01*
X153531000Y-96749636D01*
X153594186Y-96854158D01*
X153715841Y-96975813D01*
X153715843Y-96975814D01*
X153715845Y-96975816D01*
X153863087Y-97064827D01*
X154027351Y-97116013D01*
X154098735Y-97122500D01*
X154613264Y-97122499D01*
X154613272Y-97122499D01*
X154684645Y-97116014D01*
X154684648Y-97116013D01*
X154684649Y-97116013D01*
X154848913Y-97064827D01*
X154996155Y-96975816D01*
X155035982Y-96935989D01*
X155093319Y-96878653D01*
X155154642Y-96845168D01*
X155224334Y-96850152D01*
X155268681Y-96878653D01*
X155365841Y-96975813D01*
X155365843Y-96975814D01*
X155365845Y-96975816D01*
X155513087Y-97064827D01*
X155677351Y-97116013D01*
X155748735Y-97122500D01*
X156263264Y-97122499D01*
X156263272Y-97122499D01*
X156334645Y-97116014D01*
X156334648Y-97116013D01*
X156334649Y-97116013D01*
X156498913Y-97064827D01*
X156640851Y-96979022D01*
X156708403Y-96961186D01*
X156769144Y-96979019D01*
X156786649Y-96989601D01*
X156833836Y-97041125D01*
X156846500Y-97095718D01*
X156846500Y-98419269D01*
X156826815Y-98486308D01*
X156781520Y-98528323D01*
X156734422Y-98553811D01*
X156734422Y-98553812D01*
X156556761Y-98692092D01*
X156556756Y-98692097D01*
X156404284Y-98857723D01*
X156404276Y-98857734D01*
X156310251Y-99001650D01*
X156257105Y-99047007D01*
X156187873Y-99056430D01*
X156124538Y-99026928D01*
X156104868Y-99004951D01*
X155978113Y-98823926D01*
X155978108Y-98823920D01*
X155811082Y-98656894D01*
X155617578Y-98521399D01*
X155403492Y-98421570D01*
X155403486Y-98421567D01*
X155190000Y-98364364D01*
X155190000Y-99082698D01*
X155170315Y-99149737D01*
X155117511Y-99195492D01*
X155048355Y-99205436D01*
X154975766Y-99195000D01*
X154975763Y-99195000D01*
X154904237Y-99195000D01*
X154904233Y-99195000D01*
X154831645Y-99205436D01*
X154762487Y-99195492D01*
X154709684Y-99149736D01*
X154690000Y-99082698D01*
X154690000Y-98364364D01*
X154689999Y-98364364D01*
X154476513Y-98421567D01*
X154476507Y-98421570D01*
X154262422Y-98521399D01*
X154262420Y-98521400D01*
X154068926Y-98656886D01*
X154068920Y-98656891D01*
X153901891Y-98823920D01*
X153901890Y-98823922D01*
X153775131Y-99004952D01*
X153720554Y-99048577D01*
X153651055Y-99055769D01*
X153588701Y-99024247D01*
X153569752Y-99001656D01*
X153475722Y-98857732D01*
X153475715Y-98857725D01*
X153475715Y-98857723D01*
X153323243Y-98692097D01*
X153323238Y-98692092D01*
X153145577Y-98553812D01*
X153145572Y-98553808D01*
X152947580Y-98446661D01*
X152947577Y-98446659D01*
X152947574Y-98446658D01*
X152947571Y-98446657D01*
X152947569Y-98446656D01*
X152734637Y-98373556D01*
X152512569Y-98336500D01*
X152287431Y-98336500D01*
X152141312Y-98360881D01*
X152071947Y-98352498D01*
X152033223Y-98326253D01*
X151667724Y-97960754D01*
X151012434Y-97305464D01*
X151009900Y-97302772D01*
X150968273Y-97255785D01*
X150968272Y-97255784D01*
X150968271Y-97255783D01*
X150916628Y-97220136D01*
X150913611Y-97217916D01*
X150864227Y-97179225D01*
X150858235Y-97176528D01*
X150854760Y-97174964D01*
X150835216Y-97163941D01*
X150830210Y-97160486D01*
X150826677Y-97158047D01*
X150826672Y-97158044D01*
X150768015Y-97135798D01*
X150764555Y-97134365D01*
X150707331Y-97108611D01*
X150707332Y-97108611D01*
X150697110Y-97106738D01*
X150675510Y-97100716D01*
X150665801Y-97097035D01*
X150665797Y-97097034D01*
X150665796Y-97097034D01*
X150603511Y-97089470D01*
X150599810Y-97088907D01*
X150538096Y-97077598D01*
X150538090Y-97077598D01*
X150475455Y-97081387D01*
X150471710Y-97081500D01*
X148808832Y-97081500D01*
X148741793Y-97061815D01*
X148721151Y-97045181D01*
X147536760Y-95860790D01*
X147503275Y-95799467D01*
X147508259Y-95729775D01*
X147550131Y-95673842D01*
X147560272Y-95667005D01*
X147668851Y-95601366D01*
X147736406Y-95583531D01*
X147797147Y-95601366D01*
X147907087Y-95667827D01*
X148071351Y-95719013D01*
X148142735Y-95725500D01*
X148657264Y-95725499D01*
X148657272Y-95725499D01*
X148728645Y-95719014D01*
X148728648Y-95719013D01*
X148728649Y-95719013D01*
X148892913Y-95667827D01*
X149040155Y-95578816D01*
X149143330Y-95475640D01*
X149204651Y-95442156D01*
X149274342Y-95447140D01*
X149318691Y-95475641D01*
X149415122Y-95572072D01*
X149560604Y-95660019D01*
X149560603Y-95660019D01*
X149722894Y-95710590D01*
X149722893Y-95710590D01*
X149793408Y-95716998D01*
X149793426Y-95716999D01*
X149799999Y-95716998D01*
X149799999Y-94992000D01*
X150300000Y-94992000D01*
X150300000Y-95716999D01*
X150306581Y-95716999D01*
X150377102Y-95710591D01*
X150377107Y-95710590D01*
X150539396Y-95660018D01*
X150684877Y-95572072D01*
X150805072Y-95451877D01*
X150893019Y-95306395D01*
X150943590Y-95144106D01*
X150949999Y-95073572D01*
X150950000Y-94992000D01*
X150300000Y-94992000D01*
X149799999Y-94992000D01*
X149800000Y-93979000D01*
X149799319Y-93978319D01*
X149765834Y-93916996D01*
X149763000Y-93890638D01*
X149763000Y-93214000D01*
X150263000Y-93214000D01*
X150263000Y-93726999D01*
X150263680Y-93727679D01*
X150297166Y-93789001D01*
X150300000Y-93815361D01*
X150300000Y-94492000D01*
X150949999Y-94492000D01*
X150949999Y-94410417D01*
X150943591Y-94339897D01*
X150943590Y-94339892D01*
X150893018Y-94177603D01*
X150805072Y-94032122D01*
X150712808Y-93939858D01*
X150679323Y-93878535D01*
X150684307Y-93808843D01*
X150712808Y-93764495D01*
X150810576Y-93666727D01*
X150899542Y-93522492D01*
X150899547Y-93522481D01*
X150952855Y-93361606D01*
X150962999Y-93262322D01*
X150963000Y-93262309D01*
X150963000Y-93214000D01*
X150263000Y-93214000D01*
X149763000Y-93214000D01*
X149763000Y-92838000D01*
X149782685Y-92770961D01*
X149835489Y-92725206D01*
X149887000Y-92714000D01*
X150962999Y-92714000D01*
X150962999Y-92665692D01*
X150962998Y-92665677D01*
X150952855Y-92566392D01*
X150899547Y-92405518D01*
X150899542Y-92405507D01*
X150810575Y-92261271D01*
X150810572Y-92261267D01*
X150690732Y-92141427D01*
X150690728Y-92141424D01*
X150546492Y-92052457D01*
X150546481Y-92052452D01*
X150385607Y-91999144D01*
X150288416Y-91989214D01*
X150223725Y-91962817D01*
X150183574Y-91905636D01*
X150180711Y-91835825D01*
X150216046Y-91775549D01*
X150250582Y-91752578D01*
X150316752Y-91723118D01*
X150422115Y-91646566D01*
X150487920Y-91623087D01*
X150555974Y-91638912D01*
G37*
%TD.AperFunction*%
%TA.AperFunction,Conductor*%
G36*
X160645039Y-95908685D02*
G01*
X160690794Y-95961489D01*
X160702000Y-96013000D01*
X160702000Y-96265000D01*
X160682315Y-96332039D01*
X160629511Y-96377794D01*
X160578000Y-96389000D01*
X159304000Y-96389000D01*
X159304000Y-97113999D01*
X159310581Y-97113999D01*
X159381841Y-97107524D01*
X159450387Y-97121061D01*
X159500732Y-97169508D01*
X159516893Y-97237483D01*
X159501722Y-97290756D01*
X159493580Y-97305565D01*
X159482903Y-97321820D01*
X159470386Y-97337957D01*
X159470385Y-97337959D01*
X159451625Y-97381310D01*
X159449055Y-97386556D01*
X159426303Y-97427941D01*
X159426303Y-97427942D01*
X159421225Y-97447720D01*
X159414925Y-97466122D01*
X159406818Y-97484857D01*
X159399431Y-97531495D01*
X159398246Y-97537216D01*
X159386500Y-97582965D01*
X159386500Y-97603384D01*
X159384973Y-97622783D01*
X159381780Y-97642941D01*
X159381780Y-97642942D01*
X159386225Y-97689966D01*
X159386500Y-97695804D01*
X159386500Y-98419269D01*
X159366815Y-98486308D01*
X159321520Y-98528323D01*
X159274422Y-98553811D01*
X159274422Y-98553812D01*
X159096761Y-98692092D01*
X159096756Y-98692097D01*
X158944284Y-98857723D01*
X158944276Y-98857734D01*
X158853808Y-98996206D01*
X158800662Y-99041562D01*
X158731431Y-99050986D01*
X158668095Y-99021484D01*
X158646192Y-98996206D01*
X158555723Y-98857734D01*
X158555715Y-98857723D01*
X158403243Y-98692097D01*
X158403238Y-98692092D01*
X158225577Y-98553812D01*
X158225577Y-98553811D01*
X158178480Y-98528323D01*
X158128891Y-98479102D01*
X158113500Y-98419269D01*
X158113500Y-96962812D01*
X158133185Y-96895773D01*
X158185989Y-96850018D01*
X158255147Y-96840074D01*
X158318703Y-96869099D01*
X158325181Y-96875131D01*
X158419122Y-96969072D01*
X158564604Y-97057019D01*
X158564603Y-97057019D01*
X158726894Y-97107590D01*
X158726893Y-97107590D01*
X158797408Y-97113998D01*
X158797426Y-97113999D01*
X158803999Y-97113998D01*
X158804000Y-97113998D01*
X158804000Y-96013000D01*
X158823685Y-95945961D01*
X158876489Y-95900206D01*
X158928000Y-95889000D01*
X160578000Y-95889000D01*
X160645039Y-95908685D01*
G37*
%TD.AperFunction*%
%TA.AperFunction,Conductor*%
G36*
X147899539Y-81552185D02*
G01*
X147945294Y-81604989D01*
X147956500Y-81656500D01*
X147956500Y-82325157D01*
X147936815Y-82392196D01*
X147884011Y-82437951D01*
X147814853Y-82447895D01*
X147769380Y-82431890D01*
X147730194Y-82408716D01*
X147572494Y-82362900D01*
X147572497Y-82362900D01*
X147570000Y-82362703D01*
X147570000Y-85357295D01*
X147570001Y-85357295D01*
X147572486Y-85357100D01*
X147730198Y-85311281D01*
X147871553Y-85227684D01*
X147872382Y-85227042D01*
X147873150Y-85226740D01*
X147878271Y-85223712D01*
X147878759Y-85224537D01*
X147937416Y-85201501D01*
X148005934Y-85215174D01*
X148026526Y-85230314D01*
X148027027Y-85229670D01*
X148033191Y-85234451D01*
X148033193Y-85234453D01*
X148176399Y-85319145D01*
X148218530Y-85331385D01*
X148336164Y-85365561D01*
X148336167Y-85365561D01*
X148336169Y-85365562D01*
X148345501Y-85366296D01*
X148373495Y-85368500D01*
X148373498Y-85368500D01*
X148806505Y-85368500D01*
X148828899Y-85366737D01*
X148843831Y-85365562D01*
X148843833Y-85365561D01*
X148843835Y-85365561D01*
X148904280Y-85348000D01*
X149003601Y-85319145D01*
X149146807Y-85234453D01*
X149146812Y-85234448D01*
X149148995Y-85232755D01*
X149151029Y-85231956D01*
X149153522Y-85230482D01*
X149153759Y-85230883D01*
X149214030Y-85207217D01*
X149282548Y-85220894D01*
X149301005Y-85232755D01*
X149303197Y-85234456D01*
X149390298Y-85285967D01*
X149446399Y-85319145D01*
X149488530Y-85331385D01*
X149606164Y-85365561D01*
X149606167Y-85365561D01*
X149606169Y-85365562D01*
X149615501Y-85366296D01*
X149643495Y-85368500D01*
X149643498Y-85368500D01*
X150076505Y-85368500D01*
X150098899Y-85366737D01*
X150113831Y-85365562D01*
X150113833Y-85365561D01*
X150113835Y-85365561D01*
X150174280Y-85348000D01*
X150273601Y-85319145D01*
X150416807Y-85234453D01*
X150416812Y-85234448D01*
X150418995Y-85232755D01*
X150421029Y-85231956D01*
X150423522Y-85230482D01*
X150423759Y-85230883D01*
X150484030Y-85207217D01*
X150552548Y-85220894D01*
X150571005Y-85232755D01*
X150573197Y-85234456D01*
X150660298Y-85285967D01*
X150716399Y-85319145D01*
X150758530Y-85331385D01*
X150876164Y-85365561D01*
X150876167Y-85365561D01*
X150876169Y-85365562D01*
X150885501Y-85366296D01*
X150913495Y-85368500D01*
X150913498Y-85368500D01*
X151346505Y-85368500D01*
X151368899Y-85366737D01*
X151383831Y-85365562D01*
X151383833Y-85365561D01*
X151383835Y-85365561D01*
X151444280Y-85348000D01*
X151543601Y-85319145D01*
X151686807Y-85234453D01*
X151686812Y-85234448D01*
X151688995Y-85232755D01*
X151691029Y-85231956D01*
X151693522Y-85230482D01*
X151693759Y-85230883D01*
X151754030Y-85207217D01*
X151822548Y-85220894D01*
X151841005Y-85232755D01*
X151843197Y-85234456D01*
X151930298Y-85285967D01*
X151986399Y-85319145D01*
X152028530Y-85331385D01*
X152146164Y-85365561D01*
X152146167Y-85365561D01*
X152146169Y-85365562D01*
X152155501Y-85366296D01*
X152183495Y-85368500D01*
X152183498Y-85368500D01*
X152616505Y-85368500D01*
X152638899Y-85366737D01*
X152653831Y-85365562D01*
X152653833Y-85365561D01*
X152653835Y-85365561D01*
X152714280Y-85348000D01*
X152813601Y-85319145D01*
X152956807Y-85234453D01*
X152956812Y-85234448D01*
X152958995Y-85232755D01*
X152961029Y-85231956D01*
X152963522Y-85230482D01*
X152963759Y-85230883D01*
X153024030Y-85207217D01*
X153092548Y-85220894D01*
X153111005Y-85232755D01*
X153113197Y-85234456D01*
X153200298Y-85285967D01*
X153256399Y-85319145D01*
X153298530Y-85331385D01*
X153416164Y-85365561D01*
X153416167Y-85365561D01*
X153416169Y-85365562D01*
X153425501Y-85366296D01*
X153453495Y-85368500D01*
X153453498Y-85368500D01*
X153886505Y-85368500D01*
X153908899Y-85366737D01*
X153923831Y-85365562D01*
X153923833Y-85365561D01*
X153923835Y-85365561D01*
X153984280Y-85348000D01*
X154083601Y-85319145D01*
X154226807Y-85234453D01*
X154226812Y-85234448D01*
X154228995Y-85232755D01*
X154231029Y-85231956D01*
X154233522Y-85230482D01*
X154233759Y-85230883D01*
X154294030Y-85207217D01*
X154362548Y-85220894D01*
X154381005Y-85232755D01*
X154383197Y-85234456D01*
X154470298Y-85285967D01*
X154526399Y-85319145D01*
X154568530Y-85331385D01*
X154686164Y-85365561D01*
X154686167Y-85365561D01*
X154686169Y-85365562D01*
X154695501Y-85366296D01*
X154723495Y-85368500D01*
X154723498Y-85368500D01*
X155156505Y-85368500D01*
X155178899Y-85366737D01*
X155193831Y-85365562D01*
X155193833Y-85365561D01*
X155193835Y-85365561D01*
X155254280Y-85348000D01*
X155353601Y-85319145D01*
X155496807Y-85234453D01*
X155614453Y-85116807D01*
X155699145Y-84973601D01*
X155745562Y-84813831D01*
X155746737Y-84798899D01*
X155748500Y-84776505D01*
X155748500Y-84617500D01*
X155768185Y-84550461D01*
X155820989Y-84504706D01*
X155872500Y-84493500D01*
X156854176Y-84493500D01*
X156921215Y-84513185D01*
X156966970Y-84565989D01*
X156971879Y-84578489D01*
X156983686Y-84614119D01*
X156984884Y-84617735D01*
X156984886Y-84617740D01*
X156996124Y-84635960D01*
X157075514Y-84764671D01*
X157077971Y-84768653D01*
X157190831Y-84881513D01*
X157224316Y-84942836D01*
X157219332Y-85012528D01*
X157208697Y-85034278D01*
X157207698Y-85035897D01*
X157207696Y-85035902D01*
X157153764Y-85198660D01*
X157153764Y-85198661D01*
X157143500Y-85299120D01*
X157143500Y-85896879D01*
X157153764Y-85997336D01*
X157207697Y-86160098D01*
X157207702Y-86160109D01*
X157297711Y-86306035D01*
X157297713Y-86306037D01*
X157297715Y-86306040D01*
X157390996Y-86399321D01*
X157424479Y-86460640D01*
X157419495Y-86530332D01*
X157390995Y-86574680D01*
X157297712Y-86667963D01*
X157207702Y-86813890D01*
X157207697Y-86813901D01*
X157153764Y-86976663D01*
X157143500Y-87077120D01*
X157143500Y-87674879D01*
X157153764Y-87775338D01*
X157153764Y-87775339D01*
X157207696Y-87938097D01*
X157207696Y-87938099D01*
X157208689Y-87939708D01*
X157209032Y-87940963D01*
X157210748Y-87944642D01*
X157210119Y-87944935D01*
X157227129Y-88007101D01*
X157206206Y-88073764D01*
X157190832Y-88092485D01*
X157093137Y-88190181D01*
X157031814Y-88223666D01*
X157005455Y-88226500D01*
X155872500Y-88226500D01*
X155805461Y-88206815D01*
X155759706Y-88154011D01*
X155748500Y-88102500D01*
X155748500Y-87943495D01*
X155745562Y-87906170D01*
X155745561Y-87906164D01*
X155699146Y-87746403D01*
X155699145Y-87746399D01*
X155614453Y-87603193D01*
X155614451Y-87603191D01*
X155614448Y-87603187D01*
X155496812Y-87485551D01*
X155496803Y-87485544D01*
X155353601Y-87400855D01*
X155353596Y-87400853D01*
X155193835Y-87354438D01*
X155193829Y-87354437D01*
X155156505Y-87351500D01*
X155156502Y-87351500D01*
X154723498Y-87351500D01*
X154723495Y-87351500D01*
X154686170Y-87354437D01*
X154686164Y-87354438D01*
X154526403Y-87400853D01*
X154526398Y-87400855D01*
X154383191Y-87485547D01*
X154380998Y-87487249D01*
X154378965Y-87488047D01*
X154376478Y-87489518D01*
X154376240Y-87489116D01*
X154315961Y-87512783D01*
X154247444Y-87499101D01*
X154229002Y-87487249D01*
X154226808Y-87485547D01*
X154083601Y-87400855D01*
X154083596Y-87400853D01*
X153923835Y-87354438D01*
X153923829Y-87354437D01*
X153886505Y-87351500D01*
X153886502Y-87351500D01*
X153453498Y-87351500D01*
X153453495Y-87351500D01*
X153416170Y-87354437D01*
X153416164Y-87354438D01*
X153256403Y-87400853D01*
X153256398Y-87400855D01*
X153113191Y-87485547D01*
X153110998Y-87487249D01*
X153108965Y-87488047D01*
X153106478Y-87489518D01*
X153106240Y-87489116D01*
X153045961Y-87512783D01*
X152977444Y-87499101D01*
X152959002Y-87487249D01*
X152956808Y-87485547D01*
X152813601Y-87400855D01*
X152813596Y-87400853D01*
X152653835Y-87354438D01*
X152653829Y-87354437D01*
X152616505Y-87351500D01*
X152616502Y-87351500D01*
X152183498Y-87351500D01*
X152183495Y-87351500D01*
X152146170Y-87354437D01*
X152146164Y-87354438D01*
X151986403Y-87400853D01*
X151986398Y-87400855D01*
X151843191Y-87485547D01*
X151840998Y-87487249D01*
X151838965Y-87488047D01*
X151836478Y-87489518D01*
X151836240Y-87489116D01*
X151775961Y-87512783D01*
X151707444Y-87499101D01*
X151689002Y-87487249D01*
X151686808Y-87485547D01*
X151543601Y-87400855D01*
X151543596Y-87400853D01*
X151383835Y-87354438D01*
X151383829Y-87354437D01*
X151346505Y-87351500D01*
X151346502Y-87351500D01*
X150913498Y-87351500D01*
X150913495Y-87351500D01*
X150876170Y-87354437D01*
X150876164Y-87354438D01*
X150716403Y-87400853D01*
X150716398Y-87400855D01*
X150573191Y-87485547D01*
X150570998Y-87487249D01*
X150568965Y-87488047D01*
X150566478Y-87489518D01*
X150566240Y-87489116D01*
X150505961Y-87512783D01*
X150437444Y-87499101D01*
X150419002Y-87487249D01*
X150416808Y-87485547D01*
X150273601Y-87400855D01*
X150273596Y-87400853D01*
X150113835Y-87354438D01*
X150113829Y-87354437D01*
X150076505Y-87351500D01*
X150076502Y-87351500D01*
X149643498Y-87351500D01*
X149643495Y-87351500D01*
X149606170Y-87354437D01*
X149606164Y-87354438D01*
X149446403Y-87400853D01*
X149446398Y-87400855D01*
X149303191Y-87485547D01*
X149300998Y-87487249D01*
X149298965Y-87488047D01*
X149296478Y-87489518D01*
X149296240Y-87489116D01*
X149235961Y-87512783D01*
X149167444Y-87499101D01*
X149149002Y-87487249D01*
X149146808Y-87485547D01*
X149003601Y-87400855D01*
X149003596Y-87400853D01*
X148843835Y-87354438D01*
X148843829Y-87354437D01*
X148806505Y-87351500D01*
X148806502Y-87351500D01*
X148373498Y-87351500D01*
X148373495Y-87351500D01*
X148336170Y-87354437D01*
X148336164Y-87354438D01*
X148176403Y-87400853D01*
X148176398Y-87400855D01*
X148033191Y-87485547D01*
X148030998Y-87487249D01*
X148028965Y-87488047D01*
X148026478Y-87489518D01*
X148026240Y-87489116D01*
X147965961Y-87512783D01*
X147897444Y-87499101D01*
X147879002Y-87487249D01*
X147876808Y-87485547D01*
X147733601Y-87400855D01*
X147733596Y-87400853D01*
X147573835Y-87354438D01*
X147573829Y-87354437D01*
X147536505Y-87351500D01*
X147536502Y-87351500D01*
X147103498Y-87351500D01*
X147103495Y-87351500D01*
X147066170Y-87354437D01*
X147066164Y-87354438D01*
X146906403Y-87400853D01*
X146906398Y-87400855D01*
X146763191Y-87485547D01*
X146760998Y-87487249D01*
X146758965Y-87488047D01*
X146756478Y-87489518D01*
X146756240Y-87489116D01*
X146695961Y-87512783D01*
X146627444Y-87499101D01*
X146609002Y-87487249D01*
X146606808Y-87485547D01*
X146463601Y-87400855D01*
X146463596Y-87400853D01*
X146303835Y-87354438D01*
X146303829Y-87354437D01*
X146266505Y-87351500D01*
X146266502Y-87351500D01*
X145833498Y-87351500D01*
X145833495Y-87351500D01*
X145796170Y-87354437D01*
X145796164Y-87354438D01*
X145636403Y-87400853D01*
X145636398Y-87400855D01*
X145493196Y-87485544D01*
X145493187Y-87485551D01*
X145375551Y-87603187D01*
X145375544Y-87603196D01*
X145290855Y-87746398D01*
X145290853Y-87746403D01*
X145244438Y-87906164D01*
X145244437Y-87906170D01*
X145241500Y-87943495D01*
X145241500Y-88575500D01*
X145221815Y-88642539D01*
X145169011Y-88688294D01*
X145117500Y-88699500D01*
X144378226Y-88699500D01*
X144311187Y-88679815D01*
X144265432Y-88627011D01*
X144260525Y-88614517D01*
X144259115Y-88610262D01*
X144166030Y-88459348D01*
X144061818Y-88355136D01*
X144028334Y-88293813D01*
X144025500Y-88267455D01*
X144025500Y-88242755D01*
X144035129Y-88199320D01*
X144034030Y-88198956D01*
X144036300Y-88192102D01*
X144036302Y-88192101D01*
X144090236Y-88029336D01*
X144100500Y-87928872D01*
X144100500Y-87331128D01*
X144090236Y-87230664D01*
X144036302Y-87067899D01*
X144036298Y-87067893D01*
X144036297Y-87067890D01*
X143946287Y-86921963D01*
X143946284Y-86921959D01*
X143825040Y-86800715D01*
X143825036Y-86800712D01*
X143679109Y-86710702D01*
X143679103Y-86710699D01*
X143679101Y-86710698D01*
X143516336Y-86656764D01*
X143415879Y-86646500D01*
X143415872Y-86646500D01*
X142868128Y-86646500D01*
X142868120Y-86646500D01*
X142767663Y-86656764D01*
X142604901Y-86710697D01*
X142604890Y-86710702D01*
X142458963Y-86800712D01*
X142458959Y-86800715D01*
X142448671Y-86811004D01*
X142387348Y-86844489D01*
X142317656Y-86839505D01*
X142273309Y-86811004D01*
X142269732Y-86807427D01*
X142269728Y-86807424D01*
X142125492Y-86718457D01*
X142125481Y-86718452D01*
X141964606Y-86665144D01*
X141865322Y-86655000D01*
X141842000Y-86655000D01*
X141842000Y-88521000D01*
X141822315Y-88588039D01*
X141769511Y-88633794D01*
X141718000Y-88645000D01*
X141667000Y-88645000D01*
X141667000Y-90632999D01*
X141716972Y-90632999D01*
X141716986Y-90632998D01*
X141819697Y-90622505D01*
X141986119Y-90567358D01*
X141986124Y-90567356D01*
X142135345Y-90475315D01*
X142259316Y-90351344D01*
X142263798Y-90345677D01*
X142265991Y-90347411D01*
X142308357Y-90309265D01*
X142377314Y-90298008D01*
X142441410Y-90325818D01*
X142463334Y-90351106D01*
X142463489Y-90350985D01*
X142466183Y-90354392D01*
X142467545Y-90355963D01*
X142467969Y-90356651D01*
X142572181Y-90460863D01*
X142605666Y-90522186D01*
X142608500Y-90548544D01*
X142608500Y-90804248D01*
X142591888Y-90866247D01*
X142548472Y-90941446D01*
X142548470Y-90941450D01*
X142489459Y-91123068D01*
X142489458Y-91123072D01*
X142469496Y-91313000D01*
X142489458Y-91502928D01*
X142489459Y-91502931D01*
X142548470Y-91684549D01*
X142548473Y-91684556D01*
X142643960Y-91849944D01*
X142696469Y-91908261D01*
X142769165Y-91988999D01*
X142771747Y-91991866D01*
X142926248Y-92104118D01*
X143100712Y-92181794D01*
X143287513Y-92221500D01*
X143478487Y-92221500D01*
X143665288Y-92181794D01*
X143839752Y-92104118D01*
X143994253Y-91991866D01*
X144122040Y-91849944D01*
X144217527Y-91684556D01*
X144276542Y-91502928D01*
X144296504Y-91313000D01*
X144276542Y-91123072D01*
X144217527Y-90941444D01*
X144122040Y-90776056D01*
X144057350Y-90704210D01*
X144027120Y-90641218D01*
X144025500Y-90621238D01*
X144025500Y-90548543D01*
X144045185Y-90481504D01*
X144061810Y-90460871D01*
X144166030Y-90356652D01*
X144259115Y-90205738D01*
X144260520Y-90201495D01*
X144300291Y-90144052D01*
X144364807Y-90117228D01*
X144378226Y-90116500D01*
X145323878Y-90116500D01*
X145390917Y-90136185D01*
X145411554Y-90152814D01*
X145493193Y-90234453D01*
X145636399Y-90319145D01*
X145643173Y-90321113D01*
X145796164Y-90365561D01*
X145796167Y-90365561D01*
X145796169Y-90365562D01*
X145805501Y-90366296D01*
X145833495Y-90368500D01*
X145833498Y-90368500D01*
X146266505Y-90368500D01*
X146288899Y-90366737D01*
X146303831Y-90365562D01*
X146303833Y-90365561D01*
X146303835Y-90365561D01*
X146372276Y-90345677D01*
X146463601Y-90319145D01*
X146524379Y-90283200D01*
X146592102Y-90266017D01*
X146658365Y-90288176D01*
X146702128Y-90342642D01*
X146711500Y-90389932D01*
X146711500Y-91882388D01*
X146691815Y-91949427D01*
X146639011Y-91995182D01*
X146626504Y-92000094D01*
X146491901Y-92044697D01*
X146491890Y-92044702D01*
X146345963Y-92134712D01*
X146345961Y-92134714D01*
X146335665Y-92145009D01*
X146274339Y-92178490D01*
X146204648Y-92173501D01*
X146160308Y-92145003D01*
X146156732Y-92141427D01*
X146156728Y-92141424D01*
X146012492Y-92052457D01*
X146012481Y-92052452D01*
X145851606Y-91999144D01*
X145752322Y-91989000D01*
X145729000Y-91989000D01*
X145729000Y-93090000D01*
X145709315Y-93157039D01*
X145656511Y-93202794D01*
X145605000Y-93214000D01*
X144529001Y-93214000D01*
X144529001Y-93262322D01*
X144539144Y-93361607D01*
X144592452Y-93522481D01*
X144592457Y-93522492D01*
X144681424Y-93666728D01*
X144681427Y-93666732D01*
X144760180Y-93745485D01*
X144793665Y-93806808D01*
X144788681Y-93876500D01*
X144760181Y-93920847D01*
X144654185Y-94026843D01*
X144565173Y-94174086D01*
X144513986Y-94338354D01*
X144507500Y-94409737D01*
X144507500Y-95074272D01*
X144513985Y-95145645D01*
X144513988Y-95145655D01*
X144565171Y-95309909D01*
X144565172Y-95309911D01*
X144565173Y-95309913D01*
X144654184Y-95457155D01*
X144654186Y-95457158D01*
X144775841Y-95578813D01*
X144775843Y-95578814D01*
X144775845Y-95578816D01*
X144923087Y-95667827D01*
X145087351Y-95719013D01*
X145158735Y-95725500D01*
X145346166Y-95725499D01*
X145413206Y-95745183D01*
X145433848Y-95761818D01*
X147870967Y-98198937D01*
X147904452Y-98260260D01*
X147899468Y-98329952D01*
X147857596Y-98385885D01*
X147792132Y-98410302D01*
X147743023Y-98403899D01*
X147654637Y-98373556D01*
X147432569Y-98336500D01*
X147207431Y-98336500D01*
X146985359Y-98373556D01*
X146981120Y-98374630D01*
X146911299Y-98371999D01*
X146863008Y-98342103D01*
X143990017Y-95469112D01*
X143956532Y-95407789D01*
X143953698Y-95381431D01*
X143953698Y-93860407D01*
X143955894Y-93837176D01*
X143957473Y-93828896D01*
X143953819Y-93770820D01*
X143953698Y-93766948D01*
X143953698Y-93748946D01*
X143953697Y-93748939D01*
X143951438Y-93731058D01*
X143951077Y-93727243D01*
X143947423Y-93669152D01*
X143944819Y-93661141D01*
X143939726Y-93638353D01*
X143939680Y-93637985D01*
X143938672Y-93630005D01*
X143917251Y-93575904D01*
X143915946Y-93572277D01*
X143897962Y-93516927D01*
X143893448Y-93509814D01*
X143882850Y-93489015D01*
X143882731Y-93488715D01*
X143879750Y-93481185D01*
X143845569Y-93434139D01*
X143843380Y-93430919D01*
X143812201Y-93381789D01*
X143812198Y-93381784D01*
X143812195Y-93381781D01*
X143806050Y-93376010D01*
X143790619Y-93358507D01*
X143785670Y-93351695D01*
X143740852Y-93314618D01*
X143737929Y-93312041D01*
X143695522Y-93272218D01*
X143695517Y-93272214D01*
X143688131Y-93268154D01*
X143668831Y-93255037D01*
X143662341Y-93249668D01*
X143662342Y-93249668D01*
X143609706Y-93224900D01*
X143606235Y-93223131D01*
X143555261Y-93195108D01*
X143555258Y-93195107D01*
X143547090Y-93193009D01*
X143525142Y-93185107D01*
X143517518Y-93181519D01*
X143517510Y-93181517D01*
X143460389Y-93170621D01*
X143456589Y-93169771D01*
X143400232Y-93155302D01*
X143400228Y-93155302D01*
X143391803Y-93155302D01*
X143368572Y-93153106D01*
X143360294Y-93151527D01*
X143360290Y-93151527D01*
X143351240Y-93152096D01*
X143302217Y-93155180D01*
X143298345Y-93155302D01*
X136775965Y-93155302D01*
X136708926Y-93135617D01*
X136688288Y-93118987D01*
X136628818Y-93059516D01*
X136595334Y-92998193D01*
X136592500Y-92971836D01*
X136592500Y-92714000D01*
X144529000Y-92714000D01*
X145229000Y-92714000D01*
X145229000Y-91988999D01*
X145205693Y-91989000D01*
X145205674Y-91989001D01*
X145106392Y-91999144D01*
X144945518Y-92052452D01*
X144945507Y-92052457D01*
X144801271Y-92141424D01*
X144801267Y-92141427D01*
X144681427Y-92261267D01*
X144681424Y-92261271D01*
X144592457Y-92405507D01*
X144592452Y-92405518D01*
X144539144Y-92566393D01*
X144529000Y-92665677D01*
X144529000Y-92714000D01*
X136592500Y-92714000D01*
X136592500Y-89658000D01*
X140417001Y-89658000D01*
X140417001Y-89932986D01*
X140427494Y-90035697D01*
X140482641Y-90202119D01*
X140482643Y-90202124D01*
X140574684Y-90351345D01*
X140698654Y-90475315D01*
X140847875Y-90567356D01*
X140847880Y-90567358D01*
X141014302Y-90622505D01*
X141014309Y-90622506D01*
X141117019Y-90632999D01*
X141166999Y-90632998D01*
X141167000Y-90632998D01*
X141167000Y-89658000D01*
X140417001Y-89658000D01*
X136592500Y-89658000D01*
X136592500Y-89158000D01*
X140417000Y-89158000D01*
X141167000Y-89158000D01*
X141167000Y-88267000D01*
X141186685Y-88199961D01*
X141239489Y-88154206D01*
X141291000Y-88143000D01*
X141342000Y-88143000D01*
X141342000Y-87880000D01*
X140642001Y-87880000D01*
X140642001Y-87928322D01*
X140652144Y-88027607D01*
X140705454Y-88188486D01*
X140709451Y-88194966D01*
X140727891Y-88262359D01*
X140706968Y-88329022D01*
X140691594Y-88347744D01*
X140574682Y-88464657D01*
X140482643Y-88613875D01*
X140482641Y-88613880D01*
X140427494Y-88780302D01*
X140427493Y-88780309D01*
X140417000Y-88883013D01*
X140417000Y-89158000D01*
X136592500Y-89158000D01*
X136592500Y-87380000D01*
X140642000Y-87380000D01*
X141342000Y-87380000D01*
X141342000Y-86654999D01*
X141318693Y-86655000D01*
X141318674Y-86655001D01*
X141219392Y-86665144D01*
X141058518Y-86718452D01*
X141058507Y-86718457D01*
X140914271Y-86807424D01*
X140914267Y-86807427D01*
X140794427Y-86927267D01*
X140794424Y-86927271D01*
X140705457Y-87071507D01*
X140705452Y-87071518D01*
X140652144Y-87232393D01*
X140642000Y-87331677D01*
X140642000Y-87380000D01*
X136592500Y-87380000D01*
X136592500Y-85594000D01*
X140642001Y-85594000D01*
X140642001Y-85642322D01*
X140652144Y-85741607D01*
X140705452Y-85902481D01*
X140705457Y-85902492D01*
X140794424Y-86046728D01*
X140794427Y-86046732D01*
X140914267Y-86166572D01*
X140914271Y-86166575D01*
X141058507Y-86255542D01*
X141058518Y-86255547D01*
X141219393Y-86308855D01*
X141318683Y-86318999D01*
X141342000Y-86318998D01*
X141342000Y-85594000D01*
X140642001Y-85594000D01*
X136592500Y-85594000D01*
X136592500Y-83816000D01*
X140417001Y-83816000D01*
X140417001Y-84090986D01*
X140427494Y-84193697D01*
X140482641Y-84360119D01*
X140482643Y-84360124D01*
X140574684Y-84509345D01*
X140691594Y-84626255D01*
X140725079Y-84687578D01*
X140720095Y-84757270D01*
X140709453Y-84779031D01*
X140705455Y-84785511D01*
X140705452Y-84785518D01*
X140652144Y-84946393D01*
X140642002Y-85045660D01*
X140642000Y-85045690D01*
X140642000Y-85094000D01*
X141342000Y-85094000D01*
X141342000Y-84831000D01*
X141291000Y-84831000D01*
X141223961Y-84811315D01*
X141178206Y-84758511D01*
X141167000Y-84707000D01*
X141167000Y-84329000D01*
X141667000Y-84329000D01*
X141718000Y-84329000D01*
X141785039Y-84348685D01*
X141830794Y-84401489D01*
X141842000Y-84453000D01*
X141842000Y-86318999D01*
X141865308Y-86318999D01*
X141865322Y-86318998D01*
X141964607Y-86308855D01*
X142125481Y-86255547D01*
X142125492Y-86255542D01*
X142269728Y-86166575D01*
X142269732Y-86166572D01*
X142273309Y-86162996D01*
X142334632Y-86129511D01*
X142404324Y-86134495D01*
X142448671Y-86162996D01*
X142458959Y-86173284D01*
X142458963Y-86173287D01*
X142604890Y-86263297D01*
X142604893Y-86263298D01*
X142604899Y-86263302D01*
X142767664Y-86317236D01*
X142868128Y-86327500D01*
X142868133Y-86327500D01*
X143415867Y-86327500D01*
X143415872Y-86327500D01*
X143516336Y-86317236D01*
X143679101Y-86263302D01*
X143825040Y-86173285D01*
X143946285Y-86052040D01*
X144036302Y-85906101D01*
X144090236Y-85743336D01*
X144100500Y-85642872D01*
X144100500Y-85045128D01*
X144090236Y-84944664D01*
X144036302Y-84781899D01*
X144035307Y-84780287D01*
X144034964Y-84779031D01*
X144033248Y-84775351D01*
X144033877Y-84775057D01*
X144016870Y-84712895D01*
X144037795Y-84646232D01*
X144053158Y-84627523D01*
X144166030Y-84514652D01*
X144259115Y-84363738D01*
X144260313Y-84360124D01*
X144285373Y-84284497D01*
X144325145Y-84227052D01*
X144389660Y-84200228D01*
X144403079Y-84199500D01*
X145117500Y-84199500D01*
X145184539Y-84219185D01*
X145230294Y-84271989D01*
X145241500Y-84323500D01*
X145241500Y-84776505D01*
X145244437Y-84813829D01*
X145244438Y-84813835D01*
X145290853Y-84973596D01*
X145290855Y-84973601D01*
X145375544Y-85116803D01*
X145375551Y-85116812D01*
X145493187Y-85234448D01*
X145493191Y-85234451D01*
X145493193Y-85234453D01*
X145636399Y-85319145D01*
X145678530Y-85331385D01*
X145796164Y-85365561D01*
X145796167Y-85365561D01*
X145796169Y-85365562D01*
X145805501Y-85366296D01*
X145833495Y-85368500D01*
X145833498Y-85368500D01*
X146266505Y-85368500D01*
X146288899Y-85366737D01*
X146303831Y-85365562D01*
X146303833Y-85365561D01*
X146303835Y-85365561D01*
X146364280Y-85348000D01*
X146463601Y-85319145D01*
X146606807Y-85234453D01*
X146606814Y-85234445D01*
X146612968Y-85229673D01*
X146614453Y-85231588D01*
X146665226Y-85203853D01*
X146734919Y-85208824D01*
X146761708Y-85223747D01*
X146761729Y-85223712D01*
X146763092Y-85224518D01*
X146767603Y-85227031D01*
X146768443Y-85227683D01*
X146909801Y-85311281D01*
X147067514Y-85357100D01*
X147067511Y-85357100D01*
X147069998Y-85357295D01*
X147070000Y-85357295D01*
X147070000Y-82362703D01*
X147067503Y-82362900D01*
X146909806Y-82408716D01*
X146909803Y-82408717D01*
X146768439Y-82492319D01*
X146767602Y-82492969D01*
X146766826Y-82493273D01*
X146761729Y-82496288D01*
X146761242Y-82495465D01*
X146702564Y-82518500D01*
X146634047Y-82504816D01*
X146613472Y-82489685D01*
X146612973Y-82490330D01*
X146606803Y-82485544D01*
X146463601Y-82400855D01*
X146463596Y-82400853D01*
X146303835Y-82354438D01*
X146303829Y-82354437D01*
X146266505Y-82351500D01*
X146266502Y-82351500D01*
X145833498Y-82351500D01*
X145833495Y-82351500D01*
X145796170Y-82354437D01*
X145796164Y-82354438D01*
X145636403Y-82400853D01*
X145636398Y-82400855D01*
X145493196Y-82485544D01*
X145493187Y-82485551D01*
X145375551Y-82603187D01*
X145375544Y-82603196D01*
X145290855Y-82746398D01*
X145290853Y-82746403D01*
X145262762Y-82843095D01*
X145225156Y-82901981D01*
X145161684Y-82931187D01*
X145143686Y-82932500D01*
X144403079Y-82932500D01*
X144336040Y-82912815D01*
X144290285Y-82860011D01*
X144285373Y-82847503D01*
X144259117Y-82768266D01*
X144245632Y-82746403D01*
X144166030Y-82617348D01*
X144040652Y-82491970D01*
X143902316Y-82406643D01*
X143889740Y-82398886D01*
X143889735Y-82398884D01*
X143721427Y-82343113D01*
X143617546Y-82332500D01*
X143016462Y-82332500D01*
X143016446Y-82332501D01*
X142912572Y-82343113D01*
X142744264Y-82398884D01*
X142744259Y-82398886D01*
X142593346Y-82491971D01*
X142467970Y-82617347D01*
X142467968Y-82617350D01*
X142467541Y-82618043D01*
X142467123Y-82618418D01*
X142463489Y-82623015D01*
X142462703Y-82622393D01*
X142415591Y-82664764D01*
X142346627Y-82675983D01*
X142282547Y-82648136D01*
X142264739Y-82627578D01*
X142263798Y-82628323D01*
X142259316Y-82622655D01*
X142135345Y-82498684D01*
X141986124Y-82406643D01*
X141986119Y-82406641D01*
X141819697Y-82351494D01*
X141819690Y-82351493D01*
X141716986Y-82341000D01*
X141667000Y-82341000D01*
X141667000Y-84329000D01*
X141167000Y-84329000D01*
X141167000Y-83816000D01*
X140417001Y-83816000D01*
X136592500Y-83816000D01*
X136592500Y-83316000D01*
X140417000Y-83316000D01*
X141167000Y-83316000D01*
X141167000Y-82341000D01*
X141166999Y-82340999D01*
X141117029Y-82341000D01*
X141117011Y-82341001D01*
X141014302Y-82351494D01*
X140847880Y-82406641D01*
X140847875Y-82406643D01*
X140698654Y-82498684D01*
X140574684Y-82622654D01*
X140482643Y-82771875D01*
X140482641Y-82771880D01*
X140427494Y-82938302D01*
X140427493Y-82938309D01*
X140417000Y-83041013D01*
X140417000Y-83316000D01*
X136592500Y-83316000D01*
X136592500Y-83304162D01*
X136612185Y-83237123D01*
X136628819Y-83216481D01*
X138276481Y-81568819D01*
X138337804Y-81535334D01*
X138364162Y-81532500D01*
X147832500Y-81532500D01*
X147899539Y-81552185D01*
G37*
%TD.AperFunction*%
%TA.AperFunction,Conductor*%
G36*
X157660039Y-94384685D02*
G01*
X157705794Y-94437489D01*
X157717000Y-94489000D01*
X157717000Y-94741000D01*
X157697315Y-94808039D01*
X157644511Y-94853794D01*
X157593000Y-94865000D01*
X155830000Y-94865000D01*
X155762961Y-94845315D01*
X155717206Y-94792511D01*
X155706000Y-94741000D01*
X155706000Y-94489000D01*
X155725685Y-94421961D01*
X155778489Y-94376206D01*
X155830000Y-94365000D01*
X157593000Y-94365000D01*
X157660039Y-94384685D01*
G37*
%TD.AperFunction*%
%TA.AperFunction,Conductor*%
G36*
X165317525Y-73669496D02*
G01*
X165522732Y-73678456D01*
X165527654Y-73678870D01*
X165745755Y-73706056D01*
X165950849Y-73733058D01*
X165955420Y-73733837D01*
X166170399Y-73778913D01*
X166372714Y-73823766D01*
X166376969Y-73824869D01*
X166495715Y-73860222D01*
X166587449Y-73887533D01*
X166640220Y-73904171D01*
X166785378Y-73949939D01*
X166789180Y-73951277D01*
X166993265Y-74030912D01*
X166993908Y-74031163D01*
X167185763Y-74110632D01*
X167189234Y-74112196D01*
X167386710Y-74208737D01*
X167386733Y-74208748D01*
X167571061Y-74304704D01*
X167574169Y-74306437D01*
X167696039Y-74379054D01*
X167763108Y-74419019D01*
X167938522Y-74530771D01*
X167941212Y-74532586D01*
X168120304Y-74660456D01*
X168285405Y-74787142D01*
X168287733Y-74789019D01*
X168455753Y-74931323D01*
X168610324Y-75072962D01*
X168767037Y-75229675D01*
X168908676Y-75384246D01*
X169050979Y-75552265D01*
X169052856Y-75554593D01*
X169179543Y-75719695D01*
X169307412Y-75898786D01*
X169309244Y-75901501D01*
X169420986Y-76076901D01*
X169533561Y-76265829D01*
X169535294Y-76268937D01*
X169631251Y-76453266D01*
X169727786Y-76650731D01*
X169729366Y-76654235D01*
X169808836Y-76846091D01*
X169833037Y-76908111D01*
X169888708Y-77050785D01*
X169890072Y-77054657D01*
X169952466Y-77252549D01*
X170015124Y-77463014D01*
X170016232Y-77467286D01*
X170061099Y-77669663D01*
X170106157Y-77884559D01*
X170106946Y-77889191D01*
X170133952Y-78094318D01*
X170161126Y-78312322D01*
X170161543Y-78317288D01*
X170170512Y-78522701D01*
X170179500Y-78740000D01*
X170179500Y-96520000D01*
X170170512Y-96737298D01*
X170161543Y-96942710D01*
X170161126Y-96947677D01*
X170142509Y-97097035D01*
X170134905Y-97158046D01*
X170133964Y-97165592D01*
X170106946Y-97370807D01*
X170106157Y-97375439D01*
X170061099Y-97590336D01*
X170016232Y-97792712D01*
X170015124Y-97796984D01*
X169952466Y-98007450D01*
X169890072Y-98205341D01*
X169888700Y-98209236D01*
X169808836Y-98413908D01*
X169729366Y-98605763D01*
X169727786Y-98609267D01*
X169631251Y-98806733D01*
X169535294Y-98991061D01*
X169533561Y-98994169D01*
X169420986Y-99183098D01*
X169309244Y-99358497D01*
X169307412Y-99361212D01*
X169179543Y-99540304D01*
X169052856Y-99705405D01*
X169050979Y-99707733D01*
X168908676Y-99875753D01*
X168767037Y-100030324D01*
X168610324Y-100187037D01*
X168455753Y-100328676D01*
X168287733Y-100470979D01*
X168285405Y-100472856D01*
X168120304Y-100599543D01*
X167941212Y-100727412D01*
X167938497Y-100729244D01*
X167763098Y-100840986D01*
X167574169Y-100953561D01*
X167571061Y-100955294D01*
X167386733Y-101051251D01*
X167189267Y-101147786D01*
X167185763Y-101149366D01*
X166993908Y-101228836D01*
X166789236Y-101308700D01*
X166785341Y-101310072D01*
X166587450Y-101372466D01*
X166376984Y-101435124D01*
X166372712Y-101436232D01*
X166170336Y-101481099D01*
X165955439Y-101526157D01*
X165950807Y-101526946D01*
X165745681Y-101553952D01*
X165527676Y-101581126D01*
X165522710Y-101581543D01*
X165317298Y-101590512D01*
X165100000Y-101599500D01*
X137160000Y-101599500D01*
X136942701Y-101590512D01*
X136737288Y-101581543D01*
X136732322Y-101581126D01*
X136514318Y-101553952D01*
X136309191Y-101526946D01*
X136304559Y-101526157D01*
X136089663Y-101481099D01*
X135887286Y-101436232D01*
X135883014Y-101435124D01*
X135672549Y-101372466D01*
X135474657Y-101310072D01*
X135470785Y-101308708D01*
X135338255Y-101256995D01*
X135266091Y-101228836D01*
X135074235Y-101149366D01*
X135070731Y-101147786D01*
X134873266Y-101051251D01*
X134688937Y-100955294D01*
X134685829Y-100953561D01*
X134496901Y-100840986D01*
X134321501Y-100729244D01*
X134318786Y-100727412D01*
X134139695Y-100599543D01*
X133974593Y-100472856D01*
X133972265Y-100470979D01*
X133822094Y-100343792D01*
X133804243Y-100328673D01*
X133780919Y-100307301D01*
X133649675Y-100187037D01*
X133492962Y-100030324D01*
X133391281Y-99919359D01*
X133351319Y-99875748D01*
X133209019Y-99707733D01*
X133207142Y-99705405D01*
X133080456Y-99540304D01*
X132952586Y-99361212D01*
X132950771Y-99358522D01*
X132839013Y-99183098D01*
X132779188Y-99082698D01*
X132726437Y-98994169D01*
X132724704Y-98991061D01*
X132628748Y-98806733D01*
X132624066Y-98797155D01*
X132532196Y-98609234D01*
X132530632Y-98605763D01*
X132451163Y-98413908D01*
X132447257Y-98403899D01*
X132371277Y-98209180D01*
X132369939Y-98205378D01*
X132307533Y-98007449D01*
X132280222Y-97915715D01*
X132244869Y-97796969D01*
X132243766Y-97792712D01*
X132210563Y-97642942D01*
X132198913Y-97590398D01*
X132153837Y-97375420D01*
X132153058Y-97370849D01*
X132130691Y-97200952D01*
X132126036Y-97165592D01*
X132125192Y-97158818D01*
X132098870Y-96947654D01*
X132098456Y-96942732D01*
X132089487Y-96737298D01*
X132080605Y-96522561D01*
X132080817Y-96521710D01*
X132080500Y-96519500D01*
X132080499Y-82597547D01*
X134420780Y-82597547D01*
X134422753Y-82618418D01*
X134425225Y-82644570D01*
X134425500Y-82650408D01*
X134425500Y-93574762D01*
X134423761Y-93590509D01*
X134424032Y-93590535D01*
X134423298Y-93598301D01*
X134423298Y-93598304D01*
X134423298Y-93598305D01*
X134424557Y-93638353D01*
X134425500Y-93668353D01*
X134425500Y-93698255D01*
X134426384Y-93705252D01*
X134426842Y-93711075D01*
X134428326Y-93758285D01*
X134428327Y-93758287D01*
X134434022Y-93777891D01*
X134437967Y-93796938D01*
X134440526Y-93817193D01*
X134440527Y-93817196D01*
X134440528Y-93817199D01*
X134457914Y-93861112D01*
X134459806Y-93866640D01*
X134472981Y-93911988D01*
X134483372Y-93929558D01*
X134491932Y-93947031D01*
X134499447Y-93966013D01*
X134527209Y-94004223D01*
X134530416Y-94009106D01*
X134554458Y-94049758D01*
X134554462Y-94049762D01*
X134568889Y-94064189D01*
X134581526Y-94078984D01*
X134593528Y-94095503D01*
X134629931Y-94125618D01*
X134634231Y-94129531D01*
X135245700Y-94741000D01*
X135762514Y-95257814D01*
X135772420Y-95270178D01*
X135772630Y-95270005D01*
X135777605Y-95276019D01*
X135828699Y-95324000D01*
X135849828Y-95345129D01*
X135849832Y-95345132D01*
X135849835Y-95345135D01*
X135855409Y-95349458D01*
X135859849Y-95353251D01*
X135877342Y-95369677D01*
X135894283Y-95385586D01*
X135894287Y-95385589D01*
X135912167Y-95395418D01*
X135928431Y-95406101D01*
X135944564Y-95418614D01*
X135987905Y-95437369D01*
X135993154Y-95439941D01*
X136013231Y-95450978D01*
X136034544Y-95462695D01*
X136054322Y-95467773D01*
X136072723Y-95474073D01*
X136091459Y-95482181D01*
X136135966Y-95489229D01*
X136138107Y-95489569D01*
X136143816Y-95490751D01*
X136189574Y-95502500D01*
X136209988Y-95502500D01*
X136229387Y-95504027D01*
X136249547Y-95507220D01*
X136296569Y-95502775D01*
X136302408Y-95502500D01*
X137100234Y-95502500D01*
X137167273Y-95522185D01*
X137187915Y-95538819D01*
X139913681Y-98264585D01*
X139947166Y-98325908D01*
X139950000Y-98352266D01*
X139950000Y-99082698D01*
X139930315Y-99149737D01*
X139877511Y-99195492D01*
X139808355Y-99205436D01*
X139735766Y-99195000D01*
X139735763Y-99195000D01*
X139664237Y-99195000D01*
X139664233Y-99195000D01*
X139591645Y-99205436D01*
X139522487Y-99195492D01*
X139469684Y-99149736D01*
X139450000Y-99082698D01*
X139450000Y-98345000D01*
X138802155Y-98345000D01*
X138742627Y-98351401D01*
X138742620Y-98351403D01*
X138607913Y-98401645D01*
X138607906Y-98401649D01*
X138492812Y-98487809D01*
X138492809Y-98487812D01*
X138406649Y-98602906D01*
X138406645Y-98602913D01*
X138356403Y-98737620D01*
X138356401Y-98737627D01*
X138350000Y-98797155D01*
X138350000Y-99445000D01*
X139086653Y-99445000D01*
X139153692Y-99464685D01*
X139199447Y-99517489D01*
X139209391Y-99586647D01*
X139205631Y-99603933D01*
X139200000Y-99623111D01*
X139200000Y-99766888D01*
X139205631Y-99786067D01*
X139205630Y-99855936D01*
X139167855Y-99914714D01*
X139104299Y-99943738D01*
X139086653Y-99945000D01*
X138350000Y-99945000D01*
X138350000Y-100592844D01*
X138356401Y-100652372D01*
X138356403Y-100652379D01*
X138406645Y-100787086D01*
X138406649Y-100787093D01*
X138492809Y-100902187D01*
X138492812Y-100902190D01*
X138607906Y-100988350D01*
X138607913Y-100988354D01*
X138742620Y-101038596D01*
X138742627Y-101038598D01*
X138802155Y-101044999D01*
X138802172Y-101045000D01*
X139450000Y-101045000D01*
X139450000Y-100307301D01*
X139469685Y-100240262D01*
X139522489Y-100194507D01*
X139591647Y-100184563D01*
X139664237Y-100195000D01*
X139664238Y-100195000D01*
X139735762Y-100195000D01*
X139735763Y-100195000D01*
X139808353Y-100184563D01*
X139877512Y-100194507D01*
X139930315Y-100240262D01*
X139950000Y-100307301D01*
X139950000Y-101045000D01*
X140597828Y-101045000D01*
X140597844Y-101044999D01*
X140657372Y-101038598D01*
X140657379Y-101038596D01*
X140792086Y-100988354D01*
X140792093Y-100988350D01*
X140907187Y-100902190D01*
X140907190Y-100902187D01*
X140993350Y-100787093D01*
X140993354Y-100787086D01*
X141039681Y-100662877D01*
X141081552Y-100606943D01*
X141147016Y-100582526D01*
X141215289Y-100597377D01*
X141247089Y-100622223D01*
X141316760Y-100697906D01*
X141494424Y-100836189D01*
X141494425Y-100836189D01*
X141494427Y-100836191D01*
X141554314Y-100868600D01*
X141692426Y-100943342D01*
X141905365Y-101016444D01*
X142127431Y-101053500D01*
X142352569Y-101053500D01*
X142574635Y-101016444D01*
X142787574Y-100943342D01*
X142985576Y-100836189D01*
X143163240Y-100697906D01*
X143284594Y-100566082D01*
X143315715Y-100532276D01*
X143315715Y-100532275D01*
X143315722Y-100532268D01*
X143406193Y-100393790D01*
X143459338Y-100348437D01*
X143528569Y-100339013D01*
X143591905Y-100368515D01*
X143613804Y-100393787D01*
X143704278Y-100532268D01*
X143704283Y-100532273D01*
X143704284Y-100532276D01*
X143820294Y-100658294D01*
X143856760Y-100697906D01*
X144034424Y-100836189D01*
X144034425Y-100836189D01*
X144034427Y-100836191D01*
X144094314Y-100868600D01*
X144232426Y-100943342D01*
X144445365Y-101016444D01*
X144667431Y-101053500D01*
X144892569Y-101053500D01*
X145114635Y-101016444D01*
X145327574Y-100943342D01*
X145525576Y-100836189D01*
X145703240Y-100697906D01*
X145824594Y-100566082D01*
X145855715Y-100532276D01*
X145855715Y-100532275D01*
X145855722Y-100532268D01*
X145946193Y-100393790D01*
X145999338Y-100348437D01*
X146068569Y-100339013D01*
X146131905Y-100368515D01*
X146153804Y-100393787D01*
X146244278Y-100532268D01*
X146244283Y-100532273D01*
X146244284Y-100532276D01*
X146360294Y-100658294D01*
X146396760Y-100697906D01*
X146574424Y-100836189D01*
X146574425Y-100836189D01*
X146574427Y-100836191D01*
X146634314Y-100868600D01*
X146772426Y-100943342D01*
X146985365Y-101016444D01*
X147207431Y-101053500D01*
X147432569Y-101053500D01*
X147654635Y-101016444D01*
X147867574Y-100943342D01*
X148065576Y-100836189D01*
X148243240Y-100697906D01*
X148364594Y-100566082D01*
X148395715Y-100532276D01*
X148395715Y-100532275D01*
X148395722Y-100532268D01*
X148486193Y-100393790D01*
X148539338Y-100348437D01*
X148608569Y-100339013D01*
X148671905Y-100368515D01*
X148693804Y-100393787D01*
X148784278Y-100532268D01*
X148784283Y-100532273D01*
X148784284Y-100532276D01*
X148900294Y-100658294D01*
X148936760Y-100697906D01*
X149114424Y-100836189D01*
X149114425Y-100836189D01*
X149114427Y-100836191D01*
X149174314Y-100868600D01*
X149312426Y-100943342D01*
X149525365Y-101016444D01*
X149747431Y-101053500D01*
X149972569Y-101053500D01*
X150194635Y-101016444D01*
X150407574Y-100943342D01*
X150605576Y-100836189D01*
X150783240Y-100697906D01*
X150904594Y-100566082D01*
X150935715Y-100532276D01*
X150935715Y-100532275D01*
X150935722Y-100532268D01*
X151026193Y-100393790D01*
X151079338Y-100348437D01*
X151148569Y-100339013D01*
X151211905Y-100368515D01*
X151233804Y-100393787D01*
X151324278Y-100532268D01*
X151324283Y-100532273D01*
X151324284Y-100532276D01*
X151440294Y-100658294D01*
X151476760Y-100697906D01*
X151654424Y-100836189D01*
X151654425Y-100836189D01*
X151654427Y-100836191D01*
X151714314Y-100868600D01*
X151852426Y-100943342D01*
X152065365Y-101016444D01*
X152287431Y-101053500D01*
X152512569Y-101053500D01*
X152734635Y-101016444D01*
X152947574Y-100943342D01*
X153145576Y-100836189D01*
X153323240Y-100697906D01*
X153444594Y-100566082D01*
X153475715Y-100532276D01*
X153475715Y-100532275D01*
X153475722Y-100532268D01*
X153569749Y-100388347D01*
X153622894Y-100342994D01*
X153692125Y-100333570D01*
X153755461Y-100363072D01*
X153775130Y-100385048D01*
X153901890Y-100566078D01*
X154068917Y-100733105D01*
X154262421Y-100868600D01*
X154476507Y-100968429D01*
X154476516Y-100968433D01*
X154690000Y-101025634D01*
X154690000Y-100307301D01*
X154709685Y-100240262D01*
X154762489Y-100194507D01*
X154831647Y-100184563D01*
X154904237Y-100195000D01*
X154904238Y-100195000D01*
X154975762Y-100195000D01*
X154975763Y-100195000D01*
X155048353Y-100184563D01*
X155117512Y-100194507D01*
X155170315Y-100240262D01*
X155190000Y-100307301D01*
X155190000Y-101025633D01*
X155403483Y-100968433D01*
X155403492Y-100968429D01*
X155617578Y-100868600D01*
X155811082Y-100733105D01*
X155978105Y-100566082D01*
X156104868Y-100385048D01*
X156159445Y-100341423D01*
X156228944Y-100334231D01*
X156291298Y-100365753D01*
X156310251Y-100388350D01*
X156404276Y-100532265D01*
X156404284Y-100532276D01*
X156520294Y-100658294D01*
X156556760Y-100697906D01*
X156734424Y-100836189D01*
X156734425Y-100836189D01*
X156734427Y-100836191D01*
X156794314Y-100868600D01*
X156932426Y-100943342D01*
X157145365Y-101016444D01*
X157367431Y-101053500D01*
X157592569Y-101053500D01*
X157814635Y-101016444D01*
X158027574Y-100943342D01*
X158225576Y-100836189D01*
X158403240Y-100697906D01*
X158524594Y-100566082D01*
X158555715Y-100532276D01*
X158555715Y-100532275D01*
X158555722Y-100532268D01*
X158646193Y-100393790D01*
X158699338Y-100348437D01*
X158768569Y-100339013D01*
X158831905Y-100368515D01*
X158853804Y-100393787D01*
X158944278Y-100532268D01*
X158944283Y-100532273D01*
X158944284Y-100532276D01*
X159060294Y-100658294D01*
X159096760Y-100697906D01*
X159274424Y-100836189D01*
X159274425Y-100836189D01*
X159274427Y-100836191D01*
X159334314Y-100868600D01*
X159472426Y-100943342D01*
X159685365Y-101016444D01*
X159907431Y-101053500D01*
X160132569Y-101053500D01*
X160354635Y-101016444D01*
X160567574Y-100943342D01*
X160765576Y-100836189D01*
X160943240Y-100697906D01*
X161064594Y-100566082D01*
X161095715Y-100532276D01*
X161095715Y-100532275D01*
X161095722Y-100532268D01*
X161186193Y-100393790D01*
X161239338Y-100348437D01*
X161308569Y-100339013D01*
X161371905Y-100368515D01*
X161393804Y-100393787D01*
X161484278Y-100532268D01*
X161484283Y-100532273D01*
X161484284Y-100532276D01*
X161600294Y-100658294D01*
X161636760Y-100697906D01*
X161814424Y-100836189D01*
X161814425Y-100836189D01*
X161814427Y-100836191D01*
X161874314Y-100868600D01*
X162012426Y-100943342D01*
X162225365Y-101016444D01*
X162447431Y-101053500D01*
X162672569Y-101053500D01*
X162894635Y-101016444D01*
X163107574Y-100943342D01*
X163305576Y-100836189D01*
X163483240Y-100697906D01*
X163604594Y-100566082D01*
X163635715Y-100532276D01*
X163635717Y-100532273D01*
X163635722Y-100532268D01*
X163758860Y-100343791D01*
X163849296Y-100137616D01*
X163904564Y-99919368D01*
X163908179Y-99875748D01*
X163923156Y-99695005D01*
X163923156Y-99694994D01*
X163904565Y-99470640D01*
X163904563Y-99470628D01*
X163876174Y-99358522D01*
X163849296Y-99252384D01*
X163758860Y-99046209D01*
X163742706Y-99021484D01*
X163635723Y-98857734D01*
X163635715Y-98857723D01*
X163483243Y-98692097D01*
X163483238Y-98692092D01*
X163305577Y-98553812D01*
X163305572Y-98553808D01*
X163107580Y-98446661D01*
X163107577Y-98446659D01*
X163107574Y-98446658D01*
X163107571Y-98446657D01*
X163107569Y-98446656D01*
X162894637Y-98373556D01*
X162672569Y-98336500D01*
X162447431Y-98336500D01*
X162225362Y-98373556D01*
X162012430Y-98446656D01*
X162012419Y-98446661D01*
X161814427Y-98553808D01*
X161814422Y-98553812D01*
X161636761Y-98692092D01*
X161636756Y-98692097D01*
X161484284Y-98857723D01*
X161484276Y-98857734D01*
X161393808Y-98996206D01*
X161340662Y-99041562D01*
X161271431Y-99050986D01*
X161208095Y-99021484D01*
X161186192Y-98996206D01*
X161095723Y-98857734D01*
X161095715Y-98857723D01*
X160943243Y-98692097D01*
X160943238Y-98692092D01*
X160765577Y-98553812D01*
X160765577Y-98553811D01*
X160718480Y-98528323D01*
X160668891Y-98479102D01*
X160653500Y-98419269D01*
X160653500Y-98291594D01*
X160673185Y-98224555D01*
X160725989Y-98178800D01*
X160773605Y-98167655D01*
X160804889Y-98166673D01*
X160824481Y-98160980D01*
X160843538Y-98157032D01*
X160863797Y-98154474D01*
X160907721Y-98137082D01*
X160913221Y-98135199D01*
X160958593Y-98122018D01*
X160976165Y-98111625D01*
X160993632Y-98103068D01*
X161012617Y-98095552D01*
X161050826Y-98067790D01*
X161055704Y-98064585D01*
X161096362Y-98040542D01*
X161110802Y-98026100D01*
X161125592Y-98013470D01*
X161142107Y-98001472D01*
X161172222Y-97965067D01*
X161176126Y-97960776D01*
X161978084Y-97158818D01*
X162039408Y-97125333D01*
X162065766Y-97122499D01*
X162359271Y-97122499D01*
X162430644Y-97116014D01*
X162430647Y-97116013D01*
X162430649Y-97116013D01*
X162594913Y-97064827D01*
X162742155Y-96975816D01*
X162863816Y-96854155D01*
X162952827Y-96706913D01*
X163004013Y-96542649D01*
X163010500Y-96471265D01*
X163010499Y-95806736D01*
X163010499Y-95806735D01*
X163010499Y-95806727D01*
X163004014Y-95735354D01*
X163004011Y-95735344D01*
X162952828Y-95571090D01*
X162952827Y-95571089D01*
X162952827Y-95571087D01*
X162874275Y-95441146D01*
X162856440Y-95373596D01*
X162874274Y-95312854D01*
X162952827Y-95182913D01*
X163004013Y-95018649D01*
X163010500Y-94947265D01*
X163010499Y-94282736D01*
X163010499Y-94282735D01*
X163010499Y-94282727D01*
X163004014Y-94211354D01*
X163004011Y-94211344D01*
X162952828Y-94047090D01*
X162952827Y-94047089D01*
X162952827Y-94047087D01*
X162863816Y-93899845D01*
X162863814Y-93899843D01*
X162863813Y-93899841D01*
X162742158Y-93778186D01*
X162739984Y-93776872D01*
X162594913Y-93689173D01*
X162430649Y-93637987D01*
X162430647Y-93637986D01*
X162430645Y-93637986D01*
X162380667Y-93633444D01*
X162359265Y-93631500D01*
X162359262Y-93631500D01*
X161844727Y-93631500D01*
X161773354Y-93637985D01*
X161773344Y-93637988D01*
X161609090Y-93689171D01*
X161461841Y-93778186D01*
X161461840Y-93778187D01*
X161364681Y-93875347D01*
X161303358Y-93908832D01*
X161233666Y-93903848D01*
X161189319Y-93875347D01*
X161092158Y-93778186D01*
X161089984Y-93776872D01*
X160944913Y-93689173D01*
X160780649Y-93637987D01*
X160780647Y-93637986D01*
X160780645Y-93637986D01*
X160730667Y-93633444D01*
X160709265Y-93631500D01*
X160709262Y-93631500D01*
X160194727Y-93631500D01*
X160123354Y-93637985D01*
X160123344Y-93637988D01*
X159959089Y-93689171D01*
X159959085Y-93689173D01*
X159814013Y-93776872D01*
X159746459Y-93794708D01*
X159684666Y-93776231D01*
X159684302Y-93776006D01*
X159637627Y-93724013D01*
X159625500Y-93670530D01*
X159625500Y-93274945D01*
X159626031Y-93266843D01*
X159626602Y-93262510D01*
X159630750Y-93231000D01*
X159625500Y-93191120D01*
X159625500Y-93191115D01*
X159609838Y-93072150D01*
X159604454Y-93059150D01*
X159548524Y-92924124D01*
X159532443Y-92903167D01*
X159474235Y-92827308D01*
X159474215Y-92827284D01*
X159450985Y-92797011D01*
X159445243Y-92791269D01*
X159445890Y-92790621D01*
X159444384Y-92789114D01*
X159443737Y-92789762D01*
X159437988Y-92784014D01*
X159436713Y-92783036D01*
X159406074Y-92759525D01*
X159406072Y-92759523D01*
X159346746Y-92714000D01*
X159310877Y-92686476D01*
X159310873Y-92686474D01*
X159162850Y-92625161D01*
X159143457Y-92622608D01*
X159041704Y-92609212D01*
X159041678Y-92609210D01*
X159004001Y-92604250D01*
X159003999Y-92604250D01*
X158993527Y-92605628D01*
X158968151Y-92608969D01*
X158960054Y-92609500D01*
X155256411Y-92609500D01*
X155189372Y-92589815D01*
X155168730Y-92573181D01*
X154804819Y-92209269D01*
X154771334Y-92147946D01*
X154768500Y-92121588D01*
X154768500Y-91776133D01*
X154768499Y-91776120D01*
X154768441Y-91775549D01*
X154758236Y-91675664D01*
X154704302Y-91512899D01*
X154704298Y-91512893D01*
X154704297Y-91512890D01*
X154614287Y-91366963D01*
X154614286Y-91366962D01*
X154614285Y-91366960D01*
X154493040Y-91245715D01*
X154477399Y-91236067D01*
X154430677Y-91184118D01*
X154418500Y-91130531D01*
X154418500Y-90452949D01*
X154438185Y-90385910D01*
X154490989Y-90340155D01*
X154560147Y-90330211D01*
X154577089Y-90333871D01*
X154617724Y-90345677D01*
X154686164Y-90365561D01*
X154686167Y-90365561D01*
X154686169Y-90365562D01*
X154695501Y-90366296D01*
X154723495Y-90368500D01*
X154723498Y-90368500D01*
X155156505Y-90368500D01*
X155178899Y-90366737D01*
X155193831Y-90365562D01*
X155193833Y-90365561D01*
X155193835Y-90365561D01*
X155262276Y-90345677D01*
X155353601Y-90319145D01*
X155496807Y-90234453D01*
X155614453Y-90116807D01*
X155699145Y-89973601D01*
X155745562Y-89813831D01*
X155748500Y-89776502D01*
X155748500Y-89617499D01*
X155768185Y-89550461D01*
X155820989Y-89504706D01*
X155872500Y-89493500D01*
X156794501Y-89493500D01*
X156861540Y-89513185D01*
X156907295Y-89565989D01*
X156918501Y-89617500D01*
X156918501Y-89679553D01*
X156928406Y-89776502D01*
X156929113Y-89783426D01*
X156984885Y-89951738D01*
X157077970Y-90102652D01*
X157203348Y-90228030D01*
X157354262Y-90321115D01*
X157522574Y-90376887D01*
X157626455Y-90387500D01*
X158227544Y-90387499D01*
X158331426Y-90376887D01*
X158499738Y-90321115D01*
X158650652Y-90228030D01*
X158776030Y-90102652D01*
X158776449Y-90101971D01*
X158776859Y-90101602D01*
X158780511Y-90096985D01*
X158781299Y-90097608D01*
X158828389Y-90055244D01*
X158897350Y-90044014D01*
X158961436Y-90071850D01*
X158979261Y-90092420D01*
X158980202Y-90091677D01*
X158984683Y-90097344D01*
X159108654Y-90221315D01*
X159257875Y-90313356D01*
X159257880Y-90313358D01*
X159424302Y-90368505D01*
X159424309Y-90368506D01*
X159527019Y-90378999D01*
X159576999Y-90378998D01*
X159577000Y-90378998D01*
X159577000Y-89404000D01*
X160077000Y-89404000D01*
X160077000Y-90378999D01*
X160126972Y-90378999D01*
X160126986Y-90378998D01*
X160229697Y-90368505D01*
X160396119Y-90313358D01*
X160396124Y-90313356D01*
X160545345Y-90221315D01*
X160669315Y-90097345D01*
X160761356Y-89948124D01*
X160761358Y-89948119D01*
X160816505Y-89781697D01*
X160816506Y-89781690D01*
X160826999Y-89678986D01*
X160827000Y-89678973D01*
X160827000Y-89404000D01*
X160077000Y-89404000D01*
X159577000Y-89404000D01*
X159577000Y-88391000D01*
X159526000Y-88391000D01*
X159458961Y-88371315D01*
X159413206Y-88318511D01*
X159402000Y-88267000D01*
X159402000Y-87626000D01*
X159902000Y-87626000D01*
X159902000Y-87889000D01*
X159953000Y-87889000D01*
X160020039Y-87908685D01*
X160065794Y-87961489D01*
X160077000Y-88013000D01*
X160077000Y-88904000D01*
X160826999Y-88904000D01*
X160826999Y-88629028D01*
X160826998Y-88629013D01*
X160816505Y-88526302D01*
X160761358Y-88359880D01*
X160761356Y-88359875D01*
X160669315Y-88210654D01*
X160552405Y-88093744D01*
X160518920Y-88032421D01*
X160523904Y-87962729D01*
X160534551Y-87940960D01*
X160538547Y-87934481D01*
X160591855Y-87773606D01*
X160601999Y-87674322D01*
X160602000Y-87674309D01*
X160602000Y-87626000D01*
X159902000Y-87626000D01*
X159402000Y-87626000D01*
X159402000Y-85848000D01*
X159902000Y-85848000D01*
X159902000Y-87126000D01*
X160601999Y-87126000D01*
X160601999Y-87077692D01*
X160601998Y-87077677D01*
X160591855Y-86978392D01*
X160538547Y-86817518D01*
X160538542Y-86817507D01*
X160449575Y-86673271D01*
X160449572Y-86673267D01*
X160350986Y-86574681D01*
X160317501Y-86513358D01*
X160322485Y-86443666D01*
X160350986Y-86399319D01*
X160449572Y-86300732D01*
X160449575Y-86300728D01*
X160538542Y-86156492D01*
X160538547Y-86156481D01*
X160591855Y-85995606D01*
X160601999Y-85896322D01*
X160602000Y-85896309D01*
X160602000Y-85848000D01*
X159902000Y-85848000D01*
X159402000Y-85848000D01*
X159402000Y-85348000D01*
X159902000Y-85348000D01*
X160601999Y-85348000D01*
X160601999Y-85299692D01*
X160601998Y-85299677D01*
X160591855Y-85200392D01*
X160538545Y-85039512D01*
X160534547Y-85033030D01*
X160516108Y-84965638D01*
X160537032Y-84898974D01*
X160552406Y-84880253D01*
X160669317Y-84763342D01*
X160761356Y-84614124D01*
X160761358Y-84614119D01*
X160816505Y-84447697D01*
X160816506Y-84447690D01*
X160826999Y-84344986D01*
X160827000Y-84344973D01*
X160827000Y-84070000D01*
X160077000Y-84070000D01*
X160077000Y-84961000D01*
X160057315Y-85028039D01*
X160004511Y-85073794D01*
X159953000Y-85085000D01*
X159902000Y-85085000D01*
X159902000Y-85348000D01*
X159402000Y-85348000D01*
X159402000Y-84707000D01*
X159421685Y-84639961D01*
X159474489Y-84594206D01*
X159526000Y-84583000D01*
X159577000Y-84583000D01*
X159577000Y-82595000D01*
X160077000Y-82595000D01*
X160077000Y-83570000D01*
X160826999Y-83570000D01*
X160826999Y-83295028D01*
X160826998Y-83295013D01*
X160816505Y-83192302D01*
X160761358Y-83025880D01*
X160761356Y-83025875D01*
X160669315Y-82876654D01*
X160545345Y-82752684D01*
X160396124Y-82660643D01*
X160396119Y-82660641D01*
X160229697Y-82605494D01*
X160229690Y-82605493D01*
X160126986Y-82595000D01*
X160077000Y-82595000D01*
X159577000Y-82595000D01*
X159576999Y-82594999D01*
X159527029Y-82595000D01*
X159527011Y-82595001D01*
X159424302Y-82605494D01*
X159257880Y-82660641D01*
X159257875Y-82660643D01*
X159108654Y-82752684D01*
X158984683Y-82876655D01*
X158980202Y-82882323D01*
X158978021Y-82880598D01*
X158935556Y-82918775D01*
X158866591Y-82929980D01*
X158802516Y-82902121D01*
X158780663Y-82876894D01*
X158780511Y-82877015D01*
X158777816Y-82873606D01*
X158776451Y-82872031D01*
X158776029Y-82871347D01*
X158650653Y-82745971D01*
X158650652Y-82745970D01*
X158512316Y-82660643D01*
X158499740Y-82652886D01*
X158499735Y-82652884D01*
X158331427Y-82597113D01*
X158227546Y-82586500D01*
X157626462Y-82586500D01*
X157626446Y-82586501D01*
X157522572Y-82597113D01*
X157354264Y-82652884D01*
X157354259Y-82652886D01*
X157203346Y-82745971D01*
X157077971Y-82871346D01*
X156984886Y-83022259D01*
X156984884Y-83022264D01*
X156945373Y-83141504D01*
X156905601Y-83198949D01*
X156841085Y-83225772D01*
X156827667Y-83226500D01*
X155872500Y-83226500D01*
X155805461Y-83206815D01*
X155759706Y-83154011D01*
X155748500Y-83102500D01*
X155748500Y-82943495D01*
X155745562Y-82906170D01*
X155745561Y-82906164D01*
X155699146Y-82746403D01*
X155699145Y-82746399D01*
X155623235Y-82618043D01*
X155614455Y-82603196D01*
X155614448Y-82603187D01*
X155496812Y-82485551D01*
X155496803Y-82485544D01*
X155353601Y-82400855D01*
X155353596Y-82400853D01*
X155193835Y-82354438D01*
X155193829Y-82354437D01*
X155156505Y-82351500D01*
X155156502Y-82351500D01*
X154723498Y-82351500D01*
X154723495Y-82351500D01*
X154686170Y-82354437D01*
X154686164Y-82354438D01*
X154526403Y-82400853D01*
X154526397Y-82400855D01*
X154490621Y-82422014D01*
X154422897Y-82439197D01*
X154356634Y-82417037D01*
X154312871Y-82362571D01*
X154303500Y-82315282D01*
X154303500Y-79772563D01*
X154323185Y-79705524D01*
X154375989Y-79659769D01*
X154445147Y-79649825D01*
X154508703Y-79678850D01*
X154526767Y-79698253D01*
X154544737Y-79722259D01*
X154544738Y-79722259D01*
X154544739Y-79722261D01*
X154661796Y-79809889D01*
X154798799Y-79860989D01*
X154826050Y-79863918D01*
X154859345Y-79867499D01*
X154859362Y-79867500D01*
X159456638Y-79867500D01*
X159456654Y-79867499D01*
X159483692Y-79864591D01*
X159517201Y-79860989D01*
X159654204Y-79809889D01*
X159771261Y-79722261D01*
X159858889Y-79605204D01*
X159909989Y-79468201D01*
X159912973Y-79440444D01*
X159916499Y-79407654D01*
X159916500Y-79407637D01*
X159916500Y-77310362D01*
X159916499Y-77310345D01*
X159913157Y-77279270D01*
X159909989Y-77249799D01*
X159858889Y-77112796D01*
X159771261Y-76995739D01*
X159654204Y-76908111D01*
X159609988Y-76891619D01*
X159517203Y-76857011D01*
X159456654Y-76850500D01*
X159456638Y-76850500D01*
X154859362Y-76850500D01*
X154859345Y-76850500D01*
X154798797Y-76857011D01*
X154798795Y-76857011D01*
X154661795Y-76908111D01*
X154544739Y-76995739D01*
X154457111Y-77112795D01*
X154406011Y-77249795D01*
X154406011Y-77249797D01*
X154399500Y-77310345D01*
X154399500Y-77601500D01*
X154379815Y-77668539D01*
X154327011Y-77714294D01*
X154275500Y-77725500D01*
X154134629Y-77725500D01*
X154118886Y-77723761D01*
X154118861Y-77724033D01*
X154111093Y-77723298D01*
X154041060Y-77725500D01*
X154011142Y-77725500D01*
X154004136Y-77726384D01*
X153998318Y-77726842D01*
X153951111Y-77728326D01*
X153951108Y-77728327D01*
X153931505Y-77734022D01*
X153912459Y-77737966D01*
X153892203Y-77740526D01*
X153892201Y-77740526D01*
X153848292Y-77757910D01*
X153842768Y-77759801D01*
X153797404Y-77772982D01*
X153797403Y-77772983D01*
X153779824Y-77783378D01*
X153762364Y-77791932D01*
X153743384Y-77799447D01*
X153743381Y-77799449D01*
X153705182Y-77827201D01*
X153700300Y-77830409D01*
X153659638Y-77854456D01*
X153645196Y-77868898D01*
X153630408Y-77881527D01*
X153613897Y-77893523D01*
X153613892Y-77893528D01*
X153583790Y-77929914D01*
X153579858Y-77934236D01*
X153281179Y-78232914D01*
X153268820Y-78242818D01*
X153268993Y-78243027D01*
X153262983Y-78247999D01*
X153215016Y-78299078D01*
X153193872Y-78320222D01*
X153193857Y-78320239D01*
X153189531Y-78325814D01*
X153185747Y-78330244D01*
X153153419Y-78364671D01*
X153153412Y-78364681D01*
X153143579Y-78382567D01*
X153132903Y-78398820D01*
X153120386Y-78414957D01*
X153109328Y-78440510D01*
X153064636Y-78494217D01*
X152998002Y-78515235D01*
X152930583Y-78496892D01*
X152907849Y-78478944D01*
X152904542Y-78475637D01*
X152890102Y-78461197D01*
X152877469Y-78446406D01*
X152865472Y-78429893D01*
X152829084Y-78399790D01*
X152824762Y-78395857D01*
X152399088Y-77970183D01*
X152389187Y-77957823D01*
X152388977Y-77957998D01*
X152384002Y-77951986D01*
X152384000Y-77951982D01*
X152357658Y-77927245D01*
X152332922Y-77904016D01*
X152311768Y-77882863D01*
X152309792Y-77881331D01*
X152306183Y-77878531D01*
X152301750Y-77874744D01*
X152295524Y-77868898D01*
X152267321Y-77842414D01*
X152267319Y-77842412D01*
X152249431Y-77832578D01*
X152233170Y-77821897D01*
X152217039Y-77809384D01*
X152173693Y-77790627D01*
X152168445Y-77788056D01*
X152141024Y-77772982D01*
X152127060Y-77765305D01*
X152123660Y-77764432D01*
X152107287Y-77760228D01*
X152088881Y-77753926D01*
X152070144Y-77745818D01*
X152070146Y-77745818D01*
X152023496Y-77738430D01*
X152017781Y-77737246D01*
X151997612Y-77732068D01*
X151972032Y-77725500D01*
X151972030Y-77725500D01*
X151951616Y-77725500D01*
X151932217Y-77723973D01*
X151912058Y-77720780D01*
X151912057Y-77720780D01*
X151865034Y-77725225D01*
X151859196Y-77725500D01*
X151540500Y-77725500D01*
X151473461Y-77705815D01*
X151427706Y-77653011D01*
X151416500Y-77601500D01*
X151416500Y-77310362D01*
X151416499Y-77310345D01*
X151413157Y-77279270D01*
X151409989Y-77249799D01*
X151358889Y-77112796D01*
X151271261Y-76995739D01*
X151154204Y-76908111D01*
X151109988Y-76891619D01*
X151017203Y-76857011D01*
X150956654Y-76850500D01*
X150956638Y-76850500D01*
X146359362Y-76850500D01*
X146359345Y-76850500D01*
X146298797Y-76857011D01*
X146298795Y-76857011D01*
X146161795Y-76908111D01*
X146044739Y-76995739D01*
X145957111Y-77112795D01*
X145906011Y-77249795D01*
X145906011Y-77249797D01*
X145899500Y-77310345D01*
X145899500Y-79242498D01*
X145879815Y-79309537D01*
X145827011Y-79355292D01*
X145775500Y-79366498D01*
X137761652Y-79366498D01*
X137745904Y-79364759D01*
X137745879Y-79365030D01*
X137738112Y-79364296D01*
X137738109Y-79364296D01*
X137668060Y-79366498D01*
X137638155Y-79366498D01*
X137631161Y-79367382D01*
X137625338Y-79367840D01*
X137578129Y-79369324D01*
X137578126Y-79369325D01*
X137558523Y-79375020D01*
X137539477Y-79378964D01*
X137519221Y-79381524D01*
X137519219Y-79381524D01*
X137519217Y-79381525D01*
X137475300Y-79398912D01*
X137469774Y-79400804D01*
X137424424Y-79413980D01*
X137406851Y-79424372D01*
X137389388Y-79432927D01*
X137370403Y-79440444D01*
X137370401Y-79440445D01*
X137332197Y-79468202D01*
X137327314Y-79471410D01*
X137286655Y-79495456D01*
X137272214Y-79509896D01*
X137257426Y-79522525D01*
X137240915Y-79534521D01*
X137240910Y-79534526D01*
X137210808Y-79570912D01*
X137206876Y-79575234D01*
X137040297Y-79741812D01*
X137034461Y-79746959D01*
X137031246Y-79749453D01*
X137016807Y-79763892D01*
X137002021Y-79776521D01*
X136985499Y-79788526D01*
X136985497Y-79788527D01*
X136985497Y-79788528D01*
X136985494Y-79788530D01*
X136955386Y-79824923D01*
X136951455Y-79829244D01*
X134670179Y-82110518D01*
X134657820Y-82120422D01*
X134657993Y-82120631D01*
X134651983Y-82125603D01*
X134604016Y-82176682D01*
X134582872Y-82197826D01*
X134582857Y-82197843D01*
X134578531Y-82203418D01*
X134574747Y-82207848D01*
X134542419Y-82242275D01*
X134542412Y-82242285D01*
X134532579Y-82260171D01*
X134521903Y-82276424D01*
X134509386Y-82292561D01*
X134509385Y-82292563D01*
X134490625Y-82335914D01*
X134488055Y-82341160D01*
X134465303Y-82382545D01*
X134465303Y-82382546D01*
X134460225Y-82402324D01*
X134453925Y-82420726D01*
X134445818Y-82439461D01*
X134438431Y-82486099D01*
X134437246Y-82491820D01*
X134425500Y-82537569D01*
X134425500Y-82557988D01*
X134423973Y-82577387D01*
X134420849Y-82597113D01*
X134420780Y-82597547D01*
X132080499Y-82597547D01*
X132080499Y-78740000D01*
X132085735Y-78613406D01*
X132089487Y-78522701D01*
X132098457Y-78317263D01*
X132098869Y-78312349D01*
X132126056Y-78094247D01*
X132153059Y-77889141D01*
X132153835Y-77884588D01*
X132198904Y-77669646D01*
X132243768Y-77467278D01*
X132244865Y-77463044D01*
X132307533Y-77252549D01*
X132312784Y-77235892D01*
X132369945Y-77054602D01*
X132371270Y-77050838D01*
X132451169Y-76846075D01*
X132530640Y-76654216D01*
X132532185Y-76650789D01*
X132628759Y-76453243D01*
X132724712Y-76268921D01*
X132726428Y-76265842D01*
X132839020Y-76076889D01*
X132950794Y-75901441D01*
X132952555Y-75898831D01*
X133080462Y-75719686D01*
X133207169Y-75554559D01*
X133208999Y-75552289D01*
X133351331Y-75384237D01*
X133492951Y-75229686D01*
X133649686Y-75072951D01*
X133804247Y-74931323D01*
X133972289Y-74788999D01*
X133974559Y-74787169D01*
X134139670Y-74660473D01*
X134318831Y-74532555D01*
X134321441Y-74530794D01*
X134496889Y-74419020D01*
X134685842Y-74306428D01*
X134688921Y-74304712D01*
X134873243Y-74208759D01*
X135070789Y-74112185D01*
X135074216Y-74110640D01*
X135266059Y-74031175D01*
X135470838Y-73951270D01*
X135474602Y-73949945D01*
X135655892Y-73892784D01*
X135672550Y-73887533D01*
X135698593Y-73879779D01*
X135883044Y-73824865D01*
X135887278Y-73823768D01*
X136089646Y-73778904D01*
X136304588Y-73733835D01*
X136309141Y-73733059D01*
X136514278Y-73706052D01*
X136732349Y-73678869D01*
X136737263Y-73678457D01*
X136942364Y-73669501D01*
X137160000Y-73660500D01*
X137160500Y-73660500D01*
X165099500Y-73660500D01*
X165100000Y-73660500D01*
X165317525Y-73669496D01*
G37*
%TD.AperFunction*%
%TD*%
M02*
