%TF.GenerationSoftware,KiCad,Pcbnew,7.0.7*%
%TF.CreationDate,2025-01-01T11:59:36+10:30*%
%TF.ProjectId,V9261F_Breakout,56393236-3146-45f4-9272-65616b6f7574,rev?*%
%TF.SameCoordinates,Original*%
%TF.FileFunction,Legend,Bot*%
%TF.FilePolarity,Positive*%
%FSLAX46Y46*%
G04 Gerber Fmt 4.6, Leading zero omitted, Abs format (unit mm)*
G04 Created by KiCad (PCBNEW 7.0.7) date 2025-01-01 11:59:36*
%MOMM*%
%LPD*%
G01*
G04 APERTURE LIST*
%ADD10C,0.200000*%
%ADD11C,0.120000*%
%ADD12C,0.010000*%
G04 APERTURE END LIST*
D10*
X163114231Y-97135695D02*
X162847564Y-97935695D01*
X162847564Y-97935695D02*
X162580898Y-97135695D01*
X162314231Y-97935695D02*
X162314231Y-97135695D01*
X161933279Y-97935695D02*
X161933279Y-97135695D01*
X161933279Y-97135695D02*
X161476136Y-97935695D01*
X161476136Y-97935695D02*
X161476136Y-97135695D01*
X160713945Y-97935695D02*
X160713945Y-97135695D01*
X160371089Y-97707123D02*
X159990136Y-97707123D01*
X160447279Y-97935695D02*
X160180612Y-97135695D01*
X160180612Y-97135695D02*
X159913946Y-97935695D01*
X159647279Y-97935695D02*
X159647279Y-97135695D01*
X159647279Y-97135695D02*
X159342517Y-97135695D01*
X159342517Y-97135695D02*
X159266327Y-97173790D01*
X159266327Y-97173790D02*
X159228232Y-97211885D01*
X159228232Y-97211885D02*
X159190136Y-97288076D01*
X159190136Y-97288076D02*
X159190136Y-97402361D01*
X159190136Y-97402361D02*
X159228232Y-97478552D01*
X159228232Y-97478552D02*
X159266327Y-97516647D01*
X159266327Y-97516647D02*
X159342517Y-97554742D01*
X159342517Y-97554742D02*
X159647279Y-97554742D01*
X158173945Y-97935695D02*
X158173945Y-97135695D01*
X157831089Y-97707123D02*
X157450136Y-97707123D01*
X157907279Y-97935695D02*
X157640612Y-97135695D01*
X157640612Y-97135695D02*
X157373946Y-97935695D01*
X157107279Y-97935695D02*
X157107279Y-97135695D01*
X157107279Y-97135695D02*
X156650136Y-97935695D01*
X156650136Y-97935695D02*
X156650136Y-97135695D01*
X155379945Y-97135695D02*
X155379945Y-97783314D01*
X155379945Y-97783314D02*
X155341850Y-97859504D01*
X155341850Y-97859504D02*
X155303755Y-97897600D01*
X155303755Y-97897600D02*
X155227564Y-97935695D01*
X155227564Y-97935695D02*
X155075183Y-97935695D01*
X155075183Y-97935695D02*
X154998993Y-97897600D01*
X154998993Y-97897600D02*
X154960898Y-97859504D01*
X154960898Y-97859504D02*
X154922802Y-97783314D01*
X154922802Y-97783314D02*
X154922802Y-97135695D01*
X154541850Y-97935695D02*
X154541850Y-97135695D01*
X154541850Y-97135695D02*
X154084707Y-97935695D01*
X154084707Y-97935695D02*
X154084707Y-97135695D01*
X153093945Y-97135695D02*
X153093945Y-97783314D01*
X153093945Y-97783314D02*
X153055850Y-97859504D01*
X153055850Y-97859504D02*
X153017755Y-97897600D01*
X153017755Y-97897600D02*
X152941564Y-97935695D01*
X152941564Y-97935695D02*
X152789183Y-97935695D01*
X152789183Y-97935695D02*
X152712993Y-97897600D01*
X152712993Y-97897600D02*
X152674898Y-97859504D01*
X152674898Y-97859504D02*
X152636802Y-97783314D01*
X152636802Y-97783314D02*
X152636802Y-97135695D01*
X152255850Y-97935695D02*
X152255850Y-97135695D01*
X152255850Y-97135695D02*
X151951088Y-97135695D01*
X151951088Y-97135695D02*
X151874898Y-97173790D01*
X151874898Y-97173790D02*
X151836803Y-97211885D01*
X151836803Y-97211885D02*
X151798707Y-97288076D01*
X151798707Y-97288076D02*
X151798707Y-97402361D01*
X151798707Y-97402361D02*
X151836803Y-97478552D01*
X151836803Y-97478552D02*
X151874898Y-97516647D01*
X151874898Y-97516647D02*
X151951088Y-97554742D01*
X151951088Y-97554742D02*
X152255850Y-97554742D01*
X146996495Y-97518802D02*
X146958400Y-97556898D01*
X146958400Y-97556898D02*
X146920304Y-97671183D01*
X146920304Y-97671183D02*
X146920304Y-97747374D01*
X146920304Y-97747374D02*
X146958400Y-97861660D01*
X146958400Y-97861660D02*
X147034590Y-97937850D01*
X147034590Y-97937850D02*
X147110780Y-97975945D01*
X147110780Y-97975945D02*
X147263161Y-98014041D01*
X147263161Y-98014041D02*
X147377447Y-98014041D01*
X147377447Y-98014041D02*
X147529828Y-97975945D01*
X147529828Y-97975945D02*
X147606019Y-97937850D01*
X147606019Y-97937850D02*
X147682209Y-97861660D01*
X147682209Y-97861660D02*
X147720304Y-97747374D01*
X147720304Y-97747374D02*
X147720304Y-97671183D01*
X147720304Y-97671183D02*
X147682209Y-97556898D01*
X147682209Y-97556898D02*
X147644114Y-97518802D01*
X147339352Y-96909279D02*
X147339352Y-97175945D01*
X146920304Y-97175945D02*
X147720304Y-97175945D01*
X147720304Y-97175945D02*
X147720304Y-96794993D01*
X145180304Y-98090231D02*
X145180304Y-97633088D01*
X144380304Y-97861660D02*
X145180304Y-97861660D01*
X145180304Y-97442612D02*
X144380304Y-96909278D01*
X145180304Y-96909278D02*
X144380304Y-97442612D01*
X141840304Y-97518802D02*
X142221257Y-97785469D01*
X141840304Y-97975945D02*
X142640304Y-97975945D01*
X142640304Y-97975945D02*
X142640304Y-97671183D01*
X142640304Y-97671183D02*
X142602209Y-97594993D01*
X142602209Y-97594993D02*
X142564114Y-97556898D01*
X142564114Y-97556898D02*
X142487923Y-97518802D01*
X142487923Y-97518802D02*
X142373638Y-97518802D01*
X142373638Y-97518802D02*
X142297447Y-97556898D01*
X142297447Y-97556898D02*
X142259352Y-97594993D01*
X142259352Y-97594993D02*
X142221257Y-97671183D01*
X142221257Y-97671183D02*
X142221257Y-97975945D01*
X142640304Y-97252136D02*
X141840304Y-96718802D01*
X142640304Y-96718802D02*
X141840304Y-97252136D01*
X140062209Y-97556898D02*
X140100304Y-97633088D01*
X140100304Y-97633088D02*
X140100304Y-97747374D01*
X140100304Y-97747374D02*
X140062209Y-97861660D01*
X140062209Y-97861660D02*
X139986019Y-97937850D01*
X139986019Y-97937850D02*
X139909828Y-97975945D01*
X139909828Y-97975945D02*
X139757447Y-98014041D01*
X139757447Y-98014041D02*
X139643161Y-98014041D01*
X139643161Y-98014041D02*
X139490780Y-97975945D01*
X139490780Y-97975945D02*
X139414590Y-97937850D01*
X139414590Y-97937850D02*
X139338400Y-97861660D01*
X139338400Y-97861660D02*
X139300304Y-97747374D01*
X139300304Y-97747374D02*
X139300304Y-97671183D01*
X139300304Y-97671183D02*
X139338400Y-97556898D01*
X139338400Y-97556898D02*
X139376495Y-97518802D01*
X139376495Y-97518802D02*
X139643161Y-97518802D01*
X139643161Y-97518802D02*
X139643161Y-97671183D01*
X139300304Y-97175945D02*
X140100304Y-97175945D01*
X140100304Y-97175945D02*
X139300304Y-96718802D01*
X139300304Y-96718802D02*
X140100304Y-96718802D01*
X139300304Y-96337850D02*
X140100304Y-96337850D01*
X140100304Y-96337850D02*
X140100304Y-96147374D01*
X140100304Y-96147374D02*
X140062209Y-96033088D01*
X140062209Y-96033088D02*
X139986019Y-95956898D01*
X139986019Y-95956898D02*
X139909828Y-95918803D01*
X139909828Y-95918803D02*
X139757447Y-95880707D01*
X139757447Y-95880707D02*
X139643161Y-95880707D01*
X139643161Y-95880707D02*
X139490780Y-95918803D01*
X139490780Y-95918803D02*
X139414590Y-95956898D01*
X139414590Y-95956898D02*
X139338400Y-96033088D01*
X139338400Y-96033088D02*
X139300304Y-96147374D01*
X139300304Y-96147374D02*
X139300304Y-96337850D01*
X155028334Y-80500695D02*
X155028334Y-79700695D01*
X155028334Y-80005457D02*
X154952144Y-79967361D01*
X154952144Y-79967361D02*
X154799763Y-79967361D01*
X154799763Y-79967361D02*
X154723572Y-80005457D01*
X154723572Y-80005457D02*
X154685477Y-80043552D01*
X154685477Y-80043552D02*
X154647382Y-80119742D01*
X154647382Y-80119742D02*
X154647382Y-80348314D01*
X154647382Y-80348314D02*
X154685477Y-80424504D01*
X154685477Y-80424504D02*
X154723572Y-80462600D01*
X154723572Y-80462600D02*
X154799763Y-80500695D01*
X154799763Y-80500695D02*
X154952144Y-80500695D01*
X154952144Y-80500695D02*
X155028334Y-80462600D01*
X154380715Y-79967361D02*
X154190239Y-80500695D01*
X153999762Y-79967361D02*
X154190239Y-80500695D01*
X154190239Y-80500695D02*
X154266429Y-80691171D01*
X154266429Y-80691171D02*
X154304524Y-80729266D01*
X154304524Y-80729266D02*
X154380715Y-80767361D01*
X153199762Y-79700695D02*
X152742619Y-79700695D01*
X152971191Y-80500695D02*
X152971191Y-79700695D01*
X152475952Y-80500695D02*
X152475952Y-79967361D01*
X152475952Y-79700695D02*
X152514048Y-79738790D01*
X152514048Y-79738790D02*
X152475952Y-79776885D01*
X152475952Y-79776885D02*
X152437857Y-79738790D01*
X152437857Y-79738790D02*
X152475952Y-79700695D01*
X152475952Y-79700695D02*
X152475952Y-79776885D01*
X152133096Y-80462600D02*
X152056905Y-80500695D01*
X152056905Y-80500695D02*
X151904524Y-80500695D01*
X151904524Y-80500695D02*
X151828334Y-80462600D01*
X151828334Y-80462600D02*
X151790238Y-80386409D01*
X151790238Y-80386409D02*
X151790238Y-80348314D01*
X151790238Y-80348314D02*
X151828334Y-80272123D01*
X151828334Y-80272123D02*
X151904524Y-80234028D01*
X151904524Y-80234028D02*
X152018810Y-80234028D01*
X152018810Y-80234028D02*
X152095000Y-80195933D01*
X152095000Y-80195933D02*
X152133096Y-80119742D01*
X152133096Y-80119742D02*
X152133096Y-80081647D01*
X152133096Y-80081647D02*
X152095000Y-80005457D01*
X152095000Y-80005457D02*
X152018810Y-79967361D01*
X152018810Y-79967361D02*
X151904524Y-79967361D01*
X151904524Y-79967361D02*
X151828334Y-80005457D01*
X151447381Y-80500695D02*
X151447381Y-79700695D01*
X151104524Y-80500695D02*
X151104524Y-80081647D01*
X151104524Y-80081647D02*
X151142619Y-80005457D01*
X151142619Y-80005457D02*
X151218810Y-79967361D01*
X151218810Y-79967361D02*
X151333096Y-79967361D01*
X151333096Y-79967361D02*
X151409286Y-80005457D01*
X151409286Y-80005457D02*
X151447381Y-80043552D01*
X150380714Y-80500695D02*
X150380714Y-80081647D01*
X150380714Y-80081647D02*
X150418809Y-80005457D01*
X150418809Y-80005457D02*
X150495000Y-79967361D01*
X150495000Y-79967361D02*
X150647381Y-79967361D01*
X150647381Y-79967361D02*
X150723571Y-80005457D01*
X150380714Y-80462600D02*
X150456905Y-80500695D01*
X150456905Y-80500695D02*
X150647381Y-80500695D01*
X150647381Y-80500695D02*
X150723571Y-80462600D01*
X150723571Y-80462600D02*
X150761667Y-80386409D01*
X150761667Y-80386409D02*
X150761667Y-80310219D01*
X150761667Y-80310219D02*
X150723571Y-80234028D01*
X150723571Y-80234028D02*
X150647381Y-80195933D01*
X150647381Y-80195933D02*
X150456905Y-80195933D01*
X150456905Y-80195933D02*
X150380714Y-80157838D01*
X149999761Y-80500695D02*
X149999761Y-79967361D01*
X149999761Y-80043552D02*
X149961666Y-80005457D01*
X149961666Y-80005457D02*
X149885476Y-79967361D01*
X149885476Y-79967361D02*
X149771190Y-79967361D01*
X149771190Y-79967361D02*
X149694999Y-80005457D01*
X149694999Y-80005457D02*
X149656904Y-80081647D01*
X149656904Y-80081647D02*
X149656904Y-80500695D01*
X149656904Y-80081647D02*
X149618809Y-80005457D01*
X149618809Y-80005457D02*
X149542618Y-79967361D01*
X149542618Y-79967361D02*
X149428333Y-79967361D01*
X149428333Y-79967361D02*
X149352142Y-80005457D01*
X149352142Y-80005457D02*
X149314047Y-80081647D01*
X149314047Y-80081647D02*
X149314047Y-80500695D01*
X148323570Y-80500695D02*
X148323570Y-79700695D01*
X148323570Y-79700695D02*
X148133094Y-79700695D01*
X148133094Y-79700695D02*
X148018808Y-79738790D01*
X148018808Y-79738790D02*
X147942618Y-79814980D01*
X147942618Y-79814980D02*
X147904523Y-79891171D01*
X147904523Y-79891171D02*
X147866427Y-80043552D01*
X147866427Y-80043552D02*
X147866427Y-80157838D01*
X147866427Y-80157838D02*
X147904523Y-80310219D01*
X147904523Y-80310219D02*
X147942618Y-80386409D01*
X147942618Y-80386409D02*
X148018808Y-80462600D01*
X148018808Y-80462600D02*
X148133094Y-80500695D01*
X148133094Y-80500695D02*
X148323570Y-80500695D01*
X147523570Y-80500695D02*
X147523570Y-79700695D01*
X147180713Y-80500695D02*
X147180713Y-80081647D01*
X147180713Y-80081647D02*
X147218808Y-80005457D01*
X147218808Y-80005457D02*
X147294999Y-79967361D01*
X147294999Y-79967361D02*
X147409285Y-79967361D01*
X147409285Y-79967361D02*
X147485475Y-80005457D01*
X147485475Y-80005457D02*
X147523570Y-80043552D01*
X146456903Y-80500695D02*
X146456903Y-80081647D01*
X146456903Y-80081647D02*
X146494998Y-80005457D01*
X146494998Y-80005457D02*
X146571189Y-79967361D01*
X146571189Y-79967361D02*
X146723570Y-79967361D01*
X146723570Y-79967361D02*
X146799760Y-80005457D01*
X146456903Y-80462600D02*
X146533094Y-80500695D01*
X146533094Y-80500695D02*
X146723570Y-80500695D01*
X146723570Y-80500695D02*
X146799760Y-80462600D01*
X146799760Y-80462600D02*
X146837856Y-80386409D01*
X146837856Y-80386409D02*
X146837856Y-80310219D01*
X146837856Y-80310219D02*
X146799760Y-80234028D01*
X146799760Y-80234028D02*
X146723570Y-80195933D01*
X146723570Y-80195933D02*
X146533094Y-80195933D01*
X146533094Y-80195933D02*
X146456903Y-80157838D01*
X146075950Y-80500695D02*
X146075950Y-79967361D01*
X146075950Y-80119742D02*
X146037855Y-80043552D01*
X146037855Y-80043552D02*
X145999760Y-80005457D01*
X145999760Y-80005457D02*
X145923569Y-79967361D01*
X145923569Y-79967361D02*
X145847379Y-79967361D01*
X156856904Y-81788695D02*
X156856904Y-80988695D01*
X156514047Y-81788695D02*
X156514047Y-81369647D01*
X156514047Y-81369647D02*
X156552142Y-81293457D01*
X156552142Y-81293457D02*
X156628333Y-81255361D01*
X156628333Y-81255361D02*
X156742619Y-81255361D01*
X156742619Y-81255361D02*
X156818809Y-81293457D01*
X156818809Y-81293457D02*
X156856904Y-81331552D01*
X156247380Y-81255361D02*
X155942618Y-81255361D01*
X156133094Y-80988695D02*
X156133094Y-81674409D01*
X156133094Y-81674409D02*
X156094999Y-81750600D01*
X156094999Y-81750600D02*
X156018809Y-81788695D01*
X156018809Y-81788695D02*
X155942618Y-81788695D01*
X155790237Y-81255361D02*
X155485475Y-81255361D01*
X155675951Y-80988695D02*
X155675951Y-81674409D01*
X155675951Y-81674409D02*
X155637856Y-81750600D01*
X155637856Y-81750600D02*
X155561666Y-81788695D01*
X155561666Y-81788695D02*
X155485475Y-81788695D01*
X155218808Y-81255361D02*
X155218808Y-82055361D01*
X155218808Y-81293457D02*
X155142618Y-81255361D01*
X155142618Y-81255361D02*
X154990237Y-81255361D01*
X154990237Y-81255361D02*
X154914046Y-81293457D01*
X154914046Y-81293457D02*
X154875951Y-81331552D01*
X154875951Y-81331552D02*
X154837856Y-81407742D01*
X154837856Y-81407742D02*
X154837856Y-81636314D01*
X154837856Y-81636314D02*
X154875951Y-81712504D01*
X154875951Y-81712504D02*
X154914046Y-81750600D01*
X154914046Y-81750600D02*
X154990237Y-81788695D01*
X154990237Y-81788695D02*
X155142618Y-81788695D01*
X155142618Y-81788695D02*
X155218808Y-81750600D01*
X154533094Y-81750600D02*
X154456903Y-81788695D01*
X154456903Y-81788695D02*
X154304522Y-81788695D01*
X154304522Y-81788695D02*
X154228332Y-81750600D01*
X154228332Y-81750600D02*
X154190236Y-81674409D01*
X154190236Y-81674409D02*
X154190236Y-81636314D01*
X154190236Y-81636314D02*
X154228332Y-81560123D01*
X154228332Y-81560123D02*
X154304522Y-81522028D01*
X154304522Y-81522028D02*
X154418808Y-81522028D01*
X154418808Y-81522028D02*
X154494998Y-81483933D01*
X154494998Y-81483933D02*
X154533094Y-81407742D01*
X154533094Y-81407742D02*
X154533094Y-81369647D01*
X154533094Y-81369647D02*
X154494998Y-81293457D01*
X154494998Y-81293457D02*
X154418808Y-81255361D01*
X154418808Y-81255361D02*
X154304522Y-81255361D01*
X154304522Y-81255361D02*
X154228332Y-81293457D01*
X153847379Y-81712504D02*
X153809284Y-81750600D01*
X153809284Y-81750600D02*
X153847379Y-81788695D01*
X153847379Y-81788695D02*
X153885475Y-81750600D01*
X153885475Y-81750600D02*
X153847379Y-81712504D01*
X153847379Y-81712504D02*
X153847379Y-81788695D01*
X153847379Y-81293457D02*
X153809284Y-81331552D01*
X153809284Y-81331552D02*
X153847379Y-81369647D01*
X153847379Y-81369647D02*
X153885475Y-81331552D01*
X153885475Y-81331552D02*
X153847379Y-81293457D01*
X153847379Y-81293457D02*
X153847379Y-81369647D01*
X152894999Y-80950600D02*
X153580713Y-81979171D01*
X152056904Y-80950600D02*
X152742618Y-81979171D01*
X151866428Y-81255361D02*
X151714047Y-81788695D01*
X151714047Y-81788695D02*
X151561666Y-81407742D01*
X151561666Y-81407742D02*
X151409285Y-81788695D01*
X151409285Y-81788695D02*
X151256904Y-81255361D01*
X150952142Y-81788695D02*
X150952142Y-80988695D01*
X150609285Y-81788695D02*
X150609285Y-81369647D01*
X150609285Y-81369647D02*
X150647380Y-81293457D01*
X150647380Y-81293457D02*
X150723571Y-81255361D01*
X150723571Y-81255361D02*
X150837857Y-81255361D01*
X150837857Y-81255361D02*
X150914047Y-81293457D01*
X150914047Y-81293457D02*
X150952142Y-81331552D01*
X149885475Y-81788695D02*
X149885475Y-81369647D01*
X149885475Y-81369647D02*
X149923570Y-81293457D01*
X149923570Y-81293457D02*
X149999761Y-81255361D01*
X149999761Y-81255361D02*
X150152142Y-81255361D01*
X150152142Y-81255361D02*
X150228332Y-81293457D01*
X149885475Y-81750600D02*
X149961666Y-81788695D01*
X149961666Y-81788695D02*
X150152142Y-81788695D01*
X150152142Y-81788695D02*
X150228332Y-81750600D01*
X150228332Y-81750600D02*
X150266428Y-81674409D01*
X150266428Y-81674409D02*
X150266428Y-81598219D01*
X150266428Y-81598219D02*
X150228332Y-81522028D01*
X150228332Y-81522028D02*
X150152142Y-81483933D01*
X150152142Y-81483933D02*
X149961666Y-81483933D01*
X149961666Y-81483933D02*
X149885475Y-81445838D01*
X149618808Y-81255361D02*
X149314046Y-81255361D01*
X149504522Y-80988695D02*
X149504522Y-81674409D01*
X149504522Y-81674409D02*
X149466427Y-81750600D01*
X149466427Y-81750600D02*
X149390237Y-81788695D01*
X149390237Y-81788695D02*
X149314046Y-81788695D01*
X149047379Y-81255361D02*
X149047379Y-81788695D01*
X149047379Y-81331552D02*
X149009284Y-81293457D01*
X149009284Y-81293457D02*
X148933094Y-81255361D01*
X148933094Y-81255361D02*
X148818808Y-81255361D01*
X148818808Y-81255361D02*
X148742617Y-81293457D01*
X148742617Y-81293457D02*
X148704522Y-81369647D01*
X148704522Y-81369647D02*
X148704522Y-81788695D01*
X148323569Y-81788695D02*
X148323569Y-81255361D01*
X148323569Y-80988695D02*
X148361665Y-81026790D01*
X148361665Y-81026790D02*
X148323569Y-81064885D01*
X148323569Y-81064885D02*
X148285474Y-81026790D01*
X148285474Y-81026790D02*
X148323569Y-80988695D01*
X148323569Y-80988695D02*
X148323569Y-81064885D01*
X147599760Y-81750600D02*
X147675951Y-81788695D01*
X147675951Y-81788695D02*
X147828332Y-81788695D01*
X147828332Y-81788695D02*
X147904522Y-81750600D01*
X147904522Y-81750600D02*
X147942617Y-81712504D01*
X147942617Y-81712504D02*
X147980713Y-81636314D01*
X147980713Y-81636314D02*
X147980713Y-81407742D01*
X147980713Y-81407742D02*
X147942617Y-81331552D01*
X147942617Y-81331552D02*
X147904522Y-81293457D01*
X147904522Y-81293457D02*
X147828332Y-81255361D01*
X147828332Y-81255361D02*
X147675951Y-81255361D01*
X147675951Y-81255361D02*
X147599760Y-81293457D01*
X147256903Y-81788695D02*
X147256903Y-80988695D01*
X147180713Y-81483933D02*
X146952141Y-81788695D01*
X146952141Y-81255361D02*
X147256903Y-81560123D01*
X146609284Y-81712504D02*
X146571189Y-81750600D01*
X146571189Y-81750600D02*
X146609284Y-81788695D01*
X146609284Y-81788695D02*
X146647380Y-81750600D01*
X146647380Y-81750600D02*
X146609284Y-81712504D01*
X146609284Y-81712504D02*
X146609284Y-81788695D01*
X145885475Y-81750600D02*
X145961666Y-81788695D01*
X145961666Y-81788695D02*
X146114047Y-81788695D01*
X146114047Y-81788695D02*
X146190237Y-81750600D01*
X146190237Y-81750600D02*
X146228332Y-81712504D01*
X146228332Y-81712504D02*
X146266428Y-81636314D01*
X146266428Y-81636314D02*
X146266428Y-81407742D01*
X146266428Y-81407742D02*
X146228332Y-81331552D01*
X146228332Y-81331552D02*
X146190237Y-81293457D01*
X146190237Y-81293457D02*
X146114047Y-81255361D01*
X146114047Y-81255361D02*
X145961666Y-81255361D01*
X145961666Y-81255361D02*
X145885475Y-81293457D01*
X145428333Y-81788695D02*
X145504523Y-81750600D01*
X145504523Y-81750600D02*
X145542618Y-81712504D01*
X145542618Y-81712504D02*
X145580714Y-81636314D01*
X145580714Y-81636314D02*
X145580714Y-81407742D01*
X145580714Y-81407742D02*
X145542618Y-81331552D01*
X145542618Y-81331552D02*
X145504523Y-81293457D01*
X145504523Y-81293457D02*
X145428333Y-81255361D01*
X145428333Y-81255361D02*
X145314047Y-81255361D01*
X145314047Y-81255361D02*
X145237856Y-81293457D01*
X145237856Y-81293457D02*
X145199761Y-81331552D01*
X145199761Y-81331552D02*
X145161666Y-81407742D01*
X145161666Y-81407742D02*
X145161666Y-81636314D01*
X145161666Y-81636314D02*
X145199761Y-81712504D01*
X145199761Y-81712504D02*
X145237856Y-81750600D01*
X145237856Y-81750600D02*
X145314047Y-81788695D01*
X145314047Y-81788695D02*
X145428333Y-81788695D01*
X144818808Y-81788695D02*
X144818808Y-81255361D01*
X144818808Y-81331552D02*
X144780713Y-81293457D01*
X144780713Y-81293457D02*
X144704523Y-81255361D01*
X144704523Y-81255361D02*
X144590237Y-81255361D01*
X144590237Y-81255361D02*
X144514046Y-81293457D01*
X144514046Y-81293457D02*
X144475951Y-81369647D01*
X144475951Y-81369647D02*
X144475951Y-81788695D01*
X144475951Y-81369647D02*
X144437856Y-81293457D01*
X144437856Y-81293457D02*
X144361665Y-81255361D01*
X144361665Y-81255361D02*
X144247380Y-81255361D01*
X144247380Y-81255361D02*
X144171189Y-81293457D01*
X144171189Y-81293457D02*
X144133094Y-81369647D01*
X144133094Y-81369647D02*
X144133094Y-81788695D01*
X155828334Y-82543361D02*
X155637858Y-83076695D01*
X155637858Y-83076695D02*
X155447381Y-82543361D01*
X154990238Y-82276695D02*
X154914048Y-82276695D01*
X154914048Y-82276695D02*
X154837857Y-82314790D01*
X154837857Y-82314790D02*
X154799762Y-82352885D01*
X154799762Y-82352885D02*
X154761667Y-82429076D01*
X154761667Y-82429076D02*
X154723572Y-82581457D01*
X154723572Y-82581457D02*
X154723572Y-82771933D01*
X154723572Y-82771933D02*
X154761667Y-82924314D01*
X154761667Y-82924314D02*
X154799762Y-83000504D01*
X154799762Y-83000504D02*
X154837857Y-83038600D01*
X154837857Y-83038600D02*
X154914048Y-83076695D01*
X154914048Y-83076695D02*
X154990238Y-83076695D01*
X154990238Y-83076695D02*
X155066429Y-83038600D01*
X155066429Y-83038600D02*
X155104524Y-83000504D01*
X155104524Y-83000504D02*
X155142619Y-82924314D01*
X155142619Y-82924314D02*
X155180715Y-82771933D01*
X155180715Y-82771933D02*
X155180715Y-82581457D01*
X155180715Y-82581457D02*
X155142619Y-82429076D01*
X155142619Y-82429076D02*
X155104524Y-82352885D01*
X155104524Y-82352885D02*
X155066429Y-82314790D01*
X155066429Y-82314790D02*
X154990238Y-82276695D01*
X154380714Y-83000504D02*
X154342619Y-83038600D01*
X154342619Y-83038600D02*
X154380714Y-83076695D01*
X154380714Y-83076695D02*
X154418810Y-83038600D01*
X154418810Y-83038600D02*
X154380714Y-83000504D01*
X154380714Y-83000504D02*
X154380714Y-83076695D01*
X153580715Y-83076695D02*
X154037858Y-83076695D01*
X153809286Y-83076695D02*
X153809286Y-82276695D01*
X153809286Y-82276695D02*
X153885477Y-82390980D01*
X153885477Y-82390980D02*
X153961667Y-82467171D01*
X153961667Y-82467171D02*
X154037858Y-82505266D01*
X152666429Y-82352885D02*
X152628333Y-82314790D01*
X152628333Y-82314790D02*
X152552143Y-82276695D01*
X152552143Y-82276695D02*
X152361667Y-82276695D01*
X152361667Y-82276695D02*
X152285476Y-82314790D01*
X152285476Y-82314790D02*
X152247381Y-82352885D01*
X152247381Y-82352885D02*
X152209286Y-82429076D01*
X152209286Y-82429076D02*
X152209286Y-82505266D01*
X152209286Y-82505266D02*
X152247381Y-82619552D01*
X152247381Y-82619552D02*
X152704524Y-83076695D01*
X152704524Y-83076695D02*
X152209286Y-83076695D01*
X151942619Y-82276695D02*
X151447381Y-82276695D01*
X151447381Y-82276695D02*
X151714047Y-82581457D01*
X151714047Y-82581457D02*
X151599762Y-82581457D01*
X151599762Y-82581457D02*
X151523571Y-82619552D01*
X151523571Y-82619552D02*
X151485476Y-82657647D01*
X151485476Y-82657647D02*
X151447381Y-82733838D01*
X151447381Y-82733838D02*
X151447381Y-82924314D01*
X151447381Y-82924314D02*
X151485476Y-83000504D01*
X151485476Y-83000504D02*
X151523571Y-83038600D01*
X151523571Y-83038600D02*
X151599762Y-83076695D01*
X151599762Y-83076695D02*
X151828333Y-83076695D01*
X151828333Y-83076695D02*
X151904524Y-83038600D01*
X151904524Y-83038600D02*
X151942619Y-83000504D01*
X150533095Y-82238600D02*
X151218809Y-83267171D01*
X149847381Y-83076695D02*
X150304524Y-83076695D01*
X150075952Y-83076695D02*
X150075952Y-82276695D01*
X150075952Y-82276695D02*
X150152143Y-82390980D01*
X150152143Y-82390980D02*
X150228333Y-82467171D01*
X150228333Y-82467171D02*
X150304524Y-82505266D01*
X149542619Y-82352885D02*
X149504523Y-82314790D01*
X149504523Y-82314790D02*
X149428333Y-82276695D01*
X149428333Y-82276695D02*
X149237857Y-82276695D01*
X149237857Y-82276695D02*
X149161666Y-82314790D01*
X149161666Y-82314790D02*
X149123571Y-82352885D01*
X149123571Y-82352885D02*
X149085476Y-82429076D01*
X149085476Y-82429076D02*
X149085476Y-82505266D01*
X149085476Y-82505266D02*
X149123571Y-82619552D01*
X149123571Y-82619552D02*
X149580714Y-83076695D01*
X149580714Y-83076695D02*
X149085476Y-83076695D01*
X148171190Y-82238600D02*
X148856904Y-83267171D01*
X147942619Y-82352885D02*
X147904523Y-82314790D01*
X147904523Y-82314790D02*
X147828333Y-82276695D01*
X147828333Y-82276695D02*
X147637857Y-82276695D01*
X147637857Y-82276695D02*
X147561666Y-82314790D01*
X147561666Y-82314790D02*
X147523571Y-82352885D01*
X147523571Y-82352885D02*
X147485476Y-82429076D01*
X147485476Y-82429076D02*
X147485476Y-82505266D01*
X147485476Y-82505266D02*
X147523571Y-82619552D01*
X147523571Y-82619552D02*
X147980714Y-83076695D01*
X147980714Y-83076695D02*
X147485476Y-83076695D01*
X146990237Y-82276695D02*
X146914047Y-82276695D01*
X146914047Y-82276695D02*
X146837856Y-82314790D01*
X146837856Y-82314790D02*
X146799761Y-82352885D01*
X146799761Y-82352885D02*
X146761666Y-82429076D01*
X146761666Y-82429076D02*
X146723571Y-82581457D01*
X146723571Y-82581457D02*
X146723571Y-82771933D01*
X146723571Y-82771933D02*
X146761666Y-82924314D01*
X146761666Y-82924314D02*
X146799761Y-83000504D01*
X146799761Y-83000504D02*
X146837856Y-83038600D01*
X146837856Y-83038600D02*
X146914047Y-83076695D01*
X146914047Y-83076695D02*
X146990237Y-83076695D01*
X146990237Y-83076695D02*
X147066428Y-83038600D01*
X147066428Y-83038600D02*
X147104523Y-83000504D01*
X147104523Y-83000504D02*
X147142618Y-82924314D01*
X147142618Y-82924314D02*
X147180714Y-82771933D01*
X147180714Y-82771933D02*
X147180714Y-82581457D01*
X147180714Y-82581457D02*
X147142618Y-82429076D01*
X147142618Y-82429076D02*
X147104523Y-82352885D01*
X147104523Y-82352885D02*
X147066428Y-82314790D01*
X147066428Y-82314790D02*
X146990237Y-82276695D01*
X146418809Y-82352885D02*
X146380713Y-82314790D01*
X146380713Y-82314790D02*
X146304523Y-82276695D01*
X146304523Y-82276695D02*
X146114047Y-82276695D01*
X146114047Y-82276695D02*
X146037856Y-82314790D01*
X146037856Y-82314790D02*
X145999761Y-82352885D01*
X145999761Y-82352885D02*
X145961666Y-82429076D01*
X145961666Y-82429076D02*
X145961666Y-82505266D01*
X145961666Y-82505266D02*
X145999761Y-82619552D01*
X145999761Y-82619552D02*
X146456904Y-83076695D01*
X146456904Y-83076695D02*
X145961666Y-83076695D01*
X145275951Y-82543361D02*
X145275951Y-83076695D01*
X145466427Y-82238600D02*
X145656904Y-82810028D01*
X145656904Y-82810028D02*
X145161665Y-82810028D01*
X133798695Y-84080476D02*
X133798695Y-84537619D01*
X134598695Y-84309047D02*
X133798695Y-84309047D01*
X134598695Y-84804286D02*
X133798695Y-84804286D01*
X133798695Y-84804286D02*
X133798695Y-85109048D01*
X133798695Y-85109048D02*
X133836790Y-85185238D01*
X133836790Y-85185238D02*
X133874885Y-85223333D01*
X133874885Y-85223333D02*
X133951076Y-85261429D01*
X133951076Y-85261429D02*
X134065361Y-85261429D01*
X134065361Y-85261429D02*
X134141552Y-85223333D01*
X134141552Y-85223333D02*
X134179647Y-85185238D01*
X134179647Y-85185238D02*
X134217742Y-85109048D01*
X134217742Y-85109048D02*
X134217742Y-84804286D01*
X133874885Y-85566190D02*
X133836790Y-85604286D01*
X133836790Y-85604286D02*
X133798695Y-85680476D01*
X133798695Y-85680476D02*
X133798695Y-85870952D01*
X133798695Y-85870952D02*
X133836790Y-85947143D01*
X133836790Y-85947143D02*
X133874885Y-85985238D01*
X133874885Y-85985238D02*
X133951076Y-86023333D01*
X133951076Y-86023333D02*
X134027266Y-86023333D01*
X134027266Y-86023333D02*
X134141552Y-85985238D01*
X134141552Y-85985238D02*
X134598695Y-85528095D01*
X134598695Y-85528095D02*
X134598695Y-86023333D01*
X133798695Y-81540476D02*
X133798695Y-81997619D01*
X134598695Y-81769047D02*
X133798695Y-81769047D01*
X134598695Y-82264286D02*
X133798695Y-82264286D01*
X133798695Y-82264286D02*
X133798695Y-82569048D01*
X133798695Y-82569048D02*
X133836790Y-82645238D01*
X133836790Y-82645238D02*
X133874885Y-82683333D01*
X133874885Y-82683333D02*
X133951076Y-82721429D01*
X133951076Y-82721429D02*
X134065361Y-82721429D01*
X134065361Y-82721429D02*
X134141552Y-82683333D01*
X134141552Y-82683333D02*
X134179647Y-82645238D01*
X134179647Y-82645238D02*
X134217742Y-82569048D01*
X134217742Y-82569048D02*
X134217742Y-82264286D01*
X134598695Y-83483333D02*
X134598695Y-83026190D01*
X134598695Y-83254762D02*
X133798695Y-83254762D01*
X133798695Y-83254762D02*
X133912980Y-83178571D01*
X133912980Y-83178571D02*
X133989171Y-83102381D01*
X133989171Y-83102381D02*
X134027266Y-83026190D01*
D11*
%TO.C,TP2*%
X136840000Y-86040000D02*
X136840000Y-84140000D01*
X136840000Y-84140000D02*
X134940000Y-84140000D01*
X134940000Y-86040000D02*
X136840000Y-86040000D01*
X134940000Y-84140000D02*
X134940000Y-86040000D01*
%TO.C,LOGO1*%
D12*
X147977829Y-89327097D02*
X148037753Y-89349355D01*
X148062673Y-89366080D01*
X148087910Y-89390043D01*
X148105912Y-89420526D01*
X148117858Y-89462023D01*
X148124930Y-89519032D01*
X148128308Y-89596047D01*
X148129171Y-89697565D01*
X148129002Y-89750027D01*
X148128153Y-89821715D01*
X148126711Y-89878925D01*
X148124814Y-89916809D01*
X148122597Y-89930514D01*
X148108172Y-89925981D01*
X148079054Y-89913670D01*
X148078181Y-89913272D01*
X148063060Y-89905356D01*
X148052891Y-89894495D01*
X148046691Y-89875471D01*
X148043478Y-89843069D01*
X148042270Y-89792071D01*
X148042086Y-89717261D01*
X148041714Y-89669804D01*
X148037750Y-89580615D01*
X148028673Y-89515287D01*
X148013524Y-89470393D01*
X147991345Y-89442507D01*
X147961175Y-89428203D01*
X147956990Y-89427206D01*
X147900480Y-89426427D01*
X147856410Y-89451744D01*
X147825972Y-89502502D01*
X147820544Y-89517175D01*
X147808171Y-89549649D01*
X147801905Y-89564572D01*
X147789036Y-89562516D01*
X147760933Y-89551357D01*
X147734721Y-89532927D01*
X147722771Y-89498098D01*
X147726336Y-89473151D01*
X147748235Y-89422547D01*
X147783644Y-89375128D01*
X147825052Y-89342334D01*
X147842400Y-89334752D01*
X147908089Y-89322076D01*
X147977829Y-89327097D01*
G36*
X147977829Y-89327097D02*
G01*
X148037753Y-89349355D01*
X148062673Y-89366080D01*
X148087910Y-89390043D01*
X148105912Y-89420526D01*
X148117858Y-89462023D01*
X148124930Y-89519032D01*
X148128308Y-89596047D01*
X148129171Y-89697565D01*
X148129002Y-89750027D01*
X148128153Y-89821715D01*
X148126711Y-89878925D01*
X148124814Y-89916809D01*
X148122597Y-89930514D01*
X148108172Y-89925981D01*
X148079054Y-89913670D01*
X148078181Y-89913272D01*
X148063060Y-89905356D01*
X148052891Y-89894495D01*
X148046691Y-89875471D01*
X148043478Y-89843069D01*
X148042270Y-89792071D01*
X148042086Y-89717261D01*
X148041714Y-89669804D01*
X148037750Y-89580615D01*
X148028673Y-89515287D01*
X148013524Y-89470393D01*
X147991345Y-89442507D01*
X147961175Y-89428203D01*
X147956990Y-89427206D01*
X147900480Y-89426427D01*
X147856410Y-89451744D01*
X147825972Y-89502502D01*
X147820544Y-89517175D01*
X147808171Y-89549649D01*
X147801905Y-89564572D01*
X147789036Y-89562516D01*
X147760933Y-89551357D01*
X147734721Y-89532927D01*
X147722771Y-89498098D01*
X147726336Y-89473151D01*
X147748235Y-89422547D01*
X147783644Y-89375128D01*
X147825052Y-89342334D01*
X147842400Y-89334752D01*
X147908089Y-89322076D01*
X147977829Y-89327097D01*
G37*
X151926020Y-89293822D02*
X151993810Y-89325680D01*
X152049366Y-89380770D01*
X152060881Y-89398016D01*
X152070432Y-89417562D01*
X152077206Y-89442198D01*
X152081819Y-89476711D01*
X152084888Y-89525889D01*
X152087029Y-89594519D01*
X152088859Y-89687389D01*
X152093404Y-89945007D01*
X152055225Y-89930491D01*
X152020268Y-89917156D01*
X151994097Y-89904323D01*
X151977013Y-89887780D01*
X151967086Y-89862465D01*
X151962386Y-89823316D01*
X151960982Y-89765268D01*
X151960943Y-89683261D01*
X151960744Y-89617895D01*
X151959559Y-89555173D01*
X151956729Y-89512334D01*
X151951609Y-89484220D01*
X151943553Y-89465675D01*
X151931914Y-89451543D01*
X151903303Y-89431600D01*
X151855239Y-89424083D01*
X151807688Y-89443079D01*
X151804550Y-89445511D01*
X151794769Y-89456748D01*
X151787553Y-89474770D01*
X151782299Y-89504026D01*
X151778402Y-89548962D01*
X151775256Y-89614028D01*
X151772257Y-89703670D01*
X151765000Y-89943697D01*
X151703314Y-89916044D01*
X151641629Y-89888391D01*
X151641629Y-89669246D01*
X151641884Y-89609711D01*
X151644086Y-89526892D01*
X151649661Y-89465227D01*
X151659941Y-89419748D01*
X151676258Y-89385484D01*
X151699943Y-89357466D01*
X151732328Y-89330723D01*
X151778907Y-89303780D01*
X151852287Y-89286191D01*
X151926020Y-89293822D01*
G36*
X151926020Y-89293822D02*
G01*
X151993810Y-89325680D01*
X152049366Y-89380770D01*
X152060881Y-89398016D01*
X152070432Y-89417562D01*
X152077206Y-89442198D01*
X152081819Y-89476711D01*
X152084888Y-89525889D01*
X152087029Y-89594519D01*
X152088859Y-89687389D01*
X152093404Y-89945007D01*
X152055225Y-89930491D01*
X152020268Y-89917156D01*
X151994097Y-89904323D01*
X151977013Y-89887780D01*
X151967086Y-89862465D01*
X151962386Y-89823316D01*
X151960982Y-89765268D01*
X151960943Y-89683261D01*
X151960744Y-89617895D01*
X151959559Y-89555173D01*
X151956729Y-89512334D01*
X151951609Y-89484220D01*
X151943553Y-89465675D01*
X151931914Y-89451543D01*
X151903303Y-89431600D01*
X151855239Y-89424083D01*
X151807688Y-89443079D01*
X151804550Y-89445511D01*
X151794769Y-89456748D01*
X151787553Y-89474770D01*
X151782299Y-89504026D01*
X151778402Y-89548962D01*
X151775256Y-89614028D01*
X151772257Y-89703670D01*
X151765000Y-89943697D01*
X151703314Y-89916044D01*
X151641629Y-89888391D01*
X151641629Y-89669246D01*
X151641884Y-89609711D01*
X151644086Y-89526892D01*
X151649661Y-89465227D01*
X151659941Y-89419748D01*
X151676258Y-89385484D01*
X151699943Y-89357466D01*
X151732328Y-89330723D01*
X151778907Y-89303780D01*
X151852287Y-89286191D01*
X151926020Y-89293822D01*
G37*
X150102691Y-89342467D02*
X150107273Y-89345003D01*
X150144704Y-89374057D01*
X150178170Y-89411410D01*
X150184007Y-89419852D01*
X150195165Y-89439553D01*
X150203136Y-89462935D01*
X150208618Y-89495067D01*
X150212307Y-89541019D01*
X150214899Y-89605859D01*
X150217092Y-89694657D01*
X150217402Y-89709669D01*
X150218400Y-89806999D01*
X150216994Y-89875934D01*
X150213164Y-89916948D01*
X150206889Y-89930514D01*
X150187898Y-89926452D01*
X150155638Y-89914144D01*
X150148041Y-89910545D01*
X150136176Y-89902398D01*
X150127994Y-89889004D01*
X150122643Y-89865608D01*
X150119269Y-89827455D01*
X150117019Y-89769790D01*
X150115040Y-89687857D01*
X150114498Y-89663907D01*
X150112403Y-89588266D01*
X150109683Y-89535328D01*
X150105515Y-89500075D01*
X150099079Y-89477487D01*
X150089550Y-89462544D01*
X150076106Y-89450227D01*
X150036305Y-89428634D01*
X149987341Y-89424476D01*
X149943529Y-89440999D01*
X149912008Y-89475210D01*
X149899914Y-89524114D01*
X149899578Y-89537407D01*
X149892972Y-89561472D01*
X149873470Y-89565144D01*
X149835283Y-89550813D01*
X149826438Y-89546217D01*
X149802534Y-89519186D01*
X149802061Y-89478994D01*
X149824836Y-89423409D01*
X149845727Y-89393117D01*
X149899142Y-89350084D01*
X149965074Y-89325755D01*
X150035574Y-89322443D01*
X150102691Y-89342467D01*
G36*
X150102691Y-89342467D02*
G01*
X150107273Y-89345003D01*
X150144704Y-89374057D01*
X150178170Y-89411410D01*
X150184007Y-89419852D01*
X150195165Y-89439553D01*
X150203136Y-89462935D01*
X150208618Y-89495067D01*
X150212307Y-89541019D01*
X150214899Y-89605859D01*
X150217092Y-89694657D01*
X150217402Y-89709669D01*
X150218400Y-89806999D01*
X150216994Y-89875934D01*
X150213164Y-89916948D01*
X150206889Y-89930514D01*
X150187898Y-89926452D01*
X150155638Y-89914144D01*
X150148041Y-89910545D01*
X150136176Y-89902398D01*
X150127994Y-89889004D01*
X150122643Y-89865608D01*
X150119269Y-89827455D01*
X150117019Y-89769790D01*
X150115040Y-89687857D01*
X150114498Y-89663907D01*
X150112403Y-89588266D01*
X150109683Y-89535328D01*
X150105515Y-89500075D01*
X150099079Y-89477487D01*
X150089550Y-89462544D01*
X150076106Y-89450227D01*
X150036305Y-89428634D01*
X149987341Y-89424476D01*
X149943529Y-89440999D01*
X149912008Y-89475210D01*
X149899914Y-89524114D01*
X149899578Y-89537407D01*
X149892972Y-89561472D01*
X149873470Y-89565144D01*
X149835283Y-89550813D01*
X149826438Y-89546217D01*
X149802534Y-89519186D01*
X149802061Y-89478994D01*
X149824836Y-89423409D01*
X149845727Y-89393117D01*
X149899142Y-89350084D01*
X149965074Y-89325755D01*
X150035574Y-89322443D01*
X150102691Y-89342467D01*
G37*
X151173543Y-89125444D02*
X151220714Y-89145342D01*
X151220714Y-89542509D01*
X151220519Y-89645498D01*
X151219998Y-89738141D01*
X151219199Y-89816700D01*
X151218172Y-89877439D01*
X151216963Y-89916623D01*
X151215623Y-89930514D01*
X151215099Y-89930468D01*
X151197287Y-89925420D01*
X151164823Y-89914580D01*
X151119114Y-89898646D01*
X151119114Y-89694173D01*
X151118824Y-89613832D01*
X151117474Y-89555562D01*
X151114369Y-89515909D01*
X151108812Y-89489618D01*
X151100107Y-89471436D01*
X151087556Y-89456107D01*
X151078999Y-89447955D01*
X151032728Y-89425375D01*
X150981728Y-89427375D01*
X150934993Y-89454073D01*
X150928189Y-89460698D01*
X150917293Y-89474456D01*
X150909836Y-89492642D01*
X150905169Y-89520177D01*
X150902642Y-89561981D01*
X150901602Y-89622973D01*
X150901400Y-89708073D01*
X150901303Y-89751234D01*
X150900674Y-89822224D01*
X150899556Y-89879076D01*
X150898063Y-89916828D01*
X150896309Y-89930514D01*
X150895785Y-89930468D01*
X150877973Y-89925420D01*
X150845509Y-89914580D01*
X150799800Y-89898646D01*
X150799823Y-89693237D01*
X150799857Y-89674951D01*
X150801778Y-89579626D01*
X150807678Y-89507543D01*
X150819001Y-89453813D01*
X150837187Y-89413549D01*
X150863679Y-89381861D01*
X150899918Y-89353861D01*
X150935263Y-89336333D01*
X150991773Y-89322785D01*
X151047356Y-89322015D01*
X151090086Y-89335195D01*
X151093298Y-89337015D01*
X151103205Y-89336820D01*
X151109975Y-89321572D01*
X151114861Y-89286613D01*
X151119114Y-89227289D01*
X151126371Y-89105547D01*
X151173543Y-89125444D01*
G36*
X151173543Y-89125444D02*
G01*
X151220714Y-89145342D01*
X151220714Y-89542509D01*
X151220519Y-89645498D01*
X151219998Y-89738141D01*
X151219199Y-89816700D01*
X151218172Y-89877439D01*
X151216963Y-89916623D01*
X151215623Y-89930514D01*
X151215099Y-89930468D01*
X151197287Y-89925420D01*
X151164823Y-89914580D01*
X151119114Y-89898646D01*
X151119114Y-89694173D01*
X151118824Y-89613832D01*
X151117474Y-89555562D01*
X151114369Y-89515909D01*
X151108812Y-89489618D01*
X151100107Y-89471436D01*
X151087556Y-89456107D01*
X151078999Y-89447955D01*
X151032728Y-89425375D01*
X150981728Y-89427375D01*
X150934993Y-89454073D01*
X150928189Y-89460698D01*
X150917293Y-89474456D01*
X150909836Y-89492642D01*
X150905169Y-89520177D01*
X150902642Y-89561981D01*
X150901602Y-89622973D01*
X150901400Y-89708073D01*
X150901303Y-89751234D01*
X150900674Y-89822224D01*
X150899556Y-89879076D01*
X150898063Y-89916828D01*
X150896309Y-89930514D01*
X150895785Y-89930468D01*
X150877973Y-89925420D01*
X150845509Y-89914580D01*
X150799800Y-89898646D01*
X150799823Y-89693237D01*
X150799857Y-89674951D01*
X150801778Y-89579626D01*
X150807678Y-89507543D01*
X150819001Y-89453813D01*
X150837187Y-89413549D01*
X150863679Y-89381861D01*
X150899918Y-89353861D01*
X150935263Y-89336333D01*
X150991773Y-89322785D01*
X151047356Y-89322015D01*
X151090086Y-89335195D01*
X151093298Y-89337015D01*
X151103205Y-89336820D01*
X151109975Y-89321572D01*
X151114861Y-89286613D01*
X151119114Y-89227289D01*
X151126371Y-89105547D01*
X151173543Y-89125444D01*
G37*
X149148941Y-89325282D02*
X149180774Y-89337758D01*
X149217743Y-89354602D01*
X149217743Y-89841196D01*
X149171812Y-89887127D01*
X149161320Y-89897427D01*
X149132255Y-89920320D01*
X149102943Y-89927735D01*
X149059326Y-89924321D01*
X149041568Y-89922114D01*
X148995767Y-89917445D01*
X148963743Y-89915585D01*
X148954244Y-89915869D01*
X148915274Y-89918948D01*
X148868160Y-89924321D01*
X148853085Y-89926168D01*
X148815110Y-89926893D01*
X148787325Y-89915429D01*
X148755674Y-89887127D01*
X148709743Y-89841196D01*
X148709743Y-89581055D01*
X148710101Y-89504180D01*
X148711216Y-89430886D01*
X148712952Y-89372850D01*
X148715167Y-89334663D01*
X148717721Y-89320914D01*
X148718256Y-89320951D01*
X148736808Y-89327793D01*
X148768153Y-89342868D01*
X148810608Y-89364822D01*
X148814604Y-89593240D01*
X148818600Y-89821657D01*
X148905686Y-89821657D01*
X148909657Y-89571286D01*
X148910916Y-89503227D01*
X148912718Y-89430482D01*
X148914671Y-89372730D01*
X148916612Y-89334648D01*
X148918377Y-89320914D01*
X148918885Y-89320962D01*
X148936482Y-89326015D01*
X148968834Y-89336849D01*
X149014543Y-89352783D01*
X149014765Y-89572706D01*
X149014988Y-89610909D01*
X149016531Y-89685146D01*
X149019292Y-89747145D01*
X149022977Y-89791308D01*
X149027292Y-89812041D01*
X149042732Y-89823131D01*
X149074241Y-89826556D01*
X149108886Y-89821657D01*
X149112857Y-89571286D01*
X149114278Y-89507663D01*
X149117225Y-89432356D01*
X149121079Y-89373286D01*
X149125542Y-89334718D01*
X149130317Y-89320914D01*
X149148941Y-89325282D01*
G36*
X149148941Y-89325282D02*
G01*
X149180774Y-89337758D01*
X149217743Y-89354602D01*
X149217743Y-89841196D01*
X149171812Y-89887127D01*
X149161320Y-89897427D01*
X149132255Y-89920320D01*
X149102943Y-89927735D01*
X149059326Y-89924321D01*
X149041568Y-89922114D01*
X148995767Y-89917445D01*
X148963743Y-89915585D01*
X148954244Y-89915869D01*
X148915274Y-89918948D01*
X148868160Y-89924321D01*
X148853085Y-89926168D01*
X148815110Y-89926893D01*
X148787325Y-89915429D01*
X148755674Y-89887127D01*
X148709743Y-89841196D01*
X148709743Y-89581055D01*
X148710101Y-89504180D01*
X148711216Y-89430886D01*
X148712952Y-89372850D01*
X148715167Y-89334663D01*
X148717721Y-89320914D01*
X148718256Y-89320951D01*
X148736808Y-89327793D01*
X148768153Y-89342868D01*
X148810608Y-89364822D01*
X148814604Y-89593240D01*
X148818600Y-89821657D01*
X148905686Y-89821657D01*
X148909657Y-89571286D01*
X148910916Y-89503227D01*
X148912718Y-89430482D01*
X148914671Y-89372730D01*
X148916612Y-89334648D01*
X148918377Y-89320914D01*
X148918885Y-89320962D01*
X148936482Y-89326015D01*
X148968834Y-89336849D01*
X149014543Y-89352783D01*
X149014765Y-89572706D01*
X149014988Y-89610909D01*
X149016531Y-89685146D01*
X149019292Y-89747145D01*
X149022977Y-89791308D01*
X149027292Y-89812041D01*
X149042732Y-89823131D01*
X149074241Y-89826556D01*
X149108886Y-89821657D01*
X149112857Y-89571286D01*
X149114278Y-89507663D01*
X149117225Y-89432356D01*
X149121079Y-89373286D01*
X149125542Y-89334718D01*
X149130317Y-89320914D01*
X149148941Y-89325282D01*
G37*
X153760714Y-89611200D02*
X153760701Y-89626935D01*
X153759914Y-89697119D01*
X153757210Y-89746022D01*
X153751606Y-89780178D01*
X153742119Y-89806124D01*
X153727768Y-89830397D01*
X153724237Y-89835433D01*
X153686878Y-89875143D01*
X153644311Y-89905092D01*
X153622452Y-89914810D01*
X153543908Y-89931020D01*
X153466231Y-89920535D01*
X153394645Y-89884707D01*
X153334374Y-89824887D01*
X153329286Y-89816873D01*
X153312730Y-89770342D01*
X153301573Y-89705552D01*
X153296160Y-89630727D01*
X153296768Y-89561513D01*
X153443248Y-89561513D01*
X153444402Y-89657399D01*
X153444866Y-89663569D01*
X153451629Y-89716478D01*
X153463671Y-89750029D01*
X153484005Y-89773016D01*
X153518097Y-89794548D01*
X153551814Y-89795680D01*
X153586543Y-89770857D01*
X153592584Y-89764325D01*
X153604417Y-89744779D01*
X153611404Y-89716386D01*
X153614727Y-89672430D01*
X153615571Y-89606192D01*
X153614125Y-89544150D01*
X153606907Y-89485042D01*
X153592006Y-89447686D01*
X153567636Y-89428152D01*
X153532008Y-89422514D01*
X153518440Y-89423635D01*
X153480430Y-89444194D01*
X153455312Y-89490299D01*
X153443248Y-89561513D01*
X153296768Y-89561513D01*
X153296833Y-89554096D01*
X153303937Y-89483882D01*
X153317815Y-89428312D01*
X153335649Y-89391301D01*
X153385855Y-89333733D01*
X153453885Y-89297962D01*
X153537158Y-89285665D01*
X153559398Y-89286331D01*
X153624891Y-89299947D01*
X153678687Y-89334249D01*
X153728057Y-89393338D01*
X153730995Y-89397722D01*
X153744287Y-89421299D01*
X153752932Y-89447949D01*
X153757904Y-89484159D01*
X153760174Y-89536413D01*
X153760678Y-89606192D01*
X153760714Y-89611200D01*
G36*
X153760714Y-89611200D02*
G01*
X153760701Y-89626935D01*
X153759914Y-89697119D01*
X153757210Y-89746022D01*
X153751606Y-89780178D01*
X153742119Y-89806124D01*
X153727768Y-89830397D01*
X153724237Y-89835433D01*
X153686878Y-89875143D01*
X153644311Y-89905092D01*
X153622452Y-89914810D01*
X153543908Y-89931020D01*
X153466231Y-89920535D01*
X153394645Y-89884707D01*
X153334374Y-89824887D01*
X153329286Y-89816873D01*
X153312730Y-89770342D01*
X153301573Y-89705552D01*
X153296160Y-89630727D01*
X153296768Y-89561513D01*
X153443248Y-89561513D01*
X153444402Y-89657399D01*
X153444866Y-89663569D01*
X153451629Y-89716478D01*
X153463671Y-89750029D01*
X153484005Y-89773016D01*
X153518097Y-89794548D01*
X153551814Y-89795680D01*
X153586543Y-89770857D01*
X153592584Y-89764325D01*
X153604417Y-89744779D01*
X153611404Y-89716386D01*
X153614727Y-89672430D01*
X153615571Y-89606192D01*
X153614125Y-89544150D01*
X153606907Y-89485042D01*
X153592006Y-89447686D01*
X153567636Y-89428152D01*
X153532008Y-89422514D01*
X153518440Y-89423635D01*
X153480430Y-89444194D01*
X153455312Y-89490299D01*
X153443248Y-89561513D01*
X153296768Y-89561513D01*
X153296833Y-89554096D01*
X153303937Y-89483882D01*
X153317815Y-89428312D01*
X153335649Y-89391301D01*
X153385855Y-89333733D01*
X153453885Y-89297962D01*
X153537158Y-89285665D01*
X153559398Y-89286331D01*
X153624891Y-89299947D01*
X153678687Y-89334249D01*
X153728057Y-89393338D01*
X153730995Y-89397722D01*
X153744287Y-89421299D01*
X153752932Y-89447949D01*
X153757904Y-89484159D01*
X153760174Y-89536413D01*
X153760678Y-89606192D01*
X153760714Y-89611200D01*
G37*
X147635590Y-89628622D02*
X147635307Y-89667305D01*
X147631762Y-89743521D01*
X147622483Y-89799294D01*
X147605375Y-89840613D01*
X147578344Y-89873467D01*
X147539292Y-89903846D01*
X147514445Y-89917660D01*
X147474615Y-89926965D01*
X147418665Y-89926230D01*
X147387385Y-89923283D01*
X147349653Y-89914283D01*
X147319494Y-89894720D01*
X147284408Y-89858267D01*
X147279720Y-89852943D01*
X147248177Y-89811969D01*
X147233128Y-89776283D01*
X147229286Y-89733966D01*
X147229286Y-89671779D01*
X147272742Y-89688182D01*
X147304424Y-89707356D01*
X147331962Y-89752347D01*
X147337711Y-89766752D01*
X147369855Y-89807546D01*
X147413611Y-89828081D01*
X147461254Y-89826235D01*
X147505057Y-89799886D01*
X147520111Y-89783455D01*
X147533763Y-89758667D01*
X147529493Y-89736144D01*
X147504916Y-89712964D01*
X147457651Y-89686202D01*
X147385314Y-89652934D01*
X147236543Y-89587816D01*
X147232595Y-89523308D01*
X147234079Y-89482220D01*
X147331010Y-89482220D01*
X147338368Y-89507657D01*
X147371848Y-89534814D01*
X147432614Y-89565714D01*
X147442669Y-89570190D01*
X147490751Y-89591017D01*
X147526726Y-89605665D01*
X147543444Y-89611200D01*
X147545977Y-89607126D01*
X147546993Y-89582247D01*
X147543369Y-89542257D01*
X147534242Y-89503152D01*
X147505773Y-89453884D01*
X147464678Y-89426122D01*
X147415590Y-89422364D01*
X147363144Y-89445109D01*
X147348609Y-89456481D01*
X147331010Y-89482220D01*
X147234079Y-89482220D01*
X147234338Y-89475064D01*
X147256281Y-89414096D01*
X147283979Y-89380497D01*
X147341405Y-89342966D01*
X147409527Y-89324006D01*
X147479947Y-89325507D01*
X147544267Y-89349355D01*
X147558426Y-89358513D01*
X147590904Y-89386849D01*
X147613116Y-89422695D01*
X147626804Y-89471384D01*
X147633715Y-89538249D01*
X147634628Y-89582247D01*
X147635590Y-89628622D01*
G36*
X147635590Y-89628622D02*
G01*
X147635307Y-89667305D01*
X147631762Y-89743521D01*
X147622483Y-89799294D01*
X147605375Y-89840613D01*
X147578344Y-89873467D01*
X147539292Y-89903846D01*
X147514445Y-89917660D01*
X147474615Y-89926965D01*
X147418665Y-89926230D01*
X147387385Y-89923283D01*
X147349653Y-89914283D01*
X147319494Y-89894720D01*
X147284408Y-89858267D01*
X147279720Y-89852943D01*
X147248177Y-89811969D01*
X147233128Y-89776283D01*
X147229286Y-89733966D01*
X147229286Y-89671779D01*
X147272742Y-89688182D01*
X147304424Y-89707356D01*
X147331962Y-89752347D01*
X147337711Y-89766752D01*
X147369855Y-89807546D01*
X147413611Y-89828081D01*
X147461254Y-89826235D01*
X147505057Y-89799886D01*
X147520111Y-89783455D01*
X147533763Y-89758667D01*
X147529493Y-89736144D01*
X147504916Y-89712964D01*
X147457651Y-89686202D01*
X147385314Y-89652934D01*
X147236543Y-89587816D01*
X147232595Y-89523308D01*
X147234079Y-89482220D01*
X147331010Y-89482220D01*
X147338368Y-89507657D01*
X147371848Y-89534814D01*
X147432614Y-89565714D01*
X147442669Y-89570190D01*
X147490751Y-89591017D01*
X147526726Y-89605665D01*
X147543444Y-89611200D01*
X147545977Y-89607126D01*
X147546993Y-89582247D01*
X147543369Y-89542257D01*
X147534242Y-89503152D01*
X147505773Y-89453884D01*
X147464678Y-89426122D01*
X147415590Y-89422364D01*
X147363144Y-89445109D01*
X147348609Y-89456481D01*
X147331010Y-89482220D01*
X147234079Y-89482220D01*
X147234338Y-89475064D01*
X147256281Y-89414096D01*
X147283979Y-89380497D01*
X147341405Y-89342966D01*
X147409527Y-89324006D01*
X147479947Y-89325507D01*
X147544267Y-89349355D01*
X147558426Y-89358513D01*
X147590904Y-89386849D01*
X147613116Y-89422695D01*
X147626804Y-89471384D01*
X147633715Y-89538249D01*
X147634628Y-89582247D01*
X147635590Y-89628622D01*
G37*
X149725698Y-89625714D02*
X149724537Y-89682313D01*
X149716345Y-89759462D01*
X149698519Y-89817276D01*
X149668975Y-89861422D01*
X149625625Y-89897568D01*
X149584332Y-89918463D01*
X149514987Y-89930090D01*
X149445736Y-89917377D01*
X149383145Y-89881945D01*
X149333779Y-89825418D01*
X149327818Y-89814995D01*
X149319945Y-89796733D01*
X149314106Y-89773429D01*
X149309999Y-89741085D01*
X149307325Y-89695704D01*
X149305781Y-89633287D01*
X149305734Y-89627748D01*
X149406429Y-89627748D01*
X149406772Y-89680577D01*
X149408942Y-89728362D01*
X149414307Y-89759209D01*
X149424217Y-89779935D01*
X149440021Y-89797356D01*
X149443724Y-89800705D01*
X149491299Y-89825419D01*
X149541635Y-89822890D01*
X149588517Y-89793288D01*
X149602477Y-89777953D01*
X149614160Y-89757622D01*
X149620686Y-89729514D01*
X149623524Y-89686550D01*
X149624143Y-89621647D01*
X149623837Y-89572122D01*
X149621722Y-89523782D01*
X149616390Y-89492587D01*
X149606460Y-89471647D01*
X149590550Y-89454073D01*
X149581204Y-89446159D01*
X149532776Y-89424843D01*
X149482040Y-89428198D01*
X149437987Y-89456107D01*
X149428504Y-89467173D01*
X149416939Y-89488009D01*
X149410252Y-89517106D01*
X149407173Y-89561381D01*
X149406429Y-89627748D01*
X149305734Y-89627748D01*
X149305067Y-89549837D01*
X149304883Y-89441358D01*
X149304829Y-89104601D01*
X149352000Y-89124362D01*
X149364472Y-89129770D01*
X149384324Y-89141985D01*
X149395687Y-89160482D01*
X149401933Y-89192829D01*
X149406429Y-89246593D01*
X149410535Y-89294866D01*
X149415963Y-89326557D01*
X149423739Y-89338383D01*
X149435457Y-89335212D01*
X149465318Y-89324067D01*
X149518684Y-89321304D01*
X149576093Y-89331625D01*
X149625625Y-89353861D01*
X149652876Y-89374443D01*
X149687865Y-89414600D01*
X149710274Y-89466086D01*
X149722190Y-89534568D01*
X149725542Y-89621647D01*
X149725698Y-89625714D01*
G36*
X149725698Y-89625714D02*
G01*
X149724537Y-89682313D01*
X149716345Y-89759462D01*
X149698519Y-89817276D01*
X149668975Y-89861422D01*
X149625625Y-89897568D01*
X149584332Y-89918463D01*
X149514987Y-89930090D01*
X149445736Y-89917377D01*
X149383145Y-89881945D01*
X149333779Y-89825418D01*
X149327818Y-89814995D01*
X149319945Y-89796733D01*
X149314106Y-89773429D01*
X149309999Y-89741085D01*
X149307325Y-89695704D01*
X149305781Y-89633287D01*
X149305734Y-89627748D01*
X149406429Y-89627748D01*
X149406772Y-89680577D01*
X149408942Y-89728362D01*
X149414307Y-89759209D01*
X149424217Y-89779935D01*
X149440021Y-89797356D01*
X149443724Y-89800705D01*
X149491299Y-89825419D01*
X149541635Y-89822890D01*
X149588517Y-89793288D01*
X149602477Y-89777953D01*
X149614160Y-89757622D01*
X149620686Y-89729514D01*
X149623524Y-89686550D01*
X149624143Y-89621647D01*
X149623837Y-89572122D01*
X149621722Y-89523782D01*
X149616390Y-89492587D01*
X149606460Y-89471647D01*
X149590550Y-89454073D01*
X149581204Y-89446159D01*
X149532776Y-89424843D01*
X149482040Y-89428198D01*
X149437987Y-89456107D01*
X149428504Y-89467173D01*
X149416939Y-89488009D01*
X149410252Y-89517106D01*
X149407173Y-89561381D01*
X149406429Y-89627748D01*
X149305734Y-89627748D01*
X149305067Y-89549837D01*
X149304883Y-89441358D01*
X149304829Y-89104601D01*
X149352000Y-89124362D01*
X149364472Y-89129770D01*
X149384324Y-89141985D01*
X149395687Y-89160482D01*
X149401933Y-89192829D01*
X149406429Y-89246593D01*
X149410535Y-89294866D01*
X149415963Y-89326557D01*
X149423739Y-89338383D01*
X149435457Y-89335212D01*
X149465318Y-89324067D01*
X149518684Y-89321304D01*
X149576093Y-89331625D01*
X149625625Y-89353861D01*
X149652876Y-89374443D01*
X149687865Y-89414600D01*
X149710274Y-89466086D01*
X149722190Y-89534568D01*
X149725542Y-89621647D01*
X149725698Y-89625714D01*
G37*
X152657299Y-89570055D02*
X152652684Y-89680078D01*
X152650078Y-89703387D01*
X152630660Y-89786352D01*
X152595573Y-89849448D01*
X152542212Y-89897808D01*
X152539196Y-89899804D01*
X152471362Y-89928185D01*
X152400535Y-89930711D01*
X152332289Y-89909097D01*
X152272196Y-89865062D01*
X152225829Y-89800322D01*
X152225050Y-89798761D01*
X152209643Y-89758558D01*
X152198357Y-89712866D01*
X152192370Y-89669972D01*
X152192861Y-89638160D01*
X152201007Y-89625714D01*
X152208244Y-89626471D01*
X152242851Y-89640235D01*
X152282078Y-89665546D01*
X152315448Y-89694845D01*
X152332483Y-89720572D01*
X152350192Y-89755471D01*
X152386485Y-89787212D01*
X152428630Y-89799886D01*
X152444077Y-89796221D01*
X152474569Y-89777774D01*
X152501128Y-89752166D01*
X152512486Y-89728934D01*
X152512482Y-89728848D01*
X152499596Y-89718179D01*
X152465241Y-89698933D01*
X152414593Y-89673813D01*
X152352829Y-89645524D01*
X152352489Y-89645374D01*
X152285388Y-89615498D01*
X152240411Y-89593973D01*
X152213145Y-89577437D01*
X152199178Y-89562531D01*
X152194097Y-89545893D01*
X152193490Y-89524162D01*
X152197712Y-89483013D01*
X152341000Y-89483013D01*
X152355791Y-89495949D01*
X152392644Y-89515333D01*
X152393725Y-89515881D01*
X152437205Y-89536587D01*
X152476102Y-89553105D01*
X152500778Y-89560093D01*
X152510676Y-89550753D01*
X152512486Y-89518748D01*
X152504966Y-89478915D01*
X152478897Y-89442717D01*
X152441154Y-89423950D01*
X152399077Y-89425845D01*
X152360005Y-89451632D01*
X152344647Y-89469451D01*
X152341000Y-89483013D01*
X152197712Y-89483013D01*
X152198833Y-89472086D01*
X152225251Y-89401335D01*
X152269473Y-89345735D01*
X152326697Y-89307239D01*
X152392120Y-89287797D01*
X152460937Y-89289359D01*
X152528347Y-89313878D01*
X152589544Y-89363302D01*
X152623450Y-89412212D01*
X152647806Y-89482027D01*
X152651767Y-89518748D01*
X152657299Y-89570055D01*
G36*
X152657299Y-89570055D02*
G01*
X152652684Y-89680078D01*
X152650078Y-89703387D01*
X152630660Y-89786352D01*
X152595573Y-89849448D01*
X152542212Y-89897808D01*
X152539196Y-89899804D01*
X152471362Y-89928185D01*
X152400535Y-89930711D01*
X152332289Y-89909097D01*
X152272196Y-89865062D01*
X152225829Y-89800322D01*
X152225050Y-89798761D01*
X152209643Y-89758558D01*
X152198357Y-89712866D01*
X152192370Y-89669972D01*
X152192861Y-89638160D01*
X152201007Y-89625714D01*
X152208244Y-89626471D01*
X152242851Y-89640235D01*
X152282078Y-89665546D01*
X152315448Y-89694845D01*
X152332483Y-89720572D01*
X152350192Y-89755471D01*
X152386485Y-89787212D01*
X152428630Y-89799886D01*
X152444077Y-89796221D01*
X152474569Y-89777774D01*
X152501128Y-89752166D01*
X152512486Y-89728934D01*
X152512482Y-89728848D01*
X152499596Y-89718179D01*
X152465241Y-89698933D01*
X152414593Y-89673813D01*
X152352829Y-89645524D01*
X152352489Y-89645374D01*
X152285388Y-89615498D01*
X152240411Y-89593973D01*
X152213145Y-89577437D01*
X152199178Y-89562531D01*
X152194097Y-89545893D01*
X152193490Y-89524162D01*
X152197712Y-89483013D01*
X152341000Y-89483013D01*
X152355791Y-89495949D01*
X152392644Y-89515333D01*
X152393725Y-89515881D01*
X152437205Y-89536587D01*
X152476102Y-89553105D01*
X152500778Y-89560093D01*
X152510676Y-89550753D01*
X152512486Y-89518748D01*
X152504966Y-89478915D01*
X152478897Y-89442717D01*
X152441154Y-89423950D01*
X152399077Y-89425845D01*
X152360005Y-89451632D01*
X152344647Y-89469451D01*
X152341000Y-89483013D01*
X152197712Y-89483013D01*
X152198833Y-89472086D01*
X152225251Y-89401335D01*
X152269473Y-89345735D01*
X152326697Y-89307239D01*
X152392120Y-89287797D01*
X152460937Y-89289359D01*
X152528347Y-89313878D01*
X152589544Y-89363302D01*
X152623450Y-89412212D01*
X152647806Y-89482027D01*
X152651767Y-89518748D01*
X152657299Y-89570055D01*
G37*
X150584483Y-89336569D02*
X150634376Y-89365661D01*
X150656325Y-89388327D01*
X150698504Y-89456082D01*
X150712714Y-89529950D01*
X150712714Y-89580770D01*
X150665999Y-89561128D01*
X150633692Y-89541308D01*
X150608231Y-89500160D01*
X150605616Y-89491675D01*
X150577478Y-89448451D01*
X150535067Y-89425103D01*
X150486370Y-89424100D01*
X150439373Y-89447914D01*
X150432357Y-89454056D01*
X150408893Y-89480745D01*
X150405019Y-89504014D01*
X150422768Y-89526862D01*
X150464179Y-89552287D01*
X150531286Y-89583288D01*
X150535824Y-89585252D01*
X150610322Y-89619990D01*
X150661203Y-89650763D01*
X150692525Y-89681488D01*
X150708343Y-89716082D01*
X150712714Y-89758462D01*
X150706986Y-89805446D01*
X150678062Y-89865585D01*
X150627178Y-89908788D01*
X150590374Y-89921759D01*
X150538434Y-89928856D01*
X150487999Y-89927340D01*
X150451983Y-89916632D01*
X150448158Y-89913966D01*
X150437998Y-89895337D01*
X150445048Y-89862505D01*
X150457297Y-89836735D01*
X150476939Y-89826006D01*
X150514191Y-89826539D01*
X150565908Y-89823462D01*
X150599701Y-89802212D01*
X150611114Y-89762877D01*
X150611104Y-89761747D01*
X150604187Y-89738913D01*
X150580659Y-89717963D01*
X150534914Y-89693815D01*
X150472704Y-89664741D01*
X150431499Y-89648925D01*
X150407712Y-89649944D01*
X150396597Y-89670837D01*
X150393408Y-89714641D01*
X150393400Y-89784393D01*
X150393044Y-89827452D01*
X150391413Y-89880626D01*
X150388761Y-89917022D01*
X150385422Y-89930514D01*
X150384530Y-89930423D01*
X150365237Y-89923110D01*
X150333284Y-89907678D01*
X150289124Y-89884842D01*
X150294371Y-89679078D01*
X150294736Y-89665432D01*
X150298904Y-89569651D01*
X150306268Y-89497462D01*
X150318330Y-89444058D01*
X150336593Y-89404633D01*
X150362560Y-89374380D01*
X150397733Y-89348493D01*
X150398384Y-89348087D01*
X150455256Y-89326968D01*
X150521033Y-89323400D01*
X150584483Y-89336569D01*
G36*
X150584483Y-89336569D02*
G01*
X150634376Y-89365661D01*
X150656325Y-89388327D01*
X150698504Y-89456082D01*
X150712714Y-89529950D01*
X150712714Y-89580770D01*
X150665999Y-89561128D01*
X150633692Y-89541308D01*
X150608231Y-89500160D01*
X150605616Y-89491675D01*
X150577478Y-89448451D01*
X150535067Y-89425103D01*
X150486370Y-89424100D01*
X150439373Y-89447914D01*
X150432357Y-89454056D01*
X150408893Y-89480745D01*
X150405019Y-89504014D01*
X150422768Y-89526862D01*
X150464179Y-89552287D01*
X150531286Y-89583288D01*
X150535824Y-89585252D01*
X150610322Y-89619990D01*
X150661203Y-89650763D01*
X150692525Y-89681488D01*
X150708343Y-89716082D01*
X150712714Y-89758462D01*
X150706986Y-89805446D01*
X150678062Y-89865585D01*
X150627178Y-89908788D01*
X150590374Y-89921759D01*
X150538434Y-89928856D01*
X150487999Y-89927340D01*
X150451983Y-89916632D01*
X150448158Y-89913966D01*
X150437998Y-89895337D01*
X150445048Y-89862505D01*
X150457297Y-89836735D01*
X150476939Y-89826006D01*
X150514191Y-89826539D01*
X150565908Y-89823462D01*
X150599701Y-89802212D01*
X150611114Y-89762877D01*
X150611104Y-89761747D01*
X150604187Y-89738913D01*
X150580659Y-89717963D01*
X150534914Y-89693815D01*
X150472704Y-89664741D01*
X150431499Y-89648925D01*
X150407712Y-89649944D01*
X150396597Y-89670837D01*
X150393408Y-89714641D01*
X150393400Y-89784393D01*
X150393044Y-89827452D01*
X150391413Y-89880626D01*
X150388761Y-89917022D01*
X150385422Y-89930514D01*
X150384530Y-89930423D01*
X150365237Y-89923110D01*
X150333284Y-89907678D01*
X150289124Y-89884842D01*
X150294371Y-89679078D01*
X150294736Y-89665432D01*
X150298904Y-89569651D01*
X150306268Y-89497462D01*
X150318330Y-89444058D01*
X150336593Y-89404633D01*
X150362560Y-89374380D01*
X150397733Y-89348493D01*
X150398384Y-89348087D01*
X150455256Y-89326968D01*
X150521033Y-89323400D01*
X150584483Y-89336569D01*
G37*
X153204815Y-89677524D02*
X153206252Y-89789000D01*
X153206651Y-89821339D01*
X153207929Y-89929455D01*
X153208185Y-90012186D01*
X153206634Y-90072426D01*
X153202490Y-90113073D01*
X153194964Y-90137023D01*
X153183271Y-90147171D01*
X153166624Y-90146414D01*
X153144236Y-90137648D01*
X153115321Y-90123769D01*
X153109142Y-90120808D01*
X153083413Y-90106311D01*
X153069976Y-90089065D01*
X153064834Y-90060308D01*
X153063990Y-90011283D01*
X153063952Y-89923257D01*
X152973276Y-89923257D01*
X152917498Y-89920815D01*
X152873640Y-89910908D01*
X152837218Y-89890886D01*
X152834503Y-89888929D01*
X152797546Y-89855869D01*
X152771826Y-89815931D01*
X152755606Y-89763657D01*
X152747148Y-89693588D01*
X152745083Y-89614430D01*
X152889857Y-89614430D01*
X152889882Y-89627697D01*
X152891261Y-89687584D01*
X152895687Y-89726732D01*
X152904461Y-89752153D01*
X152918886Y-89770857D01*
X152919784Y-89771750D01*
X152955237Y-89795952D01*
X152989596Y-89793567D01*
X153028403Y-89764260D01*
X153037895Y-89754244D01*
X153051876Y-89733708D01*
X153059760Y-89706997D01*
X153063245Y-89666499D01*
X153064029Y-89604603D01*
X153063350Y-89567130D01*
X153055983Y-89498980D01*
X153039168Y-89454330D01*
X153011234Y-89429926D01*
X152970509Y-89422514D01*
X152953350Y-89424094D01*
X152923660Y-89439766D01*
X152904031Y-89474691D01*
X152893188Y-89531901D01*
X152889857Y-89614430D01*
X152745083Y-89614430D01*
X152744714Y-89600267D01*
X152745253Y-89532169D01*
X152747707Y-89480587D01*
X152753158Y-89444816D01*
X152762686Y-89418015D01*
X152777371Y-89393338D01*
X152790852Y-89374480D01*
X152839799Y-89323568D01*
X152895256Y-89295918D01*
X152964928Y-89287165D01*
X153044664Y-89295890D01*
X153113595Y-89327185D01*
X153168113Y-89382381D01*
X153172223Y-89388224D01*
X153181808Y-89403753D01*
X153189151Y-89421498D01*
X153194612Y-89445290D01*
X153198550Y-89478958D01*
X153201323Y-89526333D01*
X153203292Y-89591245D01*
X153203528Y-89604603D01*
X153204815Y-89677524D01*
G36*
X153204815Y-89677524D02*
G01*
X153206252Y-89789000D01*
X153206651Y-89821339D01*
X153207929Y-89929455D01*
X153208185Y-90012186D01*
X153206634Y-90072426D01*
X153202490Y-90113073D01*
X153194964Y-90137023D01*
X153183271Y-90147171D01*
X153166624Y-90146414D01*
X153144236Y-90137648D01*
X153115321Y-90123769D01*
X153109142Y-90120808D01*
X153083413Y-90106311D01*
X153069976Y-90089065D01*
X153064834Y-90060308D01*
X153063990Y-90011283D01*
X153063952Y-89923257D01*
X152973276Y-89923257D01*
X152917498Y-89920815D01*
X152873640Y-89910908D01*
X152837218Y-89890886D01*
X152834503Y-89888929D01*
X152797546Y-89855869D01*
X152771826Y-89815931D01*
X152755606Y-89763657D01*
X152747148Y-89693588D01*
X152745083Y-89614430D01*
X152889857Y-89614430D01*
X152889882Y-89627697D01*
X152891261Y-89687584D01*
X152895687Y-89726732D01*
X152904461Y-89752153D01*
X152918886Y-89770857D01*
X152919784Y-89771750D01*
X152955237Y-89795952D01*
X152989596Y-89793567D01*
X153028403Y-89764260D01*
X153037895Y-89754244D01*
X153051876Y-89733708D01*
X153059760Y-89706997D01*
X153063245Y-89666499D01*
X153064029Y-89604603D01*
X153063350Y-89567130D01*
X153055983Y-89498980D01*
X153039168Y-89454330D01*
X153011234Y-89429926D01*
X152970509Y-89422514D01*
X152953350Y-89424094D01*
X152923660Y-89439766D01*
X152904031Y-89474691D01*
X152893188Y-89531901D01*
X152889857Y-89614430D01*
X152745083Y-89614430D01*
X152744714Y-89600267D01*
X152745253Y-89532169D01*
X152747707Y-89480587D01*
X152753158Y-89444816D01*
X152762686Y-89418015D01*
X152777371Y-89393338D01*
X152790852Y-89374480D01*
X152839799Y-89323568D01*
X152895256Y-89295918D01*
X152964928Y-89287165D01*
X153044664Y-89295890D01*
X153113595Y-89327185D01*
X153168113Y-89382381D01*
X153172223Y-89388224D01*
X153181808Y-89403753D01*
X153189151Y-89421498D01*
X153194612Y-89445290D01*
X153198550Y-89478958D01*
X153201323Y-89526333D01*
X153203292Y-89591245D01*
X153203528Y-89604603D01*
X153204815Y-89677524D01*
G37*
X148462495Y-89322220D02*
X148493599Y-89330121D01*
X148522559Y-89349817D01*
X148559831Y-89386484D01*
X148583801Y-89412378D01*
X148608770Y-89445997D01*
X148620031Y-89477506D01*
X148622657Y-89517485D01*
X148622657Y-89582917D01*
X148578035Y-89559842D01*
X148542673Y-89531724D01*
X148518451Y-89493848D01*
X148514291Y-89483551D01*
X148482594Y-89443637D01*
X148438554Y-89423624D01*
X148390531Y-89425572D01*
X148346886Y-89451543D01*
X148328420Y-89472635D01*
X148317663Y-89499619D01*
X148329178Y-89523634D01*
X148364981Y-89547791D01*
X148427090Y-89575199D01*
X148436515Y-89578985D01*
X148493058Y-89603759D01*
X148541580Y-89628189D01*
X148572451Y-89647486D01*
X148603371Y-89681953D01*
X148623927Y-89736957D01*
X148621744Y-89795983D01*
X148597424Y-89851845D01*
X148551568Y-89897355D01*
X148514438Y-89916727D01*
X148442711Y-89930292D01*
X148402852Y-89928462D01*
X148365953Y-89918568D01*
X148351797Y-89897806D01*
X148357091Y-89863613D01*
X148358631Y-89859092D01*
X148370842Y-89835116D01*
X148391174Y-89826042D01*
X148429908Y-89826649D01*
X148457257Y-89827474D01*
X148489257Y-89820392D01*
X148511182Y-89799219D01*
X148523670Y-89773152D01*
X148525062Y-89745845D01*
X148524998Y-89745685D01*
X148508807Y-89730930D01*
X148474155Y-89709457D01*
X148429321Y-89685458D01*
X148382582Y-89663125D01*
X148342217Y-89646652D01*
X148316504Y-89640229D01*
X148312679Y-89646518D01*
X148307864Y-89676115D01*
X148304566Y-89724447D01*
X148303343Y-89785372D01*
X148303058Y-89827542D01*
X148301718Y-89880653D01*
X148299528Y-89917025D01*
X148296769Y-89930514D01*
X148282344Y-89925981D01*
X148253226Y-89913670D01*
X148216257Y-89896826D01*
X148216257Y-89680721D01*
X148216493Y-89625327D01*
X148218729Y-89541207D01*
X148224423Y-89478800D01*
X148234903Y-89433358D01*
X148251497Y-89400133D01*
X148275531Y-89374378D01*
X148308333Y-89351344D01*
X148350124Y-89332335D01*
X148427287Y-89320914D01*
X148462495Y-89322220D01*
G36*
X148462495Y-89322220D02*
G01*
X148493599Y-89330121D01*
X148522559Y-89349817D01*
X148559831Y-89386484D01*
X148583801Y-89412378D01*
X148608770Y-89445997D01*
X148620031Y-89477506D01*
X148622657Y-89517485D01*
X148622657Y-89582917D01*
X148578035Y-89559842D01*
X148542673Y-89531724D01*
X148518451Y-89493848D01*
X148514291Y-89483551D01*
X148482594Y-89443637D01*
X148438554Y-89423624D01*
X148390531Y-89425572D01*
X148346886Y-89451543D01*
X148328420Y-89472635D01*
X148317663Y-89499619D01*
X148329178Y-89523634D01*
X148364981Y-89547791D01*
X148427090Y-89575199D01*
X148436515Y-89578985D01*
X148493058Y-89603759D01*
X148541580Y-89628189D01*
X148572451Y-89647486D01*
X148603371Y-89681953D01*
X148623927Y-89736957D01*
X148621744Y-89795983D01*
X148597424Y-89851845D01*
X148551568Y-89897355D01*
X148514438Y-89916727D01*
X148442711Y-89930292D01*
X148402852Y-89928462D01*
X148365953Y-89918568D01*
X148351797Y-89897806D01*
X148357091Y-89863613D01*
X148358631Y-89859092D01*
X148370842Y-89835116D01*
X148391174Y-89826042D01*
X148429908Y-89826649D01*
X148457257Y-89827474D01*
X148489257Y-89820392D01*
X148511182Y-89799219D01*
X148523670Y-89773152D01*
X148525062Y-89745845D01*
X148524998Y-89745685D01*
X148508807Y-89730930D01*
X148474155Y-89709457D01*
X148429321Y-89685458D01*
X148382582Y-89663125D01*
X148342217Y-89646652D01*
X148316504Y-89640229D01*
X148312679Y-89646518D01*
X148307864Y-89676115D01*
X148304566Y-89724447D01*
X148303343Y-89785372D01*
X148303058Y-89827542D01*
X148301718Y-89880653D01*
X148299528Y-89917025D01*
X148296769Y-89930514D01*
X148282344Y-89925981D01*
X148253226Y-89913670D01*
X148216257Y-89896826D01*
X148216257Y-89680721D01*
X148216493Y-89625327D01*
X148218729Y-89541207D01*
X148224423Y-89478800D01*
X148234903Y-89433358D01*
X148251497Y-89400133D01*
X148275531Y-89374378D01*
X148308333Y-89351344D01*
X148350124Y-89332335D01*
X148427287Y-89320914D01*
X148462495Y-89322220D01*
G37*
X150608933Y-84618371D02*
X150684856Y-84618865D01*
X150739491Y-84620135D01*
X150776500Y-84622547D01*
X150799547Y-84626467D01*
X150812296Y-84632262D01*
X150818411Y-84640299D01*
X150821556Y-84650943D01*
X150821646Y-84651325D01*
X150826814Y-84676347D01*
X150836209Y-84724681D01*
X150848867Y-84791260D01*
X150863825Y-84871014D01*
X150880119Y-84958875D01*
X150881448Y-84966064D01*
X150897691Y-85051340D01*
X150912805Y-85126242D01*
X150925808Y-85186219D01*
X150935715Y-85226717D01*
X150941544Y-85243184D01*
X150941575Y-85243210D01*
X150959943Y-85252320D01*
X150997640Y-85267457D01*
X151046543Y-85285358D01*
X151049297Y-85286330D01*
X151111817Y-85309959D01*
X151184543Y-85339595D01*
X151252294Y-85369062D01*
X151363703Y-85419626D01*
X151610399Y-85251160D01*
X151627775Y-85239311D01*
X151702202Y-85188947D01*
X151768614Y-85144612D01*
X151823039Y-85108916D01*
X151861506Y-85084471D01*
X151880042Y-85073889D01*
X151892743Y-85076315D01*
X151921579Y-85095110D01*
X151966143Y-85132330D01*
X152027670Y-85189020D01*
X152107398Y-85266227D01*
X152114532Y-85273255D01*
X152177796Y-85336222D01*
X152233990Y-85393268D01*
X152279677Y-85440817D01*
X152311414Y-85475297D01*
X152325764Y-85493131D01*
X152325810Y-85493217D01*
X152327633Y-85506795D01*
X152320910Y-85528820D01*
X152303946Y-85562304D01*
X152275044Y-85610261D01*
X152232508Y-85675704D01*
X152174644Y-85761645D01*
X152164783Y-85776151D01*
X152114913Y-85849635D01*
X152070905Y-85914687D01*
X152035380Y-85967417D01*
X152010959Y-86003936D01*
X152000264Y-86020356D01*
X151999458Y-86023834D01*
X152004518Y-86049785D01*
X152019677Y-86092159D01*
X152042463Y-86143728D01*
X152073429Y-86211170D01*
X152108004Y-86291195D01*
X152137366Y-86363629D01*
X152144645Y-86382377D01*
X152163710Y-86430246D01*
X152177715Y-86463596D01*
X152184041Y-86476114D01*
X152191025Y-86477050D01*
X152222413Y-86482461D01*
X152273787Y-86491806D01*
X152339802Y-86504069D01*
X152415113Y-86518232D01*
X152494375Y-86533280D01*
X152572243Y-86548195D01*
X152643370Y-86561961D01*
X152702412Y-86573562D01*
X152744022Y-86581980D01*
X152762857Y-86586199D01*
X152765980Y-86587389D01*
X152773591Y-86593805D01*
X152779254Y-86607465D01*
X152783251Y-86631999D01*
X152785866Y-86671038D01*
X152787384Y-86728213D01*
X152788086Y-86807154D01*
X152788257Y-86911492D01*
X152788257Y-87228799D01*
X152712057Y-87243839D01*
X152702840Y-87245642D01*
X152653891Y-87254980D01*
X152586205Y-87267669D01*
X152507478Y-87282273D01*
X152425400Y-87297355D01*
X152393078Y-87303422D01*
X152320855Y-87318181D01*
X152260666Y-87332137D01*
X152218040Y-87343952D01*
X152198510Y-87352287D01*
X152189660Y-87365905D01*
X152173548Y-87401938D01*
X152157065Y-87448572D01*
X152151263Y-87466034D01*
X152129906Y-87523358D01*
X152102359Y-87591201D01*
X152073107Y-87658355D01*
X152057463Y-87693430D01*
X152035174Y-87745822D01*
X152019857Y-87785058D01*
X152014162Y-87804563D01*
X152014478Y-87806036D01*
X152025281Y-87826729D01*
X152049638Y-87866665D01*
X152085081Y-87921972D01*
X152129136Y-87988781D01*
X152179332Y-88063220D01*
X152344501Y-88305623D01*
X152127503Y-88522983D01*
X152106516Y-88543899D01*
X152042342Y-88606505D01*
X151984990Y-88660495D01*
X151937820Y-88702826D01*
X151904192Y-88730457D01*
X151887467Y-88740343D01*
X151869303Y-88732821D01*
X151831265Y-88711227D01*
X151777726Y-88678151D01*
X151712884Y-88636191D01*
X151640940Y-88587943D01*
X151570275Y-88540291D01*
X151506526Y-88498328D01*
X151454513Y-88465165D01*
X151418279Y-88443378D01*
X151401867Y-88435543D01*
X151400905Y-88435614D01*
X151379103Y-88443338D01*
X151340440Y-88461323D01*
X151292612Y-88486013D01*
X151292110Y-88486284D01*
X151228587Y-88518099D01*
X151185060Y-88533642D01*
X151158052Y-88533685D01*
X151144090Y-88519000D01*
X151138180Y-88504544D01*
X151122229Y-88465831D01*
X151097660Y-88406316D01*
X151065779Y-88329165D01*
X151027893Y-88237541D01*
X150985310Y-88134607D01*
X150939337Y-88023526D01*
X150897667Y-87922472D01*
X150855268Y-87818780D01*
X150817756Y-87726119D01*
X150786388Y-87647642D01*
X150762425Y-87586500D01*
X150747123Y-87545843D01*
X150741743Y-87528825D01*
X150752018Y-87513219D01*
X150780563Y-87487162D01*
X150820971Y-87456887D01*
X150917979Y-87377684D01*
X151004793Y-87276475D01*
X151068322Y-87165116D01*
X151108177Y-87046893D01*
X151123965Y-86925095D01*
X151115296Y-86803010D01*
X151081778Y-86683925D01*
X151023021Y-86571129D01*
X150938632Y-86467911D01*
X150894631Y-86427713D01*
X150789211Y-86356638D01*
X150676410Y-86310301D01*
X150559525Y-86287599D01*
X150441853Y-86287428D01*
X150326690Y-86308687D01*
X150217335Y-86350270D01*
X150117083Y-86411076D01*
X150029233Y-86490001D01*
X149957080Y-86585941D01*
X149903922Y-86697795D01*
X149873057Y-86824457D01*
X149867392Y-86885507D01*
X149875185Y-87017776D01*
X149910284Y-87143266D01*
X149971649Y-87259759D01*
X150058243Y-87365039D01*
X150169029Y-87456887D01*
X150207931Y-87485930D01*
X150237104Y-87512272D01*
X150248257Y-87528800D01*
X150243810Y-87543209D01*
X150229378Y-87581815D01*
X150206173Y-87641201D01*
X150175452Y-87718215D01*
X150138474Y-87809703D01*
X150096496Y-87912516D01*
X150050778Y-88023502D01*
X150009178Y-88124072D01*
X149966222Y-88227947D01*
X149927829Y-88320819D01*
X149895305Y-88399525D01*
X149869958Y-88460899D01*
X149853095Y-88501779D01*
X149846025Y-88519000D01*
X149845943Y-88519204D01*
X149831798Y-88533745D01*
X149804659Y-88533579D01*
X149761023Y-88517927D01*
X149697388Y-88486013D01*
X149692379Y-88483326D01*
X149645125Y-88459150D01*
X149607811Y-88442037D01*
X149588133Y-88435543D01*
X149572005Y-88443218D01*
X149535959Y-88464871D01*
X149484092Y-88497928D01*
X149420445Y-88539810D01*
X149349060Y-88587943D01*
X149278724Y-88635131D01*
X149213670Y-88677267D01*
X149159820Y-88710578D01*
X149121374Y-88732469D01*
X149102534Y-88740343D01*
X149099325Y-88739343D01*
X149076954Y-88723584D01*
X149038733Y-88691033D01*
X148988021Y-88644733D01*
X148928181Y-88587726D01*
X148862571Y-88523058D01*
X148645648Y-88305772D01*
X148814601Y-88057253D01*
X148983553Y-87808733D01*
X148932183Y-87697595D01*
X148932031Y-87697266D01*
X148901183Y-87626418D01*
X148869661Y-87547523D01*
X148844266Y-87477600D01*
X148840423Y-87466322D01*
X148821047Y-87413967D01*
X148803574Y-87373283D01*
X148791388Y-87352287D01*
X148786426Y-87349322D01*
X148756634Y-87339375D01*
X148706047Y-87326505D01*
X148640194Y-87312053D01*
X148564600Y-87297355D01*
X148541957Y-87293210D01*
X148460038Y-87278116D01*
X148383600Y-87263899D01*
X148320337Y-87251995D01*
X148277943Y-87243839D01*
X148201743Y-87228799D01*
X148201743Y-86911492D01*
X148201760Y-86872476D01*
X148202082Y-86777292D01*
X148203033Y-86706255D01*
X148204896Y-86655734D01*
X148207955Y-86622098D01*
X148212494Y-86601718D01*
X148218795Y-86590962D01*
X148227143Y-86586199D01*
X148235224Y-86584270D01*
X148268172Y-86577445D01*
X148320736Y-86567022D01*
X148387569Y-86554018D01*
X148463328Y-86539449D01*
X148542665Y-86524333D01*
X148620237Y-86509685D01*
X148690698Y-86496523D01*
X148748702Y-86485863D01*
X148788904Y-86478721D01*
X148805959Y-86476114D01*
X148807112Y-86474541D01*
X148816385Y-86454119D01*
X148832432Y-86415045D01*
X148852635Y-86363629D01*
X148880672Y-86294353D01*
X148915186Y-86214290D01*
X148947538Y-86143728D01*
X148954952Y-86127889D01*
X148975755Y-86078293D01*
X148988219Y-86040038D01*
X148989863Y-86020356D01*
X148989015Y-86018962D01*
X148975548Y-85998420D01*
X148948850Y-85958516D01*
X148911539Y-85903140D01*
X148866234Y-85836177D01*
X148815552Y-85761517D01*
X148758445Y-85676692D01*
X148715607Y-85610800D01*
X148686460Y-85562478D01*
X148669317Y-85528733D01*
X148662495Y-85506572D01*
X148664306Y-85493002D01*
X148664915Y-85491984D01*
X148681297Y-85472210D01*
X148714695Y-85436175D01*
X148761671Y-85387451D01*
X148818786Y-85329612D01*
X148882603Y-85266227D01*
X148948802Y-85201905D01*
X149013648Y-85141447D01*
X149061299Y-85100655D01*
X149092990Y-85078484D01*
X149109958Y-85073889D01*
X149112175Y-85074921D01*
X149135524Y-85088837D01*
X149177912Y-85116030D01*
X149235369Y-85153889D01*
X149303923Y-85199803D01*
X149379601Y-85251160D01*
X149626298Y-85419626D01*
X149737706Y-85369062D01*
X149740943Y-85367597D01*
X149809343Y-85337965D01*
X149881907Y-85308493D01*
X149943457Y-85285358D01*
X149943729Y-85285262D01*
X149992595Y-85267367D01*
X150030212Y-85252253D01*
X150048457Y-85243184D01*
X150048752Y-85242855D01*
X150054946Y-85224282D01*
X150065139Y-85182045D01*
X150078348Y-85120696D01*
X150093590Y-85044789D01*
X150109881Y-84958875D01*
X150110449Y-84955796D01*
X150126713Y-84868128D01*
X150141608Y-84788741D01*
X150154171Y-84722701D01*
X150163438Y-84675079D01*
X150168444Y-84650943D01*
X150168764Y-84649605D01*
X150172060Y-84639273D01*
X150178738Y-84631506D01*
X150192462Y-84625940D01*
X150216895Y-84622207D01*
X150255702Y-84619942D01*
X150312546Y-84618778D01*
X150391090Y-84618348D01*
X150495000Y-84618286D01*
X150508056Y-84618286D01*
X150608933Y-84618371D01*
G36*
X150608933Y-84618371D02*
G01*
X150684856Y-84618865D01*
X150739491Y-84620135D01*
X150776500Y-84622547D01*
X150799547Y-84626467D01*
X150812296Y-84632262D01*
X150818411Y-84640299D01*
X150821556Y-84650943D01*
X150821646Y-84651325D01*
X150826814Y-84676347D01*
X150836209Y-84724681D01*
X150848867Y-84791260D01*
X150863825Y-84871014D01*
X150880119Y-84958875D01*
X150881448Y-84966064D01*
X150897691Y-85051340D01*
X150912805Y-85126242D01*
X150925808Y-85186219D01*
X150935715Y-85226717D01*
X150941544Y-85243184D01*
X150941575Y-85243210D01*
X150959943Y-85252320D01*
X150997640Y-85267457D01*
X151046543Y-85285358D01*
X151049297Y-85286330D01*
X151111817Y-85309959D01*
X151184543Y-85339595D01*
X151252294Y-85369062D01*
X151363703Y-85419626D01*
X151610399Y-85251160D01*
X151627775Y-85239311D01*
X151702202Y-85188947D01*
X151768614Y-85144612D01*
X151823039Y-85108916D01*
X151861506Y-85084471D01*
X151880042Y-85073889D01*
X151892743Y-85076315D01*
X151921579Y-85095110D01*
X151966143Y-85132330D01*
X152027670Y-85189020D01*
X152107398Y-85266227D01*
X152114532Y-85273255D01*
X152177796Y-85336222D01*
X152233990Y-85393268D01*
X152279677Y-85440817D01*
X152311414Y-85475297D01*
X152325764Y-85493131D01*
X152325810Y-85493217D01*
X152327633Y-85506795D01*
X152320910Y-85528820D01*
X152303946Y-85562304D01*
X152275044Y-85610261D01*
X152232508Y-85675704D01*
X152174644Y-85761645D01*
X152164783Y-85776151D01*
X152114913Y-85849635D01*
X152070905Y-85914687D01*
X152035380Y-85967417D01*
X152010959Y-86003936D01*
X152000264Y-86020356D01*
X151999458Y-86023834D01*
X152004518Y-86049785D01*
X152019677Y-86092159D01*
X152042463Y-86143728D01*
X152073429Y-86211170D01*
X152108004Y-86291195D01*
X152137366Y-86363629D01*
X152144645Y-86382377D01*
X152163710Y-86430246D01*
X152177715Y-86463596D01*
X152184041Y-86476114D01*
X152191025Y-86477050D01*
X152222413Y-86482461D01*
X152273787Y-86491806D01*
X152339802Y-86504069D01*
X152415113Y-86518232D01*
X152494375Y-86533280D01*
X152572243Y-86548195D01*
X152643370Y-86561961D01*
X152702412Y-86573562D01*
X152744022Y-86581980D01*
X152762857Y-86586199D01*
X152765980Y-86587389D01*
X152773591Y-86593805D01*
X152779254Y-86607465D01*
X152783251Y-86631999D01*
X152785866Y-86671038D01*
X152787384Y-86728213D01*
X152788086Y-86807154D01*
X152788257Y-86911492D01*
X152788257Y-87228799D01*
X152712057Y-87243839D01*
X152702840Y-87245642D01*
X152653891Y-87254980D01*
X152586205Y-87267669D01*
X152507478Y-87282273D01*
X152425400Y-87297355D01*
X152393078Y-87303422D01*
X152320855Y-87318181D01*
X152260666Y-87332137D01*
X152218040Y-87343952D01*
X152198510Y-87352287D01*
X152189660Y-87365905D01*
X152173548Y-87401938D01*
X152157065Y-87448572D01*
X152151263Y-87466034D01*
X152129906Y-87523358D01*
X152102359Y-87591201D01*
X152073107Y-87658355D01*
X152057463Y-87693430D01*
X152035174Y-87745822D01*
X152019857Y-87785058D01*
X152014162Y-87804563D01*
X152014478Y-87806036D01*
X152025281Y-87826729D01*
X152049638Y-87866665D01*
X152085081Y-87921972D01*
X152129136Y-87988781D01*
X152179332Y-88063220D01*
X152344501Y-88305623D01*
X152127503Y-88522983D01*
X152106516Y-88543899D01*
X152042342Y-88606505D01*
X151984990Y-88660495D01*
X151937820Y-88702826D01*
X151904192Y-88730457D01*
X151887467Y-88740343D01*
X151869303Y-88732821D01*
X151831265Y-88711227D01*
X151777726Y-88678151D01*
X151712884Y-88636191D01*
X151640940Y-88587943D01*
X151570275Y-88540291D01*
X151506526Y-88498328D01*
X151454513Y-88465165D01*
X151418279Y-88443378D01*
X151401867Y-88435543D01*
X151400905Y-88435614D01*
X151379103Y-88443338D01*
X151340440Y-88461323D01*
X151292612Y-88486013D01*
X151292110Y-88486284D01*
X151228587Y-88518099D01*
X151185060Y-88533642D01*
X151158052Y-88533685D01*
X151144090Y-88519000D01*
X151138180Y-88504544D01*
X151122229Y-88465831D01*
X151097660Y-88406316D01*
X151065779Y-88329165D01*
X151027893Y-88237541D01*
X150985310Y-88134607D01*
X150939337Y-88023526D01*
X150897667Y-87922472D01*
X150855268Y-87818780D01*
X150817756Y-87726119D01*
X150786388Y-87647642D01*
X150762425Y-87586500D01*
X150747123Y-87545843D01*
X150741743Y-87528825D01*
X150752018Y-87513219D01*
X150780563Y-87487162D01*
X150820971Y-87456887D01*
X150917979Y-87377684D01*
X151004793Y-87276475D01*
X151068322Y-87165116D01*
X151108177Y-87046893D01*
X151123965Y-86925095D01*
X151115296Y-86803010D01*
X151081778Y-86683925D01*
X151023021Y-86571129D01*
X150938632Y-86467911D01*
X150894631Y-86427713D01*
X150789211Y-86356638D01*
X150676410Y-86310301D01*
X150559525Y-86287599D01*
X150441853Y-86287428D01*
X150326690Y-86308687D01*
X150217335Y-86350270D01*
X150117083Y-86411076D01*
X150029233Y-86490001D01*
X149957080Y-86585941D01*
X149903922Y-86697795D01*
X149873057Y-86824457D01*
X149867392Y-86885507D01*
X149875185Y-87017776D01*
X149910284Y-87143266D01*
X149971649Y-87259759D01*
X150058243Y-87365039D01*
X150169029Y-87456887D01*
X150207931Y-87485930D01*
X150237104Y-87512272D01*
X150248257Y-87528800D01*
X150243810Y-87543209D01*
X150229378Y-87581815D01*
X150206173Y-87641201D01*
X150175452Y-87718215D01*
X150138474Y-87809703D01*
X150096496Y-87912516D01*
X150050778Y-88023502D01*
X150009178Y-88124072D01*
X149966222Y-88227947D01*
X149927829Y-88320819D01*
X149895305Y-88399525D01*
X149869958Y-88460899D01*
X149853095Y-88501779D01*
X149846025Y-88519000D01*
X149845943Y-88519204D01*
X149831798Y-88533745D01*
X149804659Y-88533579D01*
X149761023Y-88517927D01*
X149697388Y-88486013D01*
X149692379Y-88483326D01*
X149645125Y-88459150D01*
X149607811Y-88442037D01*
X149588133Y-88435543D01*
X149572005Y-88443218D01*
X149535959Y-88464871D01*
X149484092Y-88497928D01*
X149420445Y-88539810D01*
X149349060Y-88587943D01*
X149278724Y-88635131D01*
X149213670Y-88677267D01*
X149159820Y-88710578D01*
X149121374Y-88732469D01*
X149102534Y-88740343D01*
X149099325Y-88739343D01*
X149076954Y-88723584D01*
X149038733Y-88691033D01*
X148988021Y-88644733D01*
X148928181Y-88587726D01*
X148862571Y-88523058D01*
X148645648Y-88305772D01*
X148814601Y-88057253D01*
X148983553Y-87808733D01*
X148932183Y-87697595D01*
X148932031Y-87697266D01*
X148901183Y-87626418D01*
X148869661Y-87547523D01*
X148844266Y-87477600D01*
X148840423Y-87466322D01*
X148821047Y-87413967D01*
X148803574Y-87373283D01*
X148791388Y-87352287D01*
X148786426Y-87349322D01*
X148756634Y-87339375D01*
X148706047Y-87326505D01*
X148640194Y-87312053D01*
X148564600Y-87297355D01*
X148541957Y-87293210D01*
X148460038Y-87278116D01*
X148383600Y-87263899D01*
X148320337Y-87251995D01*
X148277943Y-87243839D01*
X148201743Y-87228799D01*
X148201743Y-86911492D01*
X148201760Y-86872476D01*
X148202082Y-86777292D01*
X148203033Y-86706255D01*
X148204896Y-86655734D01*
X148207955Y-86622098D01*
X148212494Y-86601718D01*
X148218795Y-86590962D01*
X148227143Y-86586199D01*
X148235224Y-86584270D01*
X148268172Y-86577445D01*
X148320736Y-86567022D01*
X148387569Y-86554018D01*
X148463328Y-86539449D01*
X148542665Y-86524333D01*
X148620237Y-86509685D01*
X148690698Y-86496523D01*
X148748702Y-86485863D01*
X148788904Y-86478721D01*
X148805959Y-86476114D01*
X148807112Y-86474541D01*
X148816385Y-86454119D01*
X148832432Y-86415045D01*
X148852635Y-86363629D01*
X148880672Y-86294353D01*
X148915186Y-86214290D01*
X148947538Y-86143728D01*
X148954952Y-86127889D01*
X148975755Y-86078293D01*
X148988219Y-86040038D01*
X148989863Y-86020356D01*
X148989015Y-86018962D01*
X148975548Y-85998420D01*
X148948850Y-85958516D01*
X148911539Y-85903140D01*
X148866234Y-85836177D01*
X148815552Y-85761517D01*
X148758445Y-85676692D01*
X148715607Y-85610800D01*
X148686460Y-85562478D01*
X148669317Y-85528733D01*
X148662495Y-85506572D01*
X148664306Y-85493002D01*
X148664915Y-85491984D01*
X148681297Y-85472210D01*
X148714695Y-85436175D01*
X148761671Y-85387451D01*
X148818786Y-85329612D01*
X148882603Y-85266227D01*
X148948802Y-85201905D01*
X149013648Y-85141447D01*
X149061299Y-85100655D01*
X149092990Y-85078484D01*
X149109958Y-85073889D01*
X149112175Y-85074921D01*
X149135524Y-85088837D01*
X149177912Y-85116030D01*
X149235369Y-85153889D01*
X149303923Y-85199803D01*
X149379601Y-85251160D01*
X149626298Y-85419626D01*
X149737706Y-85369062D01*
X149740943Y-85367597D01*
X149809343Y-85337965D01*
X149881907Y-85308493D01*
X149943457Y-85285358D01*
X149943729Y-85285262D01*
X149992595Y-85267367D01*
X150030212Y-85252253D01*
X150048457Y-85243184D01*
X150048752Y-85242855D01*
X150054946Y-85224282D01*
X150065139Y-85182045D01*
X150078348Y-85120696D01*
X150093590Y-85044789D01*
X150109881Y-84958875D01*
X150110449Y-84955796D01*
X150126713Y-84868128D01*
X150141608Y-84788741D01*
X150154171Y-84722701D01*
X150163438Y-84675079D01*
X150168444Y-84650943D01*
X150168764Y-84649605D01*
X150172060Y-84639273D01*
X150178738Y-84631506D01*
X150192462Y-84625940D01*
X150216895Y-84622207D01*
X150255702Y-84619942D01*
X150312546Y-84618778D01*
X150391090Y-84618348D01*
X150495000Y-84618286D01*
X150508056Y-84618286D01*
X150608933Y-84618371D01*
G37*
D11*
%TO.C,TP1*%
X136840000Y-83500000D02*
X136840000Y-81600000D01*
X136840000Y-81600000D02*
X134940000Y-81600000D01*
X134940000Y-83500000D02*
X136840000Y-83500000D01*
X134940000Y-81600000D02*
X134940000Y-83500000D01*
%TD*%
M02*
